<?xml version="1.0" encoding="UTF-8"?>
<!DOCTYPE svg PUBLIC "-//W3C//DTD SVG 1.1//EN" "http://www.w3.org/Graphics/SVG/1.1/DTD/svg11.dtd">
<!-- Creator: CorelDRAW 2018 (64-Bit) -->
<svg xmlns="http://www.w3.org/2000/svg" xml:space="preserve" width="0.35737in" height="0.465205in" version="1.1" style="shape-rendering:geometricPrecision; text-rendering:geometricPrecision; image-rendering:optimizeQuality; fill-rule:evenodd; clip-rule:evenodd"
viewBox="0 0 24.36 31.7"
 xmlns:xlink="http://www.w3.org/1999/xlink">
 <defs>
  <style type="text/css">
   <![CDATA[
    .fil1 {fill:#2C3E50}
    .fil0 {fill:#34495E}
    .fil2 {fill:#F39C12}
    .fil3 {fill:#C0392B;fill-rule:nonzero}
   ]]>
  </style>
 </defs>
 <g id="Layer_x0020_1">
  <metadata id="CorelCorpID_0Corel-Layer"/>
  <g id="_2895229640416">
   <path class="fil0" d="M12.18 10.79c4.82,0 8.73,3.91 8.73,8.73 0,4.82 -3.91,8.73 -8.73,8.73 -0.55,0 -1.09,-0.05 -1.62,-0.15 0.1,-0.39 0.16,-0.8 0.19,-1.25 0.46,0.09 0.94,0.14 1.43,0.14 4.13,0 7.47,-3.35 7.47,-7.47 0,-1.22 -0.29,-2.36 -0.81,-3.38 -0.29,-0.97 -0.83,-1.86 -1.31,-2.36 -0.87,-0.91 -2.18,-1.75 -3.56,-1.75l-0.06 0c-0.43,0 -0.79,0.01 -1.13,0.04 -0.2,-0.02 -0.39,-0.02 -0.59,-0.02 -1.46,0 -2.82,0.42 -3.97,1.14 -0.21,-0.52 -0.83,-0.69 -1.4,-0.55 1.48,-1.16 3.35,-1.85 5.38,-1.85zm-4.34 16.32c-2.63,-1.51 -4.4,-4.34 -4.4,-7.58 0,-2.23 0.84,-4.27 2.22,-5.81 -0.02,0.1 -0.04,0.21 -0.04,0.32 0,0.59 0.14,0.99 0.39,1.27 -0.82,1.2 -1.31,2.65 -1.31,4.22 0,2.51 1.24,4.73 3.13,6.09l0 1.5z"/>
   <path class="fil0" d="M18.76 10.78c2.65,2 4.37,5.17 4.37,8.75 0,6.05 -4.9,10.95 -10.95,10.95 -0.93,0 -1.83,-0.12 -2.69,-0.33 -0.45,0.48 -0.97,0.74 -1.47,0.83 1.3,0.47 2.7,0.73 4.16,0.73 6.73,0 12.18,-5.45 12.18,-12.18 0,-4.08 -2.01,-7.69 -5.08,-9.9l-0.51 1.15zm-12.77 17.78c-2.87,-1.97 -4.76,-5.28 -4.76,-9.03 0,-3.58 1.72,-6.75 4.37,-8.75l-0.51 -1.15c-3.08,2.21 -5.08,5.82 -5.08,9.9 0,4.4 2.34,8.26 5.83,10.4 -0.04,-0.12 -0.06,-0.25 -0.06,-0.39 0,-0.41 0.08,-0.73 0.21,-0.97z"/>
   <path class="fil1" d="M11.88 29.08l0.61 -0c0.08,-0 0.14,0.03 0.2,0.07 0.05,-0.05 0.11,-0.08 0.19,-0.09l0.61 -0.07c0.07,-0.01 0.15,0.01 0.21,0.05 0.04,-0.05 0.1,-0.09 0.18,-0.11l0.6 -0.13c0.07,-0.02 0.15,-0 0.21,0.03 0.04,-0.06 0.09,-0.1 0.16,-0.13l0.58 -0.19c0.07,-0.02 0.15,-0.02 0.21,0.01 0.03,-0.06 0.08,-0.11 0.15,-0.14l0.56 -0.25c0.07,-0.03 0.14,-0.03 0.21,-0.02 0.02,-0.06 0.07,-0.12 0.13,-0.16l0.53 -0.31c0.06,-0.04 0.14,-0.05 0.21,-0.04 0.02,-0.07 0.06,-0.13 0.12,-0.17l0.5 -0.36c0.06,-0.04 0.13,-0.06 0.2,-0.06 0.01,-0.07 0.04,-0.13 0.1,-0.18l0.45 -0.41c0.06,-0.05 0.13,-0.08 0.2,-0.08 0,-0.07 0.03,-0.14 0.08,-0.19l0.41 -0.46c0.05,-0.06 0.12,-0.09 0.19,-0.1 -0,-0.07 0.01,-0.14 0.06,-0.2l0.36 -0.5c0.04,-0.06 0.11,-0.1 0.17,-0.12 -0.01,-0.07 0,-0.14 0.04,-0.2l0.3 -0.53c0.04,-0.07 0.09,-0.11 0.16,-0.14 -0.02,-0.07 -0.01,-0.14 0.02,-0.21l0.24 -0.56c0.03,-0.07 0.08,-0.12 0.14,-0.15 -0.02,-0.06 -0.03,-0.14 -0.01,-0.21l0.18 -0.59c0.02,-0.07 0.07,-0.13 0.13,-0.17 -0.03,-0.06 -0.04,-0.13 -0.03,-0.21l0.12 -0.6c0.02,-0.07 0.06,-0.14 0.11,-0.18 -0.04,-0.06 -0.06,-0.13 -0.05,-0.2l0.06 -0.61c0.01,-0.07 0.04,-0.14 0.09,-0.19 -0.04,-0.05 -0.07,-0.12 -0.07,-0.2l-0.01 -0.61c-0,-0.08 0.03,-0.14 0.07,-0.2 -0.05,-0.05 -0.08,-0.11 -0.09,-0.19l-0.07 -0.61c-0.01,-0.07 0.01,-0.15 0.05,-0.21 -0.05,-0.04 -0.09,-0.1 -0.11,-0.18l-0.13 -0.6c-0.02,-0.07 -0.01,-0.15 0.03,-0.21 -0.06,-0.04 -0.1,-0.09 -0.13,-0.16l-0.2 -0.58c-0.02,-0.07 -0.02,-0.15 0,-0.21 -0.06,-0.03 -0.11,-0.08 -0.14,-0.15l-0.26 -0.56c-0.03,-0.07 -0.04,-0.14 -0.02,-0.21 -0.06,-0.02 -0.12,-0.07 -0.16,-0.13l-0.31 -0.53c-0.04,-0.06 -0.05,-0.14 -0.04,-0.21 -0.07,-0.02 -0.13,-0.06 -0.17,-0.12l-0.37 -0.49c-0.05,-0.06 -0.06,-0.13 -0.06,-0.2 -0.07,-0.01 -0.13,-0.04 -0.18,-0.1l-0.42 -0.45c-0.05,-0.06 -0.08,-0.12 -0.08,-0.19 -0.07,-0 -0.14,-0.03 -0.19,-0.08l-0.46 -0.4c-0.02,-0.02 -0.04,-0.04 -0.05,-0.06l0.28 -0.63c0.11,-0.04 0.23,-0.02 0.32,0.06l0.46 0.4c0.07,0.06 0.11,0.15 0.11,0.23 0.09,-0 0.17,0.03 0.23,0.1l0.42 0.45c0.06,0.07 0.09,0.16 0.08,0.24 0.08,0.01 0.17,0.05 0.22,0.12l0.37 0.49c0.06,0.07 0.07,0.17 0.06,0.25 0.08,0.02 0.16,0.07 0.21,0.15l0.31 0.53c0.05,0.08 0.05,0.17 0.03,0.25 0.08,0.03 0.15,0.08 0.19,0.17l0.26 0.56c0.04,0.08 0.04,0.18 0,0.26 0.08,0.03 0.14,0.1 0.17,0.19l0.2 0.58c0.03,0.09 0.02,0.18 -0.02,0.25 0.07,0.04 0.13,0.11 0.15,0.2l0.13 0.6c0.02,0.09 -0,0.18 -0.05,0.25 0.07,0.05 0.12,0.13 0.13,0.22l0.07 0.61c0.01,0.09 -0.02,0.18 -0.08,0.24 0.06,0.06 0.1,0.14 0.1,0.23l0.01 0.61c0,0.09 -0.04,0.18 -0.1,0.23 0.06,0.06 0.09,0.15 0.08,0.24l-0.06 0.61c-0.01,0.09 -0.06,0.17 -0.13,0.22 0.05,0.07 0.07,0.16 0.05,0.25l-0.12 0.6c-0.02,0.09 -0.07,0.16 -0.15,0.21 0.04,0.07 0.06,0.16 0.03,0.25l-0.18 0.59c-0.03,0.09 -0.09,0.16 -0.17,0.19 0.03,0.08 0.04,0.17 0,0.25l-0.25 0.56c-0.04,0.08 -0.11,0.14 -0.19,0.17 0.03,0.08 0.02,0.17 -0.03,0.25l-0.3 0.53c-0.05,0.08 -0.12,0.13 -0.21,0.15 0.02,0.08 0,0.17 -0.05,0.25l-0.36 0.5c-0.05,0.07 -0.14,0.12 -0.22,0.13 0.01,0.08 -0.02,0.17 -0.08,0.24l-0.41 0.46c-0.06,0.07 -0.15,0.1 -0.23,0.1 -0,0.09 -0.03,0.17 -0.1,0.23l-0.45 0.41c-0.07,0.06 -0.16,0.09 -0.24,0.08 -0.01,0.08 -0.05,0.17 -0.13,0.22l-0.49 0.36c-0.07,0.05 -0.17,0.07 -0.25,0.05 -0.02,0.08 -0.07,0.16 -0.15,0.2l-0.53 0.31c-0.08,0.05 -0.17,0.05 -0.25,0.03 -0.03,0.08 -0.09,0.15 -0.17,0.19l-0.56 0.25c-0.08,0.04 -0.18,0.04 -0.26,0 -0.03,0.08 -0.1,0.14 -0.19,0.17l-0.58 0.19c-0.09,0.03 -0.18,0.02 -0.25,-0.03 -0.04,0.07 -0.12,0.13 -0.2,0.15l-0.6 0.13c-0.09,0.02 -0.18,-0 -0.25,-0.05 -0.05,0.07 -0.13,0.12 -0.22,0.13l-0.61 0.07c-0.09,0.01 -0.18,-0.02 -0.24,-0.08 -0.06,0.06 -0.14,0.1 -0.23,0.1l-0.61 0c-0.09,0 -0.18,-0.04 -0.23,-0.1 -0.06,0.06 -0.15,0.09 -0.24,0.08l-0.61 -0.06c-0.09,-0.01 -0.17,-0.06 -0.22,-0.13 -0.07,0.05 -0.16,0.07 -0.25,0.05l-0.45 -0.1c0.04,-0.06 0.08,-0.12 0.11,-0.18l0.32 0.07c0.09,0.02 0.18,-0.04 0.2,-0.13l0.02 -0.11c0.02,-0.09 -0.04,-0.18 -0.13,-0.2l-0.19 -0.04c0.03,-0.06 0.06,-0.12 0.08,-0.18l0.21 0.04c0.07,0.02 0.14,0.06 0.18,0.11 0.06,-0.04 0.13,-0.06 0.2,-0.05l0.61 0.06c0.07,0.01 0.14,0.04 0.19,0.09 0.05,-0.04 0.12,-0.07 0.2,-0.07zm-5.52 -0.95c-0.01,-0.01 -0.02,-0.01 -0.03,-0.02l-0.5 -0.36c-0.07,-0.05 -0.12,-0.14 -0.13,-0.22 -0.08,0.01 -0.17,-0.02 -0.24,-0.08l-0.46 -0.41c-0.07,-0.06 -0.1,-0.15 -0.1,-0.23 -0.09,-0 -0.17,-0.04 -0.23,-0.1l-0.41 -0.46c-0.06,-0.07 -0.09,-0.16 -0.08,-0.24 -0.08,-0.01 -0.16,-0.05 -0.22,-0.13l-0.36 -0.5c-0.05,-0.07 -0.07,-0.17 -0.05,-0.25 -0.08,-0.02 -0.16,-0.07 -0.2,-0.15l-0.31 -0.53c-0.05,-0.08 -0.05,-0.17 -0.03,-0.25 -0.08,-0.03 -0.15,-0.09 -0.19,-0.17l-0.25 -0.56c-0.04,-0.08 -0.03,-0.18 0,-0.26 -0.08,-0.04 -0.14,-0.1 -0.17,-0.19l-0.19 -0.58c-0.03,-0.09 -0.02,-0.18 0.03,-0.25 -0.07,-0.04 -0.13,-0.12 -0.15,-0.21l-0.13 -0.6c-0.02,-0.09 0,-0.18 0.05,-0.25 -0.07,-0.05 -0.12,-0.13 -0.12,-0.22l-0.06 -0.61c-0.01,-0.09 0.02,-0.18 0.08,-0.24 -0.06,-0.06 -0.1,-0.14 -0.1,-0.23l0 -0.61c0,-0.09 0.04,-0.18 0.11,-0.23 -0.06,-0.06 -0.09,-0.15 -0.08,-0.24l0.07 -0.61c0.01,-0.09 0.06,-0.17 0.13,-0.22 -0.05,-0.07 -0.07,-0.16 -0.05,-0.25l0.13 -0.6c0.02,-0.09 0.08,-0.16 0.15,-0.21 -0.04,-0.07 -0.05,-0.16 -0.02,-0.25l0.19 -0.58c0.03,-0.09 0.09,-0.15 0.17,-0.19 -0.03,-0.08 -0.04,-0.17 0,-0.25l0.25 -0.56c0.04,-0.08 0.11,-0.14 0.19,-0.17 -0.03,-0.08 -0.02,-0.17 0.03,-0.25l0.31 -0.53c0.05,-0.08 0.12,-0.13 0.21,-0.15 -0.02,-0.08 0,-0.17 0.05,-0.25l0.36 -0.5c0.05,-0.07 0.14,-0.12 0.22,-0.13 -0.01,-0.08 0.02,-0.17 0.08,-0.24l0.41 -0.45c0.06,-0.07 0.15,-0.1 0.23,-0.1 0,-0.09 0.04,-0.17 0.11,-0.23l0.46 -0.41c0.1,-0.08 0.23,-0.1 0.34,-0.05l0.27 0.61c-0.02,0.02 -0.03,0.05 -0.06,0.06l-0.46 0.41c-0.06,0.05 -0.13,0.08 -0.2,0.08 -0,0.07 -0.03,0.14 -0.08,0.19l-0.41 0.45c-0.05,0.06 -0.12,0.09 -0.19,0.1 0,0.07 -0.02,0.14 -0.06,0.2l-0.36 0.49c-0.04,0.06 -0.11,0.1 -0.18,0.12 0.01,0.07 -0,0.14 -0.04,0.2l-0.31 0.53c-0.04,0.06 -0.1,0.11 -0.16,0.14 0.02,0.07 0.01,0.14 -0.02,0.21l-0.25 0.56c-0.03,0.07 -0.08,0.12 -0.15,0.15 0.02,0.06 0.03,0.14 0,0.21l-0.19 0.58c-0.02,0.07 -0.07,0.13 -0.13,0.17 0.03,0.06 0.04,0.13 0.03,0.21l-0.13 0.6c-0.02,0.07 -0.06,0.14 -0.11,0.18 0.04,0.06 0.06,0.13 0.05,0.2l-0.07 0.61c-0.01,0.07 -0.04,0.14 -0.09,0.19 0.04,0.05 0.07,0.12 0.07,0.2l-0 0.61c-0,0.08 -0.03,0.14 -0.07,0.2 0.05,0.05 0.08,0.11 0.09,0.19l0.06 0.61c0.01,0.07 -0.01,0.15 -0.05,0.2 0.05,0.04 0.09,0.11 0.11,0.18l0.13 0.6c0.02,0.07 0,0.15 -0.03,0.21 0.06,0.04 0.1,0.09 0.13,0.17l0.19 0.58c0.02,0.07 0.02,0.15 -0.01,0.21 0.06,0.03 0.11,0.08 0.14,0.15l0.25 0.56c0.03,0.07 0.03,0.14 0.02,0.21 0.06,0.02 0.12,0.07 0.16,0.13l0.31 0.53c0.04,0.07 0.05,0.14 0.04,0.21 0.07,0.02 0.13,0.06 0.17,0.12l0.36 0.5c0.04,0.06 0.06,0.13 0.06,0.2 0.07,0.01 0.13,0.04 0.18,0.1l0.41 0.46c0.05,0.06 0.08,0.13 0.08,0.2 0.07,0 0.14,0.03 0.19,0.08l0.46 0.41c0.06,0.05 0.09,0.12 0.1,0.19 0.07,-0 0.14,0.02 0.2,0.06l0.5 0.36c0.06,0.04 0.1,0.11 0.12,0.17 0.07,-0.01 0.14,0 0.2,0.04l0.53 0.31c0.05,0.03 0.08,0.07 0.11,0.11 -0.01,0.1 -0.02,0.21 -0.02,0.37 -0.06,-0.04 -0.12,-0.09 -0.16,-0.13 0.03,-0.07 -0,-0.16 -0.07,-0.2l-0.43 -0.25c-0.08,-0.05 -0.18,-0.02 -0.23,0.06l-0.02 0.04c-0.16,0.01 -0.33,0.07 -0.49,0.19zm6.6 1.12l0.49 -0.05c0.09,-0.01 0.17,0.06 0.18,0.15l0.01 0.11c0.01,0.09 -0.06,0.17 -0.15,0.18l-0.49 0.05c-0.09,0.01 -0.17,-0.06 -0.18,-0.15l-0.01 -0.11c-0.01,-0.09 0.06,-0.17 0.15,-0.18zm1.01 -0.14l0.49 -0.11c0.09,-0.02 0.18,0.04 0.2,0.13l0.02 0.11c0.02,0.09 -0.04,0.18 -0.13,0.2l-0.49 0.11c-0.09,0.02 -0.18,-0.04 -0.2,-0.13l-0.02 -0.11c-0.02,-0.09 0.04,-0.18 0.13,-0.2zm0.99 -0.24l0.47 -0.16c0.09,-0.03 0.18,0.02 0.21,0.11l0.03 0.11c0.03,0.09 -0.02,0.18 -0.11,0.21l-0.47 0.16c-0.09,0.03 -0.18,-0.02 -0.21,-0.11l-0.03 -0.11c-0.03,-0.09 0.02,-0.18 0.11,-0.21zm0.96 -0.34l0.45 -0.2c0.08,-0.04 0.18,-0 0.22,0.08l0.05 0.1c0.04,0.08 0,0.18 -0.08,0.22l-0.45 0.2c-0.08,0.04 -0.18,0 -0.22,-0.08l-0.05 -0.1c-0.04,-0.08 -0,-0.18 0.08,-0.22zm0.92 -0.44l0.43 -0.25c0.08,-0.05 0.18,-0.02 0.23,0.06l0.06 0.1c0.05,0.08 0.02,0.18 -0.06,0.23l-0.43 0.25c-0.08,0.05 -0.18,0.02 -0.23,-0.06l-0.06 -0.1c-0.05,-0.08 -0.02,-0.18 0.06,-0.23zm0.87 -0.54l0.4 -0.29c0.07,-0.05 0.18,-0.04 0.23,0.04l0.07 0.09c0.05,0.07 0.04,0.18 -0.04,0.23l-0.4 0.29c-0.07,0.06 -0.18,0.04 -0.23,-0.03l-0.07 -0.09c-0.05,-0.07 -0.04,-0.18 0.04,-0.23zm0.81 -0.63l0.37 -0.34c0.07,-0.06 0.17,-0.06 0.24,0.01l0.08 0.08c0.06,0.07 0.06,0.17 -0.01,0.24l-0.37 0.34c-0.07,0.06 -0.17,0.06 -0.24,-0.01l-0.08 -0.08c-0.06,-0.07 -0.06,-0.17 0.01,-0.24zm0.74 -0.71l0.33 -0.37c0.06,-0.07 0.17,-0.07 0.24,-0.01l0.08 0.07c0.07,0.06 0.08,0.17 0.01,0.24l-0.33 0.37c-0.06,0.07 -0.17,0.08 -0.23,0.01l-0.08 -0.07c-0.07,-0.06 -0.07,-0.17 -0.01,-0.24zm0.66 -0.78l0.29 -0.4c0.05,-0.07 0.16,-0.09 0.23,-0.04l0.09 0.07c0.08,0.05 0.09,0.16 0.04,0.23l-0.29 0.4c-0.05,0.07 -0.16,0.09 -0.23,0.04l-0.09 -0.07c-0.07,-0.05 -0.09,-0.16 -0.04,-0.23zm0.57 -0.85l0.25 -0.43c0.05,-0.08 0.15,-0.11 0.23,-0.06l0.1 0.06c0.08,0.05 0.11,0.15 0.06,0.23l-0.24 0.43c-0.05,0.08 -0.15,0.11 -0.23,0.06l-0.1 -0.06c-0.08,-0.04 -0.11,-0.15 -0.06,-0.23zm0.48 -0.9l0.2 -0.46c0.04,-0.08 0.14,-0.12 0.22,-0.09l0.1 0.05c0.08,0.04 0.12,0.14 0.09,0.22l-0.2 0.46c-0.04,0.08 -0.13,0.12 -0.22,0.09l-0.1 -0.05c-0.08,-0.04 -0.12,-0.13 -0.09,-0.22zm0.38 -0.95l0.15 -0.47c0.03,-0.09 0.12,-0.14 0.21,-0.11l0.11 0.03c0.09,0.03 0.14,0.12 0.11,0.21l-0.15 0.47c-0.03,0.09 -0.12,0.14 -0.21,0.11l-0.11 -0.03c-0.09,-0.03 -0.14,-0.12 -0.11,-0.21zm0.28 -0.98l0.1 -0.49c0.02,-0.09 0.11,-0.15 0.2,-0.13l0.11 0.02c0.09,0.02 0.15,0.11 0.13,0.2l-0.1 0.49c-0.02,0.09 -0.11,0.15 -0.2,0.13l-0.11 -0.02c-0.09,-0.02 -0.15,-0.11 -0.13,-0.2zm0.18 -1.01l0.05 -0.5c0.01,-0.09 0.09,-0.16 0.18,-0.15l0.11 0.01c0.09,0.01 0.16,0.09 0.15,0.18l-0.05 0.49c-0.01,0.09 -0.09,0.16 -0.18,0.15l-0.11 -0.01c-0.09,-0.01 -0.16,-0.09 -0.15,-0.18zm0.07 -1.02l-0 -0.5c-0,-0.09 0.07,-0.17 0.17,-0.17l0.11 -0c0.09,-0 0.17,0.07 0.17,0.17l0 0.5c0,0.09 -0.07,0.17 -0.16,0.17l-0.11 0c-0.09,0 -0.17,-0.07 -0.17,-0.16zm-0.04 -1.02l-0.06 -0.49c-0.01,-0.09 0.06,-0.17 0.15,-0.18l0.11 -0.01c0.09,-0.01 0.17,0.06 0.18,0.15l0.06 0.49c0.01,0.09 -0.05,0.17 -0.15,0.18l-0.11 0.01c-0.09,0.01 -0.17,-0.06 -0.18,-0.15zm-0.14 -1.01l-0.11 -0.49c-0.02,-0.09 0.04,-0.18 0.13,-0.2l0.11 -0.02c0.09,-0.02 0.18,0.04 0.2,0.13l0.11 0.49c0.02,0.09 -0.04,0.18 -0.13,0.2l-0.11 0.02c-0.09,0.02 -0.18,-0.04 -0.2,-0.13zm-0.25 -0.99l-0.16 -0.47c-0.03,-0.09 0.02,-0.18 0.1,-0.21l0.11 -0.04c0.09,-0.03 0.18,0.02 0.21,0.1l0.16 0.47c0.03,0.09 -0.02,0.18 -0.1,0.21l-0.11 0.04c-0.09,0.03 -0.18,-0.02 -0.21,-0.1zm-0.35 -0.96l-0.21 -0.45c-0.04,-0.08 -0,-0.18 0.08,-0.22l0.1 -0.05c0.08,-0.04 0.18,-0 0.22,0.08l0.21 0.45c0.04,0.08 0,0.18 -0.08,0.22l-0.1 0.05c-0.08,0.04 -0.18,0 -0.22,-0.08zm-0.45 -0.92l-0.25 -0.43c-0.05,-0.08 -0.02,-0.18 0.06,-0.23l0.1 -0.06c0.08,-0.05 0.18,-0.02 0.23,0.06l0.25 0.43c0.05,0.08 0.02,0.18 -0.06,0.23l-0.1 0.06c-0.08,0.05 -0.18,0.02 -0.23,-0.06zm-0.54 -0.87l-0.3 -0.4c-0.05,-0.07 -0.04,-0.18 0.03,-0.23l0.09 -0.07c0.07,-0.06 0.18,-0.04 0.23,0.03l0.3 0.4c0.06,0.07 0.04,0.18 -0.03,0.23l-0.09 0.07c-0.07,0.06 -0.18,0.04 -0.23,-0.03zm-0.63 -0.8l-0.34 -0.36c-0.06,-0.07 -0.06,-0.17 0.01,-0.24l0.08 -0.08c0.07,-0.06 0.17,-0.06 0.24,0.01l0.34 0.37c0.06,0.07 0.06,0.17 -0.01,0.24l-0.08 0.08c-0.07,0.06 -0.17,0.06 -0.24,-0.01zm-0.71 -0.73l-0.37 -0.33c-0.07,-0.06 -0.08,-0.17 -0.02,-0.24l0.07 -0.08c0.06,-0.07 0.17,-0.08 0.24,-0.02l0.37 0.33c0.07,0.06 0.08,0.17 0.02,0.24l-0.07 0.08c-0.06,0.07 -0.17,0.08 -0.24,0.02zm-12.86 -0.32l-0.37 0.33c-0.07,0.06 -0.18,0.06 -0.24,-0.01l-0.07 -0.08c-0.06,-0.07 -0.05,-0.17 0.01,-0.23l0.37 -0.33c0.07,-0.06 0.17,-0.05 0.24,0.01l0.07 0.08c0.06,0.07 0.05,0.17 -0.01,0.23zm-0.75 0.7l-0.33 0.37c-0.06,0.07 -0.17,0.07 -0.24,0.01l-0.08 -0.08c-0.07,-0.06 -0.07,-0.17 -0.01,-0.24l0.34 -0.37c0.06,-0.07 0.17,-0.07 0.24,-0.01l0.08 0.08c0.07,0.06 0.07,0.17 0.01,0.23zm-0.67 0.77l-0.29 0.4c-0.05,0.07 -0.16,0.09 -0.23,0.04l-0.09 -0.07c-0.07,-0.05 -0.09,-0.16 -0.04,-0.23l0.29 -0.4c0.05,-0.07 0.16,-0.09 0.23,-0.04l0.09 0.07c0.07,0.05 0.09,0.16 0.04,0.23zm-0.58 0.84l-0.25 0.43c-0.05,0.08 -0.15,0.11 -0.23,0.06l-0.1 -0.06c-0.08,-0.05 -0.11,-0.15 -0.06,-0.23l0.25 -0.43c0.05,-0.08 0.15,-0.11 0.23,-0.06l0.1 0.06c0.08,0.05 0.11,0.15 0.06,0.23zm-0.49 0.89l-0.2 0.45c-0.04,0.08 -0.14,0.12 -0.22,0.08l-0.1 -0.05c-0.08,-0.04 -0.12,-0.14 -0.08,-0.22l0.2 -0.45c0.04,-0.08 0.14,-0.12 0.22,-0.08l0.1 0.05c0.08,0.04 0.12,0.14 0.08,0.22zm-0.4 0.94l-0.16 0.47c-0.03,0.09 -0.12,0.14 -0.21,0.11l-0.11 -0.04c-0.09,-0.03 -0.13,-0.12 -0.11,-0.21l0.16 -0.47c0.03,-0.09 0.12,-0.13 0.21,-0.11l0.11 0.04c0.09,0.03 0.13,0.12 0.11,0.21zm-0.3 0.98l-0.11 0.49c-0.02,0.09 -0.11,0.15 -0.2,0.13l-0.11 -0.02c-0.09,-0.02 -0.15,-0.11 -0.13,-0.2l0.11 -0.49c0.02,-0.09 0.11,-0.15 0.2,-0.13l0.11 0.02c0.09,0.02 0.15,0.11 0.13,0.2zm-0.19 1l-0.05 0.49c-0.01,0.09 -0.09,0.16 -0.18,0.15l-0.11 -0.01c-0.09,-0.01 -0.16,-0.09 -0.15,-0.18l0.05 -0.49c0.01,-0.09 0.09,-0.16 0.18,-0.15l0.11 0.01c0.09,0.01 0.16,0.09 0.15,0.18zm-0.09 1.02l-0 0.5c-0,0.09 -0.08,0.17 -0.17,0.17l-0.11 -0c-0.09,-0 -0.17,-0.08 -0.17,-0.17l0 -0.5c0,-0.09 0.08,-0.17 0.17,-0.17l0.11 0c0.09,-0 0.17,0.07 0.17,0.17zm0.02 1.02l0.05 0.49c0.01,0.09 -0.06,0.17 -0.15,0.18l-0.11 0.01c-0.09,0.01 -0.17,-0.06 -0.18,-0.15l-0.05 -0.49c-0.01,-0.09 0.06,-0.17 0.15,-0.18l0.11 -0.01c0.09,-0.01 0.17,0.06 0.18,0.15zm0.13 1.01l0.1 0.49c0.02,0.09 -0.04,0.18 -0.13,0.2l-0.11 0.02c-0.09,0.02 -0.18,-0.04 -0.2,-0.13l-0.1 -0.49c-0.02,-0.09 0.04,-0.18 0.13,-0.2l0.11 -0.02c0.09,-0.02 0.18,0.04 0.2,0.13zm0.23 0.99l0.15 0.47c0.03,0.09 -0.02,0.18 -0.11,0.21l-0.11 0.03c-0.09,0.03 -0.18,-0.02 -0.21,-0.11l-0.15 -0.47c-0.03,-0.09 0.02,-0.18 0.11,-0.21l0.11 -0.03c0.09,-0.03 0.18,0.02 0.21,0.11zm0.34 0.96l0.2 0.45c0.04,0.08 -0,0.18 -0.09,0.22l-0.1 0.05c-0.08,0.04 -0.18,-0 -0.22,-0.08l-0.2 -0.45c-0.04,-0.08 0,-0.18 0.08,-0.22l0.1 -0.04c0.08,-0.04 0.18,0 0.22,0.08zm0.44 0.92l0.25 0.43c0.05,0.08 0.02,0.18 -0.06,0.23l-0.1 0.06c-0.08,0.05 -0.18,0.02 -0.23,-0.06l-0.25 -0.43c-0.05,-0.08 -0.02,-0.18 0.06,-0.23l0.1 -0.06c0.08,-0.05 0.18,-0.02 0.23,0.06zm0.53 0.87l0.29 0.4c0.05,0.07 0.04,0.18 -0.04,0.23l-0.09 0.07c-0.07,0.05 -0.18,0.04 -0.23,-0.04l-0.29 -0.4c-0.05,-0.07 -0.04,-0.18 0.04,-0.23l0.09 -0.07c0.07,-0.05 0.18,-0.04 0.23,0.04zm0.62 0.81l0.33 0.37c0.06,0.07 0.06,0.17 -0.01,0.24l-0.08 0.07c-0.07,0.06 -0.17,0.06 -0.23,-0.01l-0.33 -0.37c-0.06,-0.07 -0.06,-0.17 0.01,-0.24l0.08 -0.07c0.07,-0.06 0.17,-0.06 0.23,0.01zm0.7 0.74l0.37 0.33c0.07,0.06 0.07,0.17 0.01,0.24l-0.07 0.08c-0.06,0.07 -0.17,0.07 -0.24,0.01l-0.37 -0.33c-0.07,-0.06 -0.07,-0.17 -0.01,-0.24l0.08 -0.08c0.06,-0.07 0.17,-0.07 0.23,-0.01zm0.78 0.66l0.4 0.29c0.07,0.05 0.09,0.16 0.04,0.23l-0.07 0.09c-0.05,0.07 -0.16,0.09 -0.23,0.04l-0.4 -0.29c-0.07,-0.05 -0.09,-0.16 -0.04,-0.23l0.07 -0.09c0.05,-0.07 0.16,-0.09 0.23,-0.04zm4.67 1.93l0.49 0.05c0.09,0.01 0.16,0.09 0.15,0.18l-0.01 0.11c-0.01,0.09 -0.09,0.16 -0.18,0.15l-0.49 -0.05c-0.09,-0.01 -0.16,-0.09 -0.15,-0.18l0.01 -0.11c0.01,-0.09 0.09,-0.16 0.18,-0.15zm1.02 0.08l0.5 -0c0.09,0 0.17,0.07 0.17,0.17l0 0.11c0,0.09 -0.07,0.17 -0.17,0.17l-0.5 0c-0.09,0 -0.17,-0.07 -0.17,-0.17l0 -0.11c-0,-0.09 0.07,-0.17 0.17,-0.17z"/>
   <path class="fil2" d="M12.18 0l0 0 -0 0.02 -0 -0.02zm0 0.02c0,1.89 0.95,3.56 2.39,4.56 -0.73,0.47 -1.22,1.29 -1.22,2.23 0,1.46 1.18,2.64 2.64,2.64 1.46,0 2.64,-1.18 2.64,-2.64 0,-0.46 -0.12,-0.9 -0.33,-1.28 1.16,-0.12 2.21,-0.6 3.05,-1.33l0 0.1 -3.41 7.64c-1.6,-1.22 -3.6,-1.94 -5.77,-1.94 -2.17,0 -4.17,0.72 -5.77,1.94l-3.41 -7.64 0 -0.1c0.83,0.73 1.89,1.21 3.05,1.33 -0.21,0.38 -0.33,0.81 -0.33,1.28 0,1.46 1.18,2.64 2.64,2.64 1.46,0 2.64,-1.18 2.64,-2.64 0,-0.93 -0.48,-1.76 -1.22,-2.23 1.45,-1 2.39,-2.67 2.39,-4.56z"/>
   <path class="fil3" d="M18.29 17.88c0,1.86 -0.55,3.52 -1.64,4.97 -1.13,1.51 -2.48,2.27 -4.04,2.27 -0.55,0 -1.02,-0.15 -1.4,-0.43 -0.42,-0.32 -0.63,-0.72 -0.63,-1.21 0,-0.31 0.09,-0.59 0.28,-0.83 0.19,-0.24 0.43,-0.36 0.72,-0.36 0.15,0 0.29,0.02 0.42,0.05 0.13,0.04 0.22,0.09 0.27,0.16 0.05,0.07 0.04,0.11 -0.04,0.14 -0.22,0.11 -0.35,0.21 -0.41,0.29 -0.08,0.14 -0.13,0.33 -0.13,0.58 0,0.34 0.15,0.6 0.45,0.79 0.25,0.16 0.56,0.24 0.91,0.24 1.02,0 1.88,-0.62 2.59,-1.85 0.69,-1.2 1.04,-2.62 1.04,-4.25 0,-1.34 -0.3,-2.49 -0.89,-3.46 -0.66,-1.07 -1.52,-1.61 -2.59,-1.61 -0.84,0 -1.57,0.25 -2.19,0.75 -0.66,0.52 -1,1.18 -1,1.96l0 9.96c0,1.22 -0.23,2.22 -0.7,3.01 -0.47,0.79 -1.02,1.18 -1.67,1.18 -0.31,0 -0.57,-0.07 -0.78,-0.2 -0.21,-0.13 -0.31,-0.33 -0.31,-0.58 -0.02,-0.16 -0,-0.29 0.05,-0.41 0.05,-0.12 0.13,-0.21 0.22,-0.28 0.05,-0.03 0.08,-0.05 0.12,-0.05 0.06,0 0.08,0.04 0.06,0.11 -0.03,0.12 -0.03,0.21 -0.02,0.3 0.03,0.14 0.07,0.25 0.15,0.32 0.1,0.1 0.24,0.15 0.42,0.15 0.05,0 0.09,-0 0.13,-0.01 0.34,-0.05 0.59,-0.27 0.74,-0.68 0.15,-0.41 0.22,-0.97 0.22,-1.68l0 -12.24c-0.16,0.05 -0.34,0.08 -0.53,0.11 -0.2,0.02 -0.43,0.03 -0.7,0.03 -0.26,0 -0.5,-0.09 -0.7,-0.26 -0.21,-0.17 -0.31,-0.39 -0.31,-0.65 0,-0.44 0.21,-0.71 0.63,-0.79 0.08,-0.01 0.13,-0.02 0.16,-0.02 0.11,0 0.18,0.02 0.22,0.06 0.06,0.04 0.1,0.08 0.1,0.12 0,0.03 -0.05,0.07 -0.14,0.1 -0.11,0.05 -0.16,0.17 -0.16,0.34 0,0.03 0,0.06 0,0.09 0.01,0.03 0.02,0.04 0.02,0.05 0.05,0.12 0.13,0.2 0.25,0.24 0.13,0.04 0.28,0.06 0.46,0.06 0.08,0 0.14,0 0.18,0 0.22,0 0.63,-0.14 1.25,-0.42 0.81,-0.37 1.43,-0.62 1.86,-0.78 0.84,-0.29 1.62,-0.43 2.34,-0.43 1.33,0 2.45,0.51 3.37,1.52 0.9,0.99 1.35,2.18 1.35,3.55z"/>
  </g>
 </g>
</svg>
