<?xml version="1.0" encoding="UTF-8"?>
<!DOCTYPE svg PUBLIC "-//W3C//DTD SVG 1.1//EN" "http://www.w3.org/Graphics/SVG/1.1/DTD/svg11.dtd">
<!-- Creator: CorelDRAW 2018 (64-Bit) -->
<svg xmlns="http://www.w3.org/2000/svg" xml:space="preserve" width="1.16667in" height="0.931787in" version="1.1" style="shape-rendering:geometricPrecision; text-rendering:geometricPrecision; image-rendering:optimizeQuality; fill-rule:evenodd; clip-rule:evenodd"
viewBox="0 0 188.86 150.83"
 xmlns:xlink="http://www.w3.org/1999/xlink">
 <defs>
  <style type="text/css">
   <![CDATA[
    .fil0 {fill:#FEFEFE}
    .fil1 {fill:#FEFEFE;fill-rule:nonzero}
   ]]>
  </style>
 </defs>
 <g id="Layer_x0020_1">
  <metadata id="CorelCorpID_0Corel-Layer"/>
  <g id="_2477730209904">
   <path class="fil0" d="M94.43 25.49c11.39,0 20.63,9.23 20.63,20.63 0,11.39 -9.23,20.63 -20.63,20.63 -1.3,0 -2.58,-0.12 -3.82,-0.35 0.23,-0.92 0.37,-1.89 0.45,-2.95 1.09,0.21 2.22,0.32 3.37,0.32 9.75,0 17.65,-7.9 17.65,-17.65 0,-2.87 -0.69,-5.58 -1.9,-7.98 -0.69,-2.28 -1.96,-4.39 -3.1,-5.56 -2.07,-2.14 -5.15,-4.14 -8.42,-4.14l-0.15 0c-1.02,0 -1.88,0.02 -2.67,0.09 -0.46,-0.04 -0.93,-0.06 -1.4,-0.06 -3.45,0 -6.66,0.99 -9.38,2.7 -0.5,-1.24 -1.95,-1.63 -3.32,-1.31 3.5,-2.74 7.91,-4.37 12.7,-4.37zm-10.24 38.53c-6.2,-3.56 -10.38,-10.24 -10.38,-17.91 0,-5.27 1.98,-10.09 5.24,-13.73 -0.05,0.24 -0.09,0.49 -0.09,0.76 0,1.39 0.34,2.35 0.91,3.01 -1.95,2.84 -3.09,6.27 -3.09,9.97 0,5.93 2.92,11.17 7.4,14.37l0 3.54z"/>
   <path class="fil0" d="M109.97 25.45c6.26,4.72 10.31,12.22 10.31,20.67 0,14.28 -11.58,25.86 -25.86,25.86 -2.19,0 -4.32,-0.27 -6.35,-0.79 -1.07,1.12 -2.29,1.74 -3.46,1.97 3.06,1.11 6.37,1.72 9.82,1.72 15.88,0 28.76,-12.88 28.76,-28.76 0,-9.63 -4.74,-18.16 -12,-23.38l-1.21 2.71zm-30.17 42c-6.79,-4.66 -11.24,-12.48 -11.24,-21.33 0,-8.45 4.05,-15.95 10.31,-20.67l-1.21 -2.71c-7.27,5.22 -12,13.74 -12,23.38 0,10.39 5.51,19.5 13.78,24.55 -0.09,-0.29 -0.14,-0.6 -0.14,-0.92 0,-0.96 0.2,-1.72 0.51,-2.3z"/>
   <path class="fil0" d="M116.57 74.41c-4.61,-0.4 -8.79,-0.97 -12.11,0.16 -1.31,0.45 -3.63,0.91 -4.96,1.01 -0.01,0.42 0.21,1.15 0.2,1.57 2.74,-0.39 3.5,0.6 2.38,2.9 0.47,0.31 0.94,0.62 1.41,0.93 1.59,-1.25 2.77,-0.56 3.82,0.76 1.06,-0.08 2.12,-0.16 3.18,-0.24 -1.84,-1.68 -3.68,-3.35 -5.51,-5.03 4.04,-0.35 7.73,-0.12 10.91,0.93 0.23,-0.99 0.46,-1.99 0.68,-2.98z"/>
   <path class="fil0" d="M130.66 50.57c-0.31,0.4 -0.62,0.8 -0.93,1.21 -1.25,-2.43 -2.62,-4.86 -3.66,-7.75 -0.76,-2.11 -1.38,-4.34 -2.21,-6.42 2.94,-0.37 4.47,1.69 5.47,4.51 0.84,2.36 1.75,4.61 2.86,6.72 -2.16,-1.99 -2.41,-3.09 -3.6,-6.32 0.85,3.39 0.58,4.79 2.07,8.05z"/>
   <path class="fil0" d="M131.95 31.79c1.32,5.7 2.86,10.27 1.17,16.65 -2.64,-4.88 -4.44,-9.89 -4.59,-15.1 -0.07,-2.47 -0.15,-4.94 -0.52,-7.41 5.72,3.36 8.63,8.15 8.66,14.41 -0.31,0.62 -0.62,1.23 -0.93,1.85 -0.06,-2.04 -0.24,-4.04 -0.72,-5.92 -0.27,1.51 -0.36,3.09 -0.36,4.71 -0.5,-3.86 -1.13,-6.31 -2.7,-9.2z"/>
   <path class="fil0" d="M139.92 45.21c0.83,-0.19 1.66,-0.37 2.5,-0.56 0.4,-3.84 -0.07,-7.57 -2.9,-10.87 -0.1,2.04 -0.58,4.15 -1.57,6.2 -1.19,2.46 -2.14,4.83 -2.94,7.25 2.65,-1.15 4.68,-3.56 5.39,-8.57 0.23,2.06 0.09,4.24 -0.48,6.56z"/>
   <path class="fil0" d="M121.51 83.59c-2.69,1.36 -5.51,1.67 -8.31,1.71 2.83,-0.33 5.53,-0.86 8.15,-2.29 2.83,-1.55 5.7,-2.19 8.31,-2.05 -3.5,0.19 -5.47,1.27 -8.15,2.64z"/>
   <path class="fil0" d="M127.33 84.52c2.62,-2.4 4.69,-3.51 8.17,-3.82 -6.3,-3.55 -12.53,-2.85 -18.72,1.33 5.29,-5.64 10.57,-11.27 15.86,-16.91 0.34,0.15 0.59,0.44 0.6,1.13 1.76,-1.47 3.63,-2.83 5.72,-3.99 -1.39,-0.61 -2.96,-0.51 -4.67,0.16 2.32,-2.21 4.12,-4.54 5.48,-6.96 -1.4,0.43 -2.79,0.86 -4.19,1.29 -0.54,1.66 -1.31,3.33 -2.5,4.99 0.48,-1.49 0.76,-2.91 0.6,-4.19 -0.94,0.03 -1.88,0.05 -2.82,0.08 -0.21,3.19 -0.67,5.84 -2.09,7.73 -1.78,2.36 -3.44,1.01 -3.54,-1.37 -0.23,-5.46 4.53,-7.84 7.49,-8.27 5.22,-0.77 10.11,-1.54 13.77,-4.41 2.05,-1.61 4.23,-3.09 6.92,-3.99 -6.68,-3.31 -16.46,-3.2 -24.52,6.6 4.8,-3.53 10.28,-6.08 17.43,-5.72 -5.78,0.86 -11.21,2.6 -14.77,5.88 1.8,-0.9 3.72,-1.29 5.68,-1.49 -7.58,2.85 -13.47,6 -13.57,10.14 -0.05,2.38 0.77,4.19 2.29,5.39 -1.11,1.36 -2.23,2.71 -3.34,4.07 0.05,-1.91 -0.97,-2.76 -2.54,-3.06 -0.14,5.88 -2.68,11.07 -7.57,13.16 -6.36,2.72 -12.82,-0.42 -14.25,-6.48 -0.89,0.05 -1.77,0.11 -2.66,0.16 2.25,5.1 5.83,9.18 12.68,11.03 6.94,1.88 14.57,1.59 19.04,-2.5z"/>
   <path class="fil0" d="M131.21 76.04c1.72,-1.27 2.43,-2.55 3.84,-2.47 -1.35,-2.06 -9.33,-1.56 -10.77,2.01 0.86,0.3 2.3,0.94 3.58,-0.02 1.17,-0.88 2.08,-1.87 4.92,-1.99 -2.05,0.3 -3.01,0.73 -4.1,1.76 -0.49,0.46 -1.12,0.88 -2.2,1.4 1.32,0.18 3.42,0.55 4.73,-0.69z"/>
   <path class="fil0" d="M135.18 75.8c-0.06,0.9 -0.32,1.8 -0.97,2.7 -0.87,-0.05 -1.48,-0.34 -1.97,-0.76 1.32,-0.4 2.21,-1.11 2.94,-1.93z"/>
   <path class="fil0" d="M140.84 70.6c0.04,3.05 -0.55,6.23 -4.39,8.41 -0.88,0.44 -1.47,0.04 -1.01,-0.8 0.87,-1.45 1.37,-3.3 1.17,-5.07 0.93,0.32 1.5,0.89 1.57,1.85 0.38,-2.03 1.31,-3.44 2.66,-4.39z"/>
   <path class="fil0" d="M145.62 55.7c-0.64,0 -1.17,0.52 -1.17,1.17 0,0.64 0.52,1.17 1.17,1.17 0.64,0 1.17,-0.52 1.17,-1.17 0,-0.64 -0.52,-1.17 -1.17,-1.17z"/>
   <path class="fil0" d="M151.65 62.99c0.27,-4.32 -0.54,-6.89 -2.74,-7.25 -0.06,3.18 -1.23,4.2 -2.9,4.11 -2.77,-0.16 -3.54,-5.7 0.32,-5.8 3.09,-0.07 5.09,1.26 6.04,4.35 1.43,4.67 0.23,16.06 -14.17,22.06 -1.15,0.53 -1.67,-0.42 -0.56,-1.13 3.68,-2.03 5.69,-4.5 5.96,-7.49 0.22,-2.45 1.05,-3.77 1.93,-4.59 0.86,0.8 1.18,2.44 0.64,5.39 2.29,-3.55 3.89,-7.37 3.38,-12 1.11,0.6 1.73,1.41 2.09,2.34z"/>
   <path class="fil0" d="M177.5 63.44c-4.06,2.52 -7.03,2.34 -8.62,-1.37 8.2,1.42 5.12,-8.83 -2.17,-6.92 2.83,2.14 0.55,4.82 -1.05,3.54 0.39,-2.48 -1.03,-2.99 -4.19,-1.61 -3.2,1.84 -4.26,4.42 -4.35,7.33 1.76,-2.79 3.91,-3.75 6.44,-2.42 1.08,0.57 2.24,0.59 3.46,0.4 -1.19,1.53 -3.2,3.53 -6.12,2.42 -1.52,-0.58 -2.95,-0.12 -4.35,1.45 -1.39,1.56 -2.33,3.36 -2.66,5.39 3.21,-0.68 3.58,1 2.82,3.54 -0.8,-1.8 -2.16,-1.94 -2.98,-0.24 -1.18,2.44 -3.38,4.05 -6.04,5.31 5.64,1.64 4.99,10.25 -1.17,9.12 2.14,-0.51 2.3,-2.15 1.97,-3.56 -1.75,1.61 -3.35,1.26 -4.83,-0.4 1.34,-0.66 2.4,-1.72 0.95,-2.42 -1.39,-0.66 -2.97,-0.51 -4.53,0.06 -3.06,1.13 -6.42,1.62 -9.86,1.31 1.14,-1.45 2.85,-2.06 4.9,-2.18 1.87,-0.11 1.82,0.02 3.76,-0.74 0.77,-0.3 1.52,-0.61 1.88,-0.76 13.68,-5.57 16.78,-20.59 9.99,-29.41 1.78,-1.33 3.26,-0.46 4.03,1.37 1.13,-3.78 4.63,-3.43 6.16,-2.29 1.28,0.95 1.16,2.89 0.28,4.15 -0.55,0.79 -2.98,-0.1 -1.53,-2.01 0.29,0.41 0.79,0.63 0.89,0.16 0.41,-2.05 -3.13,-1.98 -3.54,0.56 -0.3,1.87 0.07,3.48 1.21,4.99 6.09,-6.91 15.5,-6.57 21.26,-0.64 1.87,1.93 3.39,4.11 4.03,6.6 0.77,3.05 2.28,4.47 5.31,4.43 -0.83,1.48 -2.87,2.87 -4.11,1.69 -1.19,-1.13 -2.53,-1.41 -2.7,1.05 -0.28,4.18 -4.01,7.71 -6.72,9.9 -1.88,1.51 -0.44,2.84 1.37,3.46 -1.59,2.21 -5.9,0.32 -4.11,-2.98 -6.24,1.43 -10.51,0.18 -11.75,-5.15 9.83,8.08 24.47,-3.58 18.52,-13.93 2.64,5.72 -3.2,14.45 -9.74,14.57 -7.73,0.15 -12.3,-5.91 -7.61,-10.12 2.28,-2.05 5.55,-0.58 5.27,1.83 -1.94,-1.56 -5.15,-0.91 -4.35,2.66 0.62,2.73 4.08,3.24 3.54,-0.72 4.78,5.9 13.64,-0.18 11.03,-7.41z"/>
   <path class="fil0" d="M72.29 74.41c4.6,-0.4 8.79,-0.97 12.11,0.16 1.31,0.45 3.63,0.91 4.96,1.01 0.01,0.42 -0.21,1.15 -0.2,1.57 -2.74,-0.39 -3.5,0.6 -2.38,2.9 -0.47,0.31 -0.94,0.62 -1.41,0.93 -1.59,-1.25 -2.77,-0.56 -3.82,0.76 -1.06,-0.08 -2.12,-0.16 -3.18,-0.24 1.84,-1.68 3.68,-3.35 5.52,-5.03 -4.04,-0.35 -7.73,-0.12 -10.91,0.93 -0.23,-0.99 -0.46,-1.99 -0.68,-2.98z"/>
   <path class="fil0" d="M58.19 50.57c0.31,0.4 0.62,0.8 0.93,1.21 1.25,-2.43 2.62,-4.86 3.66,-7.75 0.76,-2.11 1.38,-4.34 2.21,-6.42 -2.94,-0.37 -4.47,1.69 -5.48,4.51 -0.84,2.36 -1.75,4.61 -2.86,6.72 2.16,-1.99 2.41,-3.09 3.6,-6.32 -0.85,3.39 -0.58,4.79 -2.07,8.05z"/>
   <path class="fil0" d="M56.91 31.79c-1.32,5.7 -2.86,10.27 -1.17,16.65 2.64,-4.88 4.44,-9.89 4.59,-15.1 0.07,-2.47 0.15,-4.94 0.52,-7.41 -5.72,3.36 -8.63,8.15 -8.66,14.41 0.31,0.62 0.62,1.23 0.93,1.85 0.06,-2.04 0.24,-4.04 0.72,-5.92 0.27,1.51 0.36,3.09 0.36,4.71 0.5,-3.86 1.13,-6.31 2.7,-9.2z"/>
   <path class="fil0" d="M48.93 45.21c-0.83,-0.19 -1.66,-0.37 -2.5,-0.56 -0.4,-3.84 0.07,-7.57 2.9,-10.87 0.1,2.04 0.58,4.15 1.57,6.2 1.19,2.46 2.14,4.83 2.94,7.25 -2.65,-1.15 -4.68,-3.56 -5.39,-8.57 -0.23,2.06 -0.09,4.24 0.48,6.56z"/>
   <path class="fil0" d="M67.35 83.59c2.69,1.36 5.5,1.67 8.31,1.71 -2.83,-0.33 -5.54,-0.86 -8.15,-2.29 -2.83,-1.55 -5.7,-2.19 -8.31,-2.05 3.5,0.19 5.47,1.27 8.15,2.64z"/>
   <path class="fil0" d="M61.53 84.52c-2.62,-2.4 -4.69,-3.51 -8.17,-3.82 6.3,-3.55 12.53,-2.85 18.72,1.33 -5.29,-5.64 -10.57,-11.27 -15.86,-16.91 -0.34,0.15 -0.59,0.44 -0.6,1.13 -1.76,-1.47 -3.63,-2.83 -5.72,-3.99 1.39,-0.61 2.96,-0.51 4.67,0.16 -2.32,-2.21 -4.12,-4.54 -5.47,-6.96 1.4,0.43 2.79,0.86 4.19,1.29 0.54,1.66 1.31,3.33 2.5,4.99 -0.48,-1.49 -0.76,-2.91 -0.6,-4.19 0.94,0.03 1.88,0.05 2.82,0.08 0.21,3.19 0.67,5.84 2.09,7.73 1.78,2.36 3.44,1.01 3.54,-1.37 0.23,-5.46 -4.53,-7.84 -7.49,-8.27 -5.21,-0.77 -10.11,-1.54 -13.77,-4.41 -2.05,-1.61 -4.23,-3.09 -6.92,-3.99 6.69,-3.31 16.46,-3.2 24.52,6.6 -4.8,-3.53 -10.28,-6.08 -17.43,-5.72 5.78,0.86 11.21,2.6 14.77,5.88 -1.8,-0.9 -3.72,-1.29 -5.68,-1.49 7.58,2.85 13.47,6 13.57,10.14 0.05,2.38 -0.77,4.19 -2.29,5.39 1.11,1.36 2.23,2.71 3.34,4.07 -0.05,-1.91 0.97,-2.76 2.54,-3.06 0.14,5.88 2.68,11.07 7.57,13.16 6.36,2.72 12.82,-0.42 14.25,-6.48 0.89,0.05 1.77,0.11 2.66,0.16 -2.25,5.1 -5.83,9.18 -12.68,11.03 -6.94,1.88 -14.57,1.59 -19.04,-2.5z"/>
   <path class="fil0" d="M57.64 76.04c-1.72,-1.27 -2.43,-2.55 -3.84,-2.47 1.35,-2.06 9.33,-1.56 10.77,2.01 -0.86,0.3 -2.3,0.94 -3.58,-0.02 -1.17,-0.88 -2.08,-1.87 -4.92,-1.99 2.05,0.3 3.01,0.73 4.1,1.76 0.49,0.46 1.12,0.88 2.2,1.4 -1.32,0.18 -3.42,0.55 -4.73,-0.69z"/>
   <path class="fil0" d="M53.68 75.8c0.06,0.9 0.32,1.8 0.97,2.7 0.87,-0.05 1.48,-0.34 1.97,-0.76 -1.32,-0.4 -2.21,-1.11 -2.94,-1.93z"/>
   <path class="fil0" d="M48.02 70.6c-0.04,3.05 0.55,6.23 4.39,8.41 0.88,0.44 1.47,0.04 1.01,-0.8 -0.87,-1.45 -1.37,-3.3 -1.17,-5.07 -0.93,0.32 -1.5,0.89 -1.57,1.85 -0.38,-2.03 -1.31,-3.44 -2.66,-4.39z"/>
   <path class="fil0" d="M43.24 55.7c0.64,0 1.17,0.52 1.17,1.17 0,0.64 -0.52,1.17 -1.17,1.17 -0.64,0 -1.17,-0.52 -1.17,-1.17 0,-0.64 0.52,-1.17 1.17,-1.17z"/>
   <path class="fil0" d="M37.2 62.99c-0.27,-4.32 0.54,-6.89 2.74,-7.25 0.06,3.18 1.23,4.2 2.9,4.11 2.77,-0.16 3.54,-5.7 -0.32,-5.8 -3.09,-0.07 -5.09,1.26 -6.04,4.35 -1.43,4.67 -0.23,16.06 14.17,22.06 1.15,0.53 1.67,-0.42 0.56,-1.13 -3.68,-2.03 -5.69,-4.5 -5.96,-7.49 -0.22,-2.45 -1.05,-3.77 -1.93,-4.59 -0.86,0.8 -1.18,2.44 -0.64,5.39 -2.29,-3.55 -3.89,-7.37 -3.38,-12 -1.11,0.6 -1.73,1.41 -2.09,2.34z"/>
   <path class="fil0" d="M11.35 63.44c4.06,2.52 7.03,2.34 8.61,-1.37 -8.2,1.42 -5.12,-8.83 2.17,-6.92 -2.83,2.14 -0.55,4.82 1.05,3.54 -0.39,-2.48 1.03,-2.99 4.19,-1.61 3.2,1.84 4.26,4.42 4.35,7.33 -1.76,-2.79 -3.9,-3.75 -6.44,-2.42 -1.08,0.57 -2.24,0.59 -3.46,0.4 1.19,1.53 3.2,3.53 6.12,2.42 1.52,-0.58 2.95,-0.12 4.35,1.45 1.39,1.56 2.33,3.36 2.66,5.39 -3.21,-0.68 -3.58,1 -2.82,3.54 0.8,-1.8 2.16,-1.94 2.98,-0.24 1.18,2.44 3.38,4.05 6.04,5.31 -5.64,1.64 -4.99,10.25 1.17,9.12 -2.14,-0.51 -2.3,-2.15 -1.97,-3.56 1.75,1.61 3.35,1.26 4.83,-0.4 -1.34,-0.66 -2.4,-1.72 -0.95,-2.42 1.39,-0.66 2.97,-0.51 4.53,0.06 3.06,1.13 6.42,1.62 9.86,1.31 -1.14,-1.45 -2.85,-2.06 -4.9,-2.18 -1.87,-0.11 -1.82,0.02 -3.76,-0.74 -0.77,-0.3 -1.52,-0.61 -1.88,-0.76 -13.68,-5.57 -16.78,-20.59 -9.99,-29.41 -1.78,-1.33 -3.26,-0.46 -4.03,1.37 -1.13,-3.78 -4.63,-3.43 -6.16,-2.29 -1.28,0.95 -1.16,2.89 -0.28,4.15 0.55,0.79 2.98,-0.1 1.53,-2.01 -0.29,0.41 -0.79,0.63 -0.89,0.16 -0.41,-2.05 3.13,-1.98 3.54,0.56 0.3,1.87 -0.07,3.48 -1.21,4.99 -6.09,-6.91 -15.5,-6.57 -21.26,-0.64 -1.87,1.93 -3.39,4.11 -4.03,6.6 -0.77,3.05 -2.28,4.47 -5.31,4.43 0.83,1.48 2.87,2.87 4.11,1.69 1.18,-1.13 2.53,-1.41 2.7,1.05 0.28,4.18 4.01,7.71 6.72,9.9 1.88,1.51 0.44,2.84 -1.37,3.46 1.59,2.21 5.9,0.32 4.11,-2.98 6.24,1.43 10.51,0.18 11.75,-5.15 -9.83,8.08 -24.47,-3.58 -18.52,-13.93 -2.64,5.72 3.2,14.45 9.74,14.57 7.72,0.15 12.3,-5.91 7.61,-10.12 -2.28,-2.05 -5.55,-0.58 -5.27,1.83 1.94,-1.56 5.15,-0.91 4.35,2.66 -0.62,2.73 -4.08,3.24 -3.54,-0.72 -4.78,5.9 -13.64,-0.18 -11.03,-7.41z"/>
   <path class="fil0" d="M94.43 100.25c-0.31,-0.92 -0.71,-1.72 -1.57,-2.54 -1.02,-0.97 -1.65,-2.32 -1.81,-4.15 -0.62,0.98 -1.52,1.21 -2.46,1.33 0.44,-0.84 0.26,-1.67 0.16,-2.54 -0.28,-2.46 1.39,-4.21 3.38,-6.32 0.99,-1.04 1.02,-2.55 0.72,-3.82 -0.88,0.66 -1.21,1.58 -1.53,2.54 -1.1,3.25 -3.68,4.58 -6.6,5.58 -0.2,-2.91 2.18,-5.24 4.57,-5.86 -0.46,1.54 -1.75,2.58 -2.96,3.58 1.8,-1.02 3.49,-2.24 4.47,-4.27 0.84,-1.74 1.78,-3.32 3.62,-4.03 1.85,0.7 2.78,2.28 3.62,4.03 0.98,2.02 2.67,3.25 4.47,4.27 -1.21,-1.01 -2.5,-2.04 -2.96,-3.58 2.39,0.62 4.77,2.95 4.57,5.86 -2.92,-0.99 -5.51,-2.32 -6.6,-5.58 -0.32,-0.96 -0.64,-1.88 -1.53,-2.54 -0.3,1.27 -0.26,2.78 0.73,3.82 1.99,2.11 3.66,3.86 3.38,6.32 -0.1,0.86 -0.28,1.69 0.16,2.54 -0.94,-0.12 -1.84,-0.35 -2.46,-1.33 -0.16,1.82 -0.79,3.18 -1.81,4.15 -0.86,0.82 -1.26,1.62 -1.57,2.54zm1.46 -13.45c1.81,1.77 2.7,3.92 3.06,6.28 -0.75,-2.17 -1.72,-4.27 -3.06,-6.28zm-3.08 0c-1.81,1.77 -2.7,3.92 -3.06,6.28 0.75,-2.17 1.72,-4.27 3.06,-6.28zm1.6 10.49c-0.49,-5.09 -0.27,-7.95 0,-10.51 0.22,3.5 0.21,7 0,10.51z"/>
   <path class="fil0" d="M93.73 68.67l1.45 -0c0.18,-0 0.34,0.06 0.47,0.17 0.12,-0.12 0.27,-0.19 0.44,-0.21l1.44 -0.16c0.18,-0.02 0.35,0.03 0.48,0.12 0.1,-0.13 0.25,-0.22 0.42,-0.26l1.42 -0.31c0.17,-0.04 0.35,-0.01 0.49,0.07 0.09,-0.14 0.22,-0.25 0.39,-0.3l1.38 -0.46c0.17,-0.06 0.34,-0.05 0.5,0.01 0.07,-0.15 0.2,-0.27 0.35,-0.34l1.32 -0.6c0.16,-0.07 0.34,-0.08 0.5,-0.04 0.06,-0.15 0.17,-0.29 0.32,-0.38l1.25 -0.73c0.15,-0.09 0.33,-0.12 0.49,-0.09 0.04,-0.16 0.14,-0.3 0.28,-0.41l1.17 -0.86c0.14,-0.11 0.31,-0.15 0.48,-0.14 0.02,-0.16 0.1,-0.32 0.23,-0.43l1.07 -0.98c0.13,-0.12 0.3,-0.18 0.46,-0.19 0.01,-0.16 0.07,-0.32 0.19,-0.45l0.96 -1.08c0.12,-0.13 0.27,-0.21 0.44,-0.24 -0.01,-0.16 0.04,-0.33 0.14,-0.47l0.84 -1.18c0.1,-0.14 0.25,-0.24 0.41,-0.28 -0.03,-0.16 0,-0.33 0.09,-0.48l0.72 -1.26c0.09,-0.15 0.22,-0.27 0.38,-0.33 -0.04,-0.16 -0.04,-0.33 0.03,-0.49l0.58 -1.33c0.07,-0.16 0.19,-0.29 0.34,-0.36 -0.06,-0.15 -0.07,-0.33 -0.02,-0.49l0.44 -1.38c0.05,-0.17 0.16,-0.31 0.3,-0.4 -0.07,-0.14 -0.1,-0.31 -0.07,-0.49l0.29 -1.42c0.04,-0.17 0.13,-0.32 0.26,-0.43 -0.09,-0.14 -0.14,-0.3 -0.12,-0.48l0.14 -1.44c0.02,-0.18 0.1,-0.33 0.21,-0.45 -0.1,-0.13 -0.17,-0.29 -0.17,-0.46l-0.01 -1.45c-0,-0.18 0.06,-0.34 0.16,-0.47 -0.12,-0.11 -0.2,-0.27 -0.22,-0.44l-0.17 -1.44c-0.02,-0.18 0.02,-0.35 0.11,-0.48 -0.13,-0.1 -0.22,-0.25 -0.26,-0.42l-0.32 -1.42c-0.04,-0.17 -0.01,-0.35 0.06,-0.5 -0.14,-0.09 -0.25,-0.22 -0.3,-0.39l-0.46 -1.37c-0.06,-0.17 -0.05,-0.34 0.01,-0.5 -0.15,-0.07 -0.27,-0.19 -0.34,-0.35l-0.61 -1.32c-0.07,-0.16 -0.08,-0.34 -0.04,-0.5 -0.15,-0.06 -0.29,-0.16 -0.38,-0.32l-0.74 -1.25c-0.09,-0.15 -0.12,-0.33 -0.09,-0.49 -0.16,-0.04 -0.3,-0.13 -0.41,-0.27l-0.87 -1.16c-0.11,-0.14 -0.15,-0.31 -0.15,-0.48 -0.16,-0.02 -0.32,-0.1 -0.43,-0.23l-0.98 -1.06c-0.12,-0.13 -0.19,-0.29 -0.2,-0.46 -0.16,-0.01 -0.33,-0.07 -0.46,-0.18l-1.09 -0.96c-0.05,-0.04 -0.09,-0.08 -0.12,-0.13l0.66 -1.49c0.25,-0.1 0.54,-0.05 0.76,0.13l1.09 0.96c0.16,0.14 0.25,0.35 0.25,0.55 0.2,-0 0.4,0.08 0.55,0.24l0.98 1.07c0.15,0.16 0.21,0.37 0.19,0.57 0.2,0.02 0.39,0.12 0.52,0.29l0.87 1.16c0.13,0.17 0.17,0.39 0.13,0.59 0.2,0.04 0.38,0.16 0.49,0.35l0.74 1.25c0.11,0.19 0.13,0.41 0.07,0.6 0.19,0.06 0.36,0.2 0.45,0.4l0.61 1.32c0.09,0.2 0.09,0.42 0.01,0.6 0.18,0.08 0.33,0.24 0.4,0.44l0.46 1.38c0.07,0.21 0.04,0.42 -0.06,0.6 0.17,0.1 0.31,0.27 0.35,0.48l0.32 1.42c0.05,0.21 -0,0.43 -0.12,0.59 0.16,0.12 0.28,0.3 0.3,0.52l0.17 1.44c0.02,0.22 -0.05,0.42 -0.18,0.58 0.15,0.13 0.24,0.33 0.25,0.54l0.01 1.45c0,0.22 -0.09,0.42 -0.24,0.55 0.13,0.15 0.21,0.35 0.19,0.57l-0.14 1.44c-0.02,0.22 -0.13,0.4 -0.3,0.53 0.12,0.16 0.17,0.37 0.13,0.58l-0.29 1.42c-0.04,0.21 -0.18,0.39 -0.35,0.49 0.1,0.17 0.13,0.39 0.07,0.59l-0.44 1.38c-0.07,0.21 -0.22,0.37 -0.4,0.45 0.08,0.18 0.09,0.4 0,0.6l-0.58 1.33c-0.09,0.2 -0.25,0.34 -0.45,0.41 0.06,0.19 0.05,0.41 -0.06,0.59l-0.72 1.26c-0.11,0.19 -0.29,0.31 -0.49,0.36 0.04,0.2 0,0.41 -0.12,0.59l-0.84 1.18c-0.13,0.18 -0.32,0.28 -0.52,0.3 0.02,0.2 -0.04,0.41 -0.18,0.57l-0.96 1.09c-0.14,0.16 -0.35,0.25 -0.55,0.25 -0,0.2 -0.08,0.4 -0.24,0.55l-1.07 0.98c-0.16,0.15 -0.37,0.21 -0.57,0.19 -0.02,0.2 -0.12,0.39 -0.3,0.52l-1.17 0.86c-0.18,0.13 -0.39,0.17 -0.59,0.13 -0.04,0.2 -0.16,0.38 -0.35,0.48l-1.25 0.73c-0.19,0.11 -0.41,0.13 -0.6,0.07 -0.06,0.19 -0.2,0.36 -0.4,0.44l-1.32 0.6c-0.2,0.09 -0.42,0.08 -0.6,0 -0.08,0.18 -0.24,0.33 -0.44,0.4l-1.38 0.46c-0.21,0.07 -0.42,0.04 -0.6,-0.06 -0.1,0.17 -0.27,0.31 -0.48,0.35l-1.42 0.31c-0.21,0.05 -0.43,-0.01 -0.59,-0.12 -0.12,0.16 -0.3,0.27 -0.52,0.3l-1.44 0.16c-0.22,0.02 -0.42,-0.05 -0.57,-0.19 -0.14,0.15 -0.33,0.24 -0.54,0.24l-1.45 0.01c-0.22,0 -0.41,-0.09 -0.55,-0.25 -0.15,0.13 -0.35,0.21 -0.57,0.18l-1.44 -0.15c-0.22,-0.02 -0.4,-0.14 -0.52,-0.3 -0.16,0.12 -0.37,0.17 -0.58,0.12l-1.07 -0.22c0.09,-0.13 0.18,-0.27 0.27,-0.42l0.76 0.16c0.21,0.05 0.42,-0.09 0.47,-0.3l0.05 -0.26c0.05,-0.21 -0.09,-0.42 -0.3,-0.47l-0.46 -0.1c0.07,-0.14 0.14,-0.29 0.2,-0.43l0.49 0.1c0.17,0.04 0.32,0.13 0.42,0.26 0.14,-0.09 0.3,-0.13 0.48,-0.12l1.44 0.15c0.18,0.02 0.33,0.1 0.45,0.22 0.13,-0.1 0.29,-0.17 0.46,-0.17zm-13.05 -2.25c-0.02,-0.01 -0.05,-0.03 -0.07,-0.04l-1.18 -0.85c-0.18,-0.13 -0.28,-0.32 -0.3,-0.52 -0.2,0.02 -0.41,-0.04 -0.57,-0.19l-1.08 -0.97c-0.16,-0.15 -0.24,-0.35 -0.24,-0.55 -0.2,-0 -0.4,-0.08 -0.54,-0.24l-0.97 -1.08c-0.15,-0.16 -0.21,-0.37 -0.19,-0.57 -0.2,-0.02 -0.39,-0.13 -0.51,-0.3l-0.85 -1.17c-0.13,-0.18 -0.17,-0.39 -0.12,-0.59 -0.2,-0.04 -0.37,-0.17 -0.48,-0.35l-0.72 -1.26c-0.11,-0.19 -0.12,-0.41 -0.06,-0.6 -0.19,-0.06 -0.35,-0.2 -0.44,-0.4l-0.59 -1.33c-0.09,-0.2 -0.08,-0.42 0,-0.6 -0.18,-0.08 -0.33,-0.24 -0.4,-0.45l-0.45 -1.38c-0.07,-0.21 -0.04,-0.42 0.07,-0.6 -0.17,-0.1 -0.3,-0.27 -0.35,-0.48l-0.3 -1.42c-0.04,-0.21 0.01,-0.43 0.13,-0.59 -0.16,-0.12 -0.27,-0.3 -0.3,-0.52l-0.15 -1.44c-0.02,-0.22 0.05,-0.42 0.19,-0.57 -0.15,-0.14 -0.24,-0.33 -0.24,-0.55l0.01 -1.45c0,-0.22 0.1,-0.41 0.25,-0.55 -0.13,-0.15 -0.2,-0.35 -0.18,-0.57l0.16 -1.44c0.02,-0.22 0.14,-0.4 0.3,-0.52 -0.12,-0.16 -0.17,-0.37 -0.12,-0.58l0.31 -1.42c0.05,-0.21 0.18,-0.38 0.36,-0.49 -0.1,-0.18 -0.13,-0.39 -0.06,-0.59l0.46 -1.38c0.07,-0.21 0.22,-0.36 0.41,-0.45 -0.08,-0.18 -0.08,-0.4 0.01,-0.6l0.6 -1.32c0.09,-0.2 0.26,-0.34 0.45,-0.4 -0.06,-0.19 -0.04,-0.41 0.07,-0.59l0.73 -1.25c0.11,-0.19 0.29,-0.31 0.49,-0.35 -0.04,-0.2 0,-0.41 0.13,-0.58l0.86 -1.17c0.13,-0.18 0.32,-0.28 0.53,-0.3 -0.02,-0.2 0.04,-0.41 0.19,-0.57l0.98 -1.07c0.15,-0.16 0.35,-0.24 0.55,-0.24 0,-0.2 0.09,-0.4 0.25,-0.54l1.09 -0.96c0.22,-0.2 0.54,-0.24 0.8,-0.12l0.64 1.44c-0.04,0.06 -0.08,0.11 -0.13,0.15l-1.09 0.96c-0.13,0.12 -0.3,0.18 -0.46,0.18 -0.01,0.16 -0.07,0.32 -0.19,0.45l-0.98 1.07c-0.12,0.13 -0.28,0.21 -0.44,0.23 0.01,0.16 -0.04,0.33 -0.14,0.47l-0.86 1.17c-0.11,0.14 -0.25,0.24 -0.41,0.28 0.02,0.16 -0,0.33 -0.09,0.48l-0.73 1.25c-0.09,0.15 -0.23,0.26 -0.38,0.32 0.04,0.16 0.03,0.33 -0.04,0.49l-0.6 1.32c-0.07,0.16 -0.2,0.28 -0.35,0.36 0.06,0.15 0.07,0.33 0.01,0.49l-0.46 1.38c-0.06,0.17 -0.17,0.3 -0.31,0.39 0.07,0.15 0.1,0.32 0.06,0.49l-0.31 1.42c-0.04,0.17 -0.14,0.32 -0.27,0.42 0.09,0.14 0.13,0.3 0.11,0.48l-0.16 1.44c-0.02,0.18 -0.1,0.33 -0.22,0.45 0.1,0.13 0.16,0.29 0.16,0.46l-0.01 1.45c-0,0.18 -0.07,0.34 -0.17,0.47 0.11,0.12 0.19,0.27 0.21,0.44l0.15 1.44c0.02,0.18 -0.03,0.35 -0.12,0.48 0.13,0.1 0.22,0.25 0.26,0.42l0.3 1.42c0.04,0.17 0.01,0.35 -0.07,0.49 0.14,0.09 0.24,0.22 0.3,0.39l0.45 1.38c0.05,0.17 0.04,0.34 -0.02,0.5 0.14,0.07 0.27,0.2 0.34,0.36l0.59 1.33c0.07,0.16 0.08,0.34 0.04,0.5 0.15,0.06 0.28,0.17 0.37,0.32l0.72 1.26c0.09,0.15 0.12,0.33 0.09,0.49 0.16,0.04 0.3,0.14 0.4,0.28l0.85 1.18c0.1,0.14 0.15,0.31 0.14,0.48 0.16,0.03 0.31,0.11 0.43,0.23l0.97 1.08c0.12,0.13 0.18,0.3 0.19,0.46 0.16,0.01 0.32,0.07 0.45,0.19l1.08 0.97c0.13,0.12 0.21,0.28 0.24,0.44 0.16,-0.01 0.33,0.04 0.47,0.14l1.17 0.85c0.14,0.1 0.24,0.25 0.28,0.41 0.16,-0.02 0.33,0 0.48,0.09l1.26 0.72c0.11,0.06 0.2,0.15 0.26,0.26 -0.03,0.24 -0.05,0.5 -0.05,0.87 -0.15,-0.1 -0.28,-0.21 -0.39,-0.32 0.07,-0.18 -0.01,-0.38 -0.17,-0.48l-1.02 -0.59c-0.19,-0.11 -0.43,-0.04 -0.54,0.14l-0.05 0.09c-0.39,0.04 -0.79,0.18 -1.16,0.44zm15.6 2.64l1.17 -0.13c0.22,-0.02 0.41,0.13 0.43,0.35l0.03 0.26c0.02,0.22 -0.13,0.41 -0.35,0.43l-1.17 0.13c-0.22,0.02 -0.41,-0.13 -0.43,-0.35l-0.03 -0.26c-0.02,-0.21 0.13,-0.41 0.35,-0.43zm2.39 -0.32l1.15 -0.25c0.21,-0.04 0.42,0.09 0.47,0.3l0.06 0.26c0.05,0.21 -0.09,0.42 -0.3,0.47l-1.15 0.25c-0.21,0.05 -0.42,-0.09 -0.47,-0.3l-0.06 -0.26c-0.05,-0.21 0.09,-0.42 0.3,-0.47zm2.34 -0.57l1.11 -0.37c0.21,-0.07 0.43,0.04 0.5,0.25l0.08 0.25c0.07,0.21 -0.04,0.43 -0.25,0.5l-1.11 0.37c-0.21,0.07 -0.43,-0.04 -0.5,-0.25l-0.08 -0.25c-0.07,-0.21 0.04,-0.43 0.25,-0.5zm2.27 -0.81l1.07 -0.48c0.2,-0.09 0.43,-0 0.52,0.2l0.11 0.24c0.09,0.2 0,0.43 -0.2,0.52l-1.07 0.48c-0.2,0.09 -0.43,0 -0.52,-0.2l-0.11 -0.24c-0.09,-0.2 -0,-0.43 0.2,-0.52zm2.17 -1.05l1.01 -0.59c0.19,-0.11 0.43,-0.05 0.54,0.14l0.13 0.23c0.11,0.19 0.05,0.43 -0.14,0.54l-1.01 0.59c-0.19,0.11 -0.43,0.05 -0.54,-0.14l-0.13 -0.23c-0.11,-0.19 -0.05,-0.43 0.14,-0.54zm2.05 -1.27l0.95 -0.7c0.18,-0.13 0.42,-0.09 0.55,0.08l0.16 0.21c0.13,0.17 0.09,0.42 -0.08,0.55l-0.95 0.69c-0.17,0.13 -0.42,0.09 -0.55,-0.08l-0.16 -0.21c-0.13,-0.17 -0.09,-0.42 0.08,-0.55zm1.91 -1.48l0.87 -0.79c0.16,-0.15 0.41,-0.14 0.56,0.03l0.18 0.19c0.15,0.16 0.14,0.41 -0.02,0.56l-0.87 0.79c-0.16,0.15 -0.41,0.13 -0.56,-0.02l-0.18 -0.2c-0.15,-0.16 -0.13,-0.41 0.03,-0.56zm1.74 -1.67l0.78 -0.88c0.14,-0.16 0.39,-0.18 0.56,-0.03l0.2 0.18c0.16,0.14 0.18,0.39 0.03,0.55l-0.78 0.88c-0.14,0.16 -0.39,0.18 -0.55,0.03l-0.2 -0.18c-0.16,-0.14 -0.18,-0.39 -0.03,-0.56zm1.56 -1.84l0.68 -0.95c0.13,-0.18 0.37,-0.22 0.55,-0.09l0.21 0.15c0.18,0.13 0.22,0.37 0.09,0.55l-0.68 0.95c-0.13,0.18 -0.37,0.22 -0.55,0.09l-0.21 -0.15c-0.18,-0.12 -0.22,-0.37 -0.09,-0.55zm1.35 -2l0.58 -1.02c0.11,-0.19 0.35,-0.26 0.54,-0.15l0.23 0.13c0.19,0.11 0.26,0.35 0.15,0.54l-0.58 1.02c-0.11,0.19 -0.35,0.26 -0.54,0.15l-0.23 -0.13c-0.19,-0.11 -0.25,-0.35 -0.15,-0.54zm1.14 -2.13l0.47 -1.08c0.09,-0.2 0.32,-0.29 0.52,-0.2l0.24 0.11c0.2,0.09 0.29,0.32 0.2,0.52l-0.47 1.08c-0.09,0.2 -0.32,0.29 -0.52,0.2l-0.24 -0.11c-0.2,-0.09 -0.29,-0.32 -0.2,-0.52zm0.91 -2.24l0.35 -1.12c0.07,-0.21 0.29,-0.32 0.5,-0.26l0.25 0.08c0.21,0.06 0.32,0.29 0.26,0.49l-0.35 1.12c-0.06,0.21 -0.29,0.32 -0.49,0.26l-0.25 -0.08c-0.21,-0.06 -0.32,-0.29 -0.26,-0.49zm0.67 -2.32l0.23 -1.15c0.04,-0.21 0.25,-0.35 0.47,-0.31l0.26 0.05c0.21,0.04 0.35,0.25 0.31,0.46l-0.23 1.15c-0.04,0.21 -0.25,0.35 -0.46,0.31l-0.26 -0.05c-0.21,-0.04 -0.35,-0.25 -0.31,-0.46zm0.42 -2.38l0.11 -1.17c0.02,-0.22 0.21,-0.38 0.43,-0.35l0.26 0.03c0.22,0.02 0.38,0.21 0.35,0.43l-0.11 1.17c-0.02,0.22 -0.21,0.38 -0.43,0.35l-0.26 -0.03c-0.22,-0.02 -0.37,-0.21 -0.35,-0.43zm0.17 -2.41l-0.01 -1.17c-0,-0.22 0.17,-0.4 0.39,-0.4l0.26 -0c0.22,-0 0.4,0.17 0.4,0.39l0.01 1.17c0,0.22 -0.17,0.4 -0.39,0.4l-0.26 0c-0.22,0 -0.4,-0.17 -0.4,-0.39zm-0.08 -2.41l-0.13 -1.17c-0.02,-0.21 0.13,-0.41 0.35,-0.44l0.26 -0.03c0.22,-0.03 0.41,0.13 0.44,0.35l0.13 1.17c0.03,0.22 -0.13,0.41 -0.35,0.44l-0.26 0.03c-0.22,0.03 -0.41,-0.13 -0.44,-0.35zm-0.34 -2.39l-0.26 -1.15c-0.05,-0.21 0.09,-0.42 0.3,-0.47l0.26 -0.06c0.21,-0.05 0.42,0.09 0.47,0.3l0.26 1.15c0.05,0.21 -0.09,0.42 -0.3,0.47l-0.26 0.06c-0.21,0.05 -0.42,-0.09 -0.47,-0.3zm-0.58 -2.34l-0.38 -1.11c-0.07,-0.21 0.04,-0.43 0.25,-0.5l0.25 -0.08c0.21,-0.07 0.43,0.04 0.5,0.25l0.38 1.11c0.07,0.21 -0.04,0.43 -0.25,0.5l-0.25 0.08c-0.21,0.07 -0.43,-0.04 -0.5,-0.25zm-0.83 -2.27l-0.49 -1.07c-0.09,-0.2 -0,-0.43 0.19,-0.52l0.24 -0.11c0.2,-0.09 0.43,-0 0.52,0.19l0.49 1.07c0.09,0.2 0,0.43 -0.19,0.52l-0.24 0.11c-0.2,0.09 -0.43,0 -0.52,-0.19zm-1.06 -2.17l-0.6 -1.01c-0.11,-0.19 -0.05,-0.43 0.14,-0.54l0.23 -0.13c0.19,-0.11 0.43,-0.05 0.54,0.14l0.6 1.01c0.11,0.19 0.05,0.43 -0.14,0.54l-0.23 0.13c-0.19,0.11 -0.43,0.05 -0.54,-0.14zm-1.28 -2.04l-0.7 -0.94c-0.13,-0.18 -0.09,-0.42 0.08,-0.55l0.21 -0.16c0.17,-0.13 0.42,-0.09 0.55,0.08l0.7 0.94c0.13,0.17 0.09,0.42 -0.08,0.55l-0.21 0.16c-0.17,0.13 -0.42,0.09 -0.55,-0.08zm-1.49 -1.9l-0.8 -0.86c-0.15,-0.16 -0.14,-0.41 0.02,-0.56l0.19 -0.18c0.16,-0.15 0.41,-0.14 0.56,0.02l0.8 0.86c0.15,0.16 0.14,0.41 -0.02,0.56l-0.19 0.18c-0.16,0.15 -0.41,0.14 -0.56,-0.02zm-1.68 -1.73l-0.88 -0.77c-0.16,-0.14 -0.18,-0.39 -0.04,-0.56l0.17 -0.2c0.14,-0.16 0.39,-0.18 0.56,-0.04l0.88 0.77c0.16,0.14 0.18,0.39 0.04,0.56l-0.17 0.2c-0.14,0.16 -0.39,0.18 -0.56,0.04zm-30.36 -0.75l-0.88 0.78c-0.16,0.14 -0.41,0.13 -0.56,-0.03l-0.18 -0.2c-0.14,-0.16 -0.13,-0.41 0.03,-0.55l0.88 -0.78c0.16,-0.14 0.41,-0.13 0.56,0.03l0.17 0.2c0.15,0.16 0.13,0.41 -0.03,0.55zm-1.76 1.65l-0.79 0.87c-0.15,0.16 -0.4,0.17 -0.56,0.03l-0.19 -0.18c-0.16,-0.15 -0.17,-0.4 -0.03,-0.56l0.79 -0.87c0.15,-0.16 0.4,-0.17 0.56,-0.03l0.19 0.18c0.16,0.14 0.17,0.39 0.02,0.55zm-1.58 1.82l-0.69 0.95c-0.13,0.17 -0.38,0.21 -0.55,0.08l-0.21 -0.16c-0.18,-0.13 -0.21,-0.38 -0.08,-0.55l0.7 -0.95c0.13,-0.17 0.38,-0.21 0.55,-0.08l0.21 0.16c0.18,0.13 0.21,0.37 0.08,0.55zm-1.38 1.98l-0.59 1.01c-0.11,0.19 -0.35,0.25 -0.54,0.14l-0.23 -0.13c-0.19,-0.11 -0.25,-0.35 -0.14,-0.54l0.59 -1.01c0.11,-0.19 0.35,-0.25 0.54,-0.14l0.23 0.13c0.19,0.11 0.25,0.35 0.14,0.54zm-1.17 2.11l-0.48 1.07c-0.09,0.2 -0.33,0.29 -0.52,0.2l-0.24 -0.11c-0.2,-0.09 -0.29,-0.32 -0.2,-0.52l0.48 -1.07c0.09,-0.2 0.32,-0.29 0.52,-0.2l0.24 0.11c0.2,0.09 0.28,0.32 0.2,0.52zm-0.94 2.22l-0.37 1.11c-0.07,0.21 -0.29,0.32 -0.5,0.25l-0.25 -0.08c-0.21,-0.07 -0.32,-0.29 -0.25,-0.5l0.37 -1.12c0.07,-0.21 0.29,-0.32 0.5,-0.25l0.25 0.08c0.21,0.07 0.32,0.29 0.25,0.5zm-0.7 2.31l-0.25 1.15c-0.05,0.21 -0.26,0.35 -0.47,0.3l-0.26 -0.06c-0.21,-0.05 -0.35,-0.26 -0.3,-0.47l0.25 -1.15c0.05,-0.21 0.26,-0.35 0.47,-0.3l0.26 0.06c0.21,0.04 0.34,0.25 0.3,0.47zm-0.45 2.37l-0.13 1.17c-0.02,0.22 -0.22,0.37 -0.43,0.35l-0.26 -0.03c-0.22,-0.02 -0.37,-0.22 -0.35,-0.43l0.13 -1.17c0.02,-0.22 0.22,-0.37 0.43,-0.35l0.26 0.03c0.21,0.02 0.37,0.22 0.35,0.43zm-0.2 2.4l-0 1.17c-0,0.22 -0.18,0.39 -0.4,0.39l-0.26 -0c-0.22,-0 -0.39,-0.18 -0.39,-0.39l0 -1.18c0,-0.22 0.18,-0.39 0.39,-0.39l0.26 0c0.22,-0 0.39,0.18 0.39,0.39zm0.05 2.41l0.12 1.17c0.02,0.22 -0.14,0.41 -0.35,0.43l-0.26 0.03c-0.22,0.02 -0.41,-0.14 -0.43,-0.35l-0.12 -1.17c-0.02,-0.22 0.14,-0.41 0.35,-0.43l0.26 -0.03c0.21,-0.02 0.41,0.13 0.43,0.35zm0.3 2.39l0.24 1.15c0.04,0.21 -0.09,0.42 -0.31,0.47l-0.26 0.05c-0.21,0.05 -0.42,-0.09 -0.47,-0.3l-0.24 -1.15c-0.05,-0.21 0.09,-0.42 0.3,-0.47l0.26 -0.05c0.21,-0.05 0.42,0.09 0.46,0.3zm0.55 2.35l0.36 1.12c0.07,0.21 -0.05,0.43 -0.25,0.5l-0.25 0.08c-0.21,0.07 -0.43,-0.05 -0.49,-0.25l-0.36 -1.12c-0.07,-0.21 0.05,-0.43 0.25,-0.5l0.25 -0.08c0.21,-0.07 0.43,0.05 0.49,0.25zm0.8 2.28l0.48 1.07c0.09,0.2 -0,0.43 -0.2,0.52l-0.24 0.11c-0.2,0.09 -0.43,-0 -0.52,-0.2l-0.47 -1.07c-0.09,-0.2 0,-0.43 0.2,-0.52l0.24 -0.11c0.2,-0.09 0.43,0 0.52,0.2zm1.03 2.18l0.59 1.02c0.11,0.19 0.04,0.43 -0.15,0.54l-0.23 0.13c-0.19,0.11 -0.43,0.04 -0.54,-0.14l-0.59 -1.02c-0.11,-0.19 -0.04,-0.43 0.14,-0.54l0.23 -0.13c0.19,-0.11 0.43,-0.04 0.54,0.14zm1.26 2.06l0.69 0.95c0.13,0.18 0.09,0.42 -0.09,0.55l-0.21 0.15c-0.18,0.13 -0.42,0.09 -0.55,-0.09l-0.69 -0.95c-0.13,-0.18 -0.09,-0.42 0.09,-0.55l0.21 -0.15c0.17,-0.13 0.42,-0.09 0.55,0.09zm1.46 1.92l0.79 0.87c0.14,0.16 0.13,0.41 -0.03,0.56l-0.2 0.18c-0.16,0.15 -0.41,0.13 -0.56,-0.03l-0.79 -0.87c-0.15,-0.16 -0.13,-0.41 0.03,-0.56l0.2 -0.18c0.16,-0.15 0.41,-0.13 0.55,0.03zm1.66 1.75l0.87 0.79c0.16,0.15 0.17,0.4 0.03,0.56l-0.18 0.2c-0.14,0.16 -0.39,0.17 -0.55,0.03l-0.87 -0.79c-0.16,-0.14 -0.17,-0.39 -0.03,-0.56l0.18 -0.2c0.14,-0.16 0.39,-0.17 0.55,-0.03zm1.83 1.57l0.95 0.69c0.18,0.13 0.22,0.38 0.09,0.55l-0.15 0.21c-0.13,0.18 -0.37,0.22 -0.55,0.09l-0.95 -0.69c-0.18,-0.13 -0.22,-0.37 -0.09,-0.55l0.16 -0.21c0.13,-0.18 0.37,-0.21 0.55,-0.09zm11.02 4.57l1.17 0.12c0.22,0.02 0.37,0.22 0.35,0.43l-0.03 0.26c-0.02,0.22 -0.22,0.37 -0.43,0.35l-1.17 -0.12c-0.22,-0.02 -0.37,-0.21 -0.35,-0.43l0.03 -0.26c0.02,-0.21 0.21,-0.37 0.43,-0.35zm2.41 0.19l1.17 -0c0.22,0 0.4,0.18 0.39,0.39l0 0.26c0,0.22 -0.18,0.39 -0.39,0.39l-1.17 0c-0.22,0 -0.39,-0.17 -0.39,-0.39l0 -0.26c-0,-0.22 0.17,-0.39 0.39,-0.39z"/>
   <path class="fil0" d="M94.43 0l0 0 -0 0.04 -0 -0.04zm0 0.04c0,4.46 2.24,8.41 5.65,10.77 -1.73,1.11 -2.87,3.05 -2.87,5.25 0,3.45 2.79,6.24 6.24,6.24 3.45,0 6.24,-2.79 6.24,-6.24 0,-1.09 -0.28,-2.12 -0.77,-3.01 2.74,-0.29 5.22,-1.43 7.19,-3.14l0 0.23 -8.05 18.04c-3.78,-2.88 -8.5,-4.59 -13.62,-4.59 -5.12,0 -9.84,1.71 -13.62,4.59l-8.05 -18.04 0 -0.23c1.97,1.71 4.45,2.85 7.19,3.14 -0.49,0.89 -0.77,1.92 -0.77,3.01 0,3.45 2.79,6.24 6.24,6.24 3.45,0 6.24,-2.79 6.24,-6.24 0,-2.21 -1.15,-4.15 -2.87,-5.25 3.41,-2.36 5.65,-6.3 5.65,-10.77z"/>
   <path class="fil1" d="M108.87 42.22c0,4.4 -1.29,8.31 -3.87,11.74 -2.67,3.57 -5.85,5.36 -9.54,5.36 -1.3,0 -2.4,-0.34 -3.31,-1.03 -0.99,-0.75 -1.48,-1.7 -1.48,-2.85 0,-0.73 0.22,-1.38 0.67,-1.95 0.45,-0.57 1.01,-0.85 1.69,-0.85 0.36,0 0.69,0.04 0.99,0.13 0.3,0.09 0.52,0.22 0.65,0.38 0.13,0.16 0.1,0.26 -0.1,0.33 -0.51,0.26 -0.83,0.49 -0.96,0.68 -0.2,0.33 -0.3,0.78 -0.3,1.38 0,0.8 0.35,1.42 1.06,1.87 0.6,0.38 1.31,0.56 2.14,0.56 2.4,0 4.44,-1.46 6.12,-4.38 1.63,-2.84 2.45,-6.19 2.45,-10.03 0,-3.15 -0.7,-5.88 -2.11,-8.17 -1.55,-2.53 -3.6,-3.8 -6.12,-3.8 -1.98,0 -3.7,0.59 -5.17,1.76 -1.57,1.23 -2.35,2.78 -2.35,4.63l0 23.52c0,2.88 -0.55,5.25 -1.66,7.12 -1.1,1.87 -2.42,2.79 -3.94,2.79 -0.74,0 -1.35,-0.16 -1.83,-0.47 -0.49,-0.31 -0.74,-0.77 -0.74,-1.37 -0.05,-0.38 -0.01,-0.7 0.11,-0.98 0.13,-0.27 0.3,-0.5 0.53,-0.66 0.11,-0.08 0.2,-0.12 0.28,-0.12 0.14,0 0.18,0.09 0.14,0.26 -0.06,0.27 -0.08,0.5 -0.05,0.7 0.06,0.33 0.18,0.59 0.35,0.75 0.23,0.23 0.56,0.35 0.99,0.35 0.13,0 0.22,-0.01 0.3,-0.02 0.81,-0.11 1.39,-0.65 1.74,-1.61 0.34,-0.96 0.51,-2.29 0.51,-3.98l0 -28.92c-0.38,0.11 -0.79,0.19 -1.25,0.25 -0.46,0.06 -1.01,0.08 -1.65,0.08 -0.63,0 -1.18,-0.21 -1.66,-0.62 -0.49,-0.41 -0.73,-0.92 -0.73,-1.54 0,-1.05 0.5,-1.67 1.5,-1.87 0.19,-0.03 0.31,-0.05 0.38,-0.05 0.25,0 0.42,0.05 0.52,0.14 0.15,0.1 0.23,0.2 0.23,0.28 0,0.08 -0.11,0.16 -0.33,0.23 -0.25,0.13 -0.38,0.39 -0.38,0.81 0,0.07 0,0.14 0,0.21 0.03,0.06 0.05,0.1 0.05,0.12 0.11,0.28 0.3,0.47 0.59,0.56 0.3,0.1 0.66,0.14 1.09,0.14 0.19,0 0.33,0 0.42,0 0.51,0 1.5,-0.33 2.95,-0.99 1.91,-0.86 3.37,-1.47 4.4,-1.83 1.99,-0.68 3.83,-1.02 5.52,-1.02 3.14,0 5.79,1.2 7.96,3.59 2.12,2.35 3.19,5.14 3.19,8.37z"/>
  </g>
  <g id="_2442617858512">
   <path class="fil1" d="M8.54 128.75l0 6.52c0,1.4 0.15,2.27 0.46,2.61 0.42,0.48 1.04,0.72 1.88,0.72l0.85 0 0 0.61 -9.56 0 0 -0.61 0.84 0c0.94,0 1.62,-0.31 2.02,-0.92 0.22,-0.34 0.33,-1.14 0.33,-2.41l0 -14.44c0,-1.4 -0.15,-2.27 -0.44,-2.61 -0.43,-0.48 -1.07,-0.72 -1.91,-0.72l-0.84 0 0 -0.61 8.18 0c2,0 3.57,0.21 4.72,0.62 1.15,0.41 2.12,1.11 2.91,2.08 0.79,0.98 1.18,2.13 1.18,3.47 0,1.82 -0.6,3.3 -1.8,4.44 -1.2,1.14 -2.89,1.71 -5.09,1.71 -0.54,0 -1.12,-0.04 -1.74,-0.12 -0.63,-0.07 -1.3,-0.19 -2.01,-0.35zm0 -0.94c0.58,0.11 1.09,0.2 1.54,0.25 0.44,0.06 0.83,0.08 1.14,0.08 1.14,0 2.11,-0.44 2.94,-1.32 0.82,-0.88 1.24,-2.02 1.24,-3.42 0,-0.96 -0.2,-1.86 -0.59,-2.69 -0.39,-0.82 -0.95,-1.44 -1.67,-1.85 -0.72,-0.41 -1.54,-0.62 -2.46,-0.62 -0.56,0 -1.27,0.11 -2.15,0.31l0 9.25zm38.03 11.4l-5.97 0 -7.58 -10.43c-0.54,0.02 -0.99,0.03 -1.33,0.03 -0.14,0 -0.29,-0.01 -0.45,-0.01 -0.16,-0.01 -0.33,-0.01 -0.5,-0.02l0 6.49c0,1.4 0.15,2.27 0.46,2.61 0.41,0.48 1.04,0.72 1.87,0.72l0.87 0 0 0.61 -9.56 0 0 -0.61 0.84 0c0.94,0 1.61,-0.31 2.02,-0.92 0.23,-0.34 0.34,-1.14 0.34,-2.41l0 -14.44c0,-1.4 -0.15,-2.27 -0.46,-2.61 -0.43,-0.48 -1.06,-0.72 -1.9,-0.72l-0.84 0 0 -0.61 8.12 0c2.37,0 4.12,0.17 5.24,0.52 1.13,0.35 2.08,0.99 2.86,1.91 0.79,0.92 1.18,2.03 1.18,3.31 0,1.37 -0.45,2.56 -1.34,3.57 -0.9,1.01 -2.28,1.72 -4.16,2.14l4.62 6.39c1.05,1.47 1.96,2.45 2.71,2.93 0.75,0.49 1.74,0.79 2.96,0.93l0 0.61zm-15.83 -11.47c0.21,0 0.39,0 0.54,0.01 0.15,0.01 0.27,0.01 0.37,0.01 2.1,0 3.69,-0.46 4.76,-1.38 1.07,-0.93 1.6,-2.1 1.6,-3.52 0,-1.39 -0.43,-2.52 -1.29,-3.4 -0.86,-0.87 -2.01,-1.31 -3.43,-1.31 -0.63,0 -1.48,0.1 -2.55,0.3l0 9.29zm26 -9.62l0 8.82 4.91 0c1.27,0 2.12,-0.19 2.55,-0.57 0.57,-0.5 0.89,-1.39 0.95,-2.66l0.61 0 0 7.77 -0.61 0c-0.15,-1.09 -0.31,-1.79 -0.46,-2.1 -0.2,-0.38 -0.52,-0.68 -0.97,-0.9 -0.45,-0.22 -1.14,-0.33 -2.07,-0.33l-4.91 0 0 7.36c0,0.99 0.04,1.59 0.13,1.8 0.09,0.21 0.24,0.39 0.46,0.51 0.22,0.13 0.64,0.19 1.25,0.19l3.77 0c1.26,0 2.17,-0.09 2.74,-0.26 0.57,-0.17 1.12,-0.52 1.64,-1.04 0.68,-0.68 1.37,-1.7 2.09,-3.07l0.67 0 -1.92 5.59 -17.19 0 0 -0.61 0.79 0c0.53,0 1.03,-0.13 1.5,-0.38 0.35,-0.17 0.59,-0.44 0.72,-0.79 0.13,-0.35 0.19,-1.07 0.19,-2.16l0 -14.5c0,-1.41 -0.14,-2.28 -0.43,-2.61 -0.4,-0.44 -1.05,-0.66 -1.98,-0.66l-0.79 0 0 -0.61 17.19 0 0.24 4.91 -0.64 0c-0.23,-1.18 -0.48,-2 -0.76,-2.44 -0.28,-0.44 -0.7,-0.78 -1.24,-1.02 -0.44,-0.16 -1.21,-0.25 -2.32,-0.25l-6.11 0zm37.23 -1.72l0.5 7.57 -0.5 0c-0.68,-2.27 -1.64,-3.9 -2.9,-4.9 -1.26,-1 -2.76,-1.5 -4.52,-1.5 -1.47,0 -2.8,0.38 -3.99,1.13 -1.19,0.75 -2.13,1.95 -2.81,3.6 -0.68,1.64 -1.02,3.69 -1.02,6.13 0,2.02 0.32,3.77 0.96,5.25 0.64,1.48 1.61,2.61 2.9,3.4 1.3,0.79 2.77,1.18 4.42,1.18 1.44,0 2.71,-0.31 3.81,-0.93 1.11,-0.62 2.32,-1.85 3.63,-3.68l0.51 0.34c-1.12,1.98 -2.42,3.43 -3.9,4.35 -1.49,0.91 -3.25,1.37 -5.29,1.37 -3.68,0 -6.54,-1.37 -8.56,-4.11 -1.51,-2.04 -2.27,-4.44 -2.27,-7.2 0,-2.23 0.5,-4.27 1.49,-6.13 0.99,-1.87 2.36,-3.31 4.1,-4.34 1.74,-1.03 3.65,-1.54 5.71,-1.54 1.6,0 3.19,0.39 4.75,1.18 0.45,0.24 0.78,0.36 0.98,0.36 0.29,0 0.55,-0.11 0.77,-0.31 0.29,-0.3 0.49,-0.71 0.61,-1.23l0.61 0zm16.04 22.21l0 0.61 -9.56 0 0 -0.61 0.79 0c0.93,0 1.59,-0.27 2.01,-0.8 0.26,-0.35 0.39,-1.19 0.39,-2.53l0 -14.44c0,-1.13 -0.07,-1.87 -0.21,-2.23 -0.11,-0.28 -0.34,-0.51 -0.68,-0.71 -0.48,-0.26 -0.99,-0.39 -1.51,-0.39l-0.79 0 0 -0.61 9.56 0 0 0.61 -0.8 0c-0.91,0 -1.57,0.27 -1.99,0.8 -0.28,0.35 -0.41,1.19 -0.41,2.53l0 14.44c0,1.13 0.07,1.87 0.21,2.23 0.11,0.27 0.34,0.51 0.69,0.71 0.47,0.26 0.96,0.39 1.49,0.39l0.8 0zm16.56 -22.21c2.89,0 5.39,1.1 7.51,3.3 2.12,2.2 3.18,4.94 3.18,8.23 0,3.39 -1.07,6.2 -3.2,8.43 -2.13,2.24 -4.72,3.35 -7.75,3.35 -3.06,0 -5.64,-1.09 -7.72,-3.28 -2.09,-2.18 -3.13,-5 -3.13,-8.47 0,-3.54 1.21,-6.43 3.61,-8.66 2.09,-1.94 4.59,-2.91 7.5,-2.91zm-0.31 1.18c-1.99,0 -3.58,0.74 -4.78,2.22 -1.5,1.85 -2.25,4.54 -2.25,8.1 0,3.64 0.77,6.44 2.33,8.41 1.19,1.49 2.77,2.24 4.72,2.24 2.09,0 3.81,-0.82 5.18,-2.45 1.36,-1.64 2.04,-4.21 2.04,-7.73 0,-3.82 -0.75,-6.67 -2.25,-8.54 -1.2,-1.49 -2.86,-2.24 -4.99,-2.24zm31.86 -0.07l0 -0.61 7.84 0 0 0.61 -0.84 0c-0.88,0 -1.55,0.36 -2.02,1.1 -0.23,0.34 -0.34,1.13 -0.34,2.37l0 9.04c0,2.24 -0.22,3.97 -0.66,5.2 -0.44,1.23 -1.32,2.29 -2.61,3.17 -1.3,0.88 -3.06,1.32 -5.29,1.32 -2.43,0 -4.27,-0.42 -5.53,-1.27 -1.26,-0.84 -2.15,-1.98 -2.67,-3.4 -0.35,-0.98 -0.53,-2.8 -0.53,-5.49l0 -8.71c0,-1.37 -0.19,-2.27 -0.57,-2.69 -0.38,-0.43 -0.99,-0.64 -1.83,-0.64l-0.84 0 0 -0.61 9.62 0 0 0.61 -0.85 0c-0.92,0 -1.58,0.29 -1.97,0.87 -0.28,0.39 -0.41,1.22 -0.41,2.46l0 9.72c0,0.86 0.08,1.86 0.24,2.98 0.16,1.12 0.45,1.99 0.86,2.61 0.42,0.62 1.02,1.14 1.8,1.55 0.79,0.4 1.74,0.61 2.88,0.61 1.46,0 2.76,-0.32 3.91,-0.95 1.15,-0.63 1.93,-1.45 2.35,-2.44 0.42,-0.99 0.63,-2.67 0.63,-5.04l0 -9.03c0,-1.39 -0.15,-2.26 -0.46,-2.61 -0.43,-0.48 -1.06,-0.72 -1.9,-0.72l-0.84 0zm27.12 -1.11l0 7.71 -0.61 0c-0.2,-1.48 -0.55,-2.66 -1.06,-3.53 -0.51,-0.88 -1.24,-1.57 -2.19,-2.09 -0.94,-0.52 -1.92,-0.77 -2.93,-0.77 -1.14,0 -2.09,0.35 -2.83,1.04 -0.75,0.7 -1.12,1.49 -1.12,2.38 0,0.68 0.24,1.3 0.71,1.86 0.68,0.82 2.3,1.92 4.86,3.29 2.09,1.12 3.51,1.98 4.27,2.57 0.76,0.6 1.35,1.3 1.76,2.11 0.41,0.81 0.62,1.66 0.62,2.55 0,1.69 -0.66,3.14 -1.96,4.36 -1.31,1.22 -3,1.83 -5.06,1.83 -0.65,0 -1.26,-0.05 -1.83,-0.15 -0.34,-0.06 -1.04,-0.26 -2.11,-0.61 -1.07,-0.35 -1.74,-0.52 -2.03,-0.52 -0.27,0 -0.49,0.08 -0.65,0.25 -0.16,0.17 -0.27,0.51 -0.35,1.03l-0.61 0 0 -7.64 0.61 0c0.29,1.6 0.67,2.8 1.15,3.59 0.48,0.8 1.22,1.46 2.22,1.98 0.99,0.53 2.08,0.79 3.26,0.79 1.37,0 2.46,-0.36 3.25,-1.09 0.8,-0.73 1.19,-1.59 1.19,-2.57 0,-0.55 -0.15,-1.11 -0.45,-1.67 -0.3,-0.56 -0.77,-1.08 -1.4,-1.57 -0.43,-0.33 -1.6,-1.03 -3.51,-2.09 -1.91,-1.06 -3.28,-1.91 -4.08,-2.55 -0.81,-0.63 -1.42,-1.34 -1.84,-2.1 -0.42,-0.77 -0.63,-1.61 -0.63,-2.53 0,-1.6 0.62,-2.98 1.85,-4.13 1.23,-1.16 2.8,-1.73 4.69,-1.73 1.19,0 2.44,0.29 3.77,0.87 0.62,0.27 1.05,0.41 1.3,0.41 0.29,0 0.52,-0.08 0.7,-0.25 0.18,-0.17 0.33,-0.51 0.44,-1.03l0.61 0z"/>
   <path class="fil1" d="M38.58 143.93l0.15 2.24 -0.15 0c-0.2,-0.67 -0.49,-1.16 -0.86,-1.45 -0.37,-0.3 -0.82,-0.44 -1.34,-0.44 -0.44,0 -0.83,0.11 -1.18,0.33 -0.35,0.22 -0.63,0.58 -0.83,1.06 -0.2,0.49 -0.3,1.09 -0.3,1.82 0,0.6 0.09,1.12 0.29,1.55 0.19,0.44 0.48,0.77 0.86,1.01 0.38,0.23 0.82,0.35 1.31,0.35 0.43,0 0.8,-0.09 1.13,-0.27 0.33,-0.18 0.69,-0.55 1.08,-1.09l0.15 0.1c-0.33,0.59 -0.72,1.02 -1.16,1.29 -0.44,0.27 -0.96,0.41 -1.57,0.41 -1.09,0 -1.94,-0.41 -2.53,-1.22 -0.45,-0.6 -0.67,-1.32 -0.67,-2.13 0,-0.66 0.15,-1.27 0.44,-1.82 0.29,-0.55 0.7,-0.98 1.21,-1.28 0.52,-0.3 1.08,-0.46 1.69,-0.46 0.48,0 0.94,0.12 1.41,0.35 0.13,0.07 0.23,0.11 0.29,0.11 0.09,0 0.16,-0.03 0.23,-0.09 0.08,-0.09 0.14,-0.21 0.18,-0.37l0.18 0zm7.82 0.33l0 -0.18 2.32 0 0 0.18 -0.25 0c-0.26,0 -0.46,0.11 -0.6,0.33 -0.07,0.1 -0.1,0.33 -0.1,0.7l0 2.68c0,0.66 -0.07,1.18 -0.2,1.54 -0.13,0.37 -0.39,0.68 -0.77,0.94 -0.38,0.26 -0.9,0.39 -1.57,0.39 -0.72,0 -1.27,-0.12 -1.64,-0.38 -0.37,-0.25 -0.64,-0.59 -0.79,-1.01 -0.1,-0.29 -0.16,-0.83 -0.16,-1.63l0 -2.58c0,-0.41 -0.06,-0.67 -0.17,-0.8 -0.11,-0.13 -0.29,-0.19 -0.54,-0.19l-0.25 0 0 -0.18 2.85 0 0 0.18 -0.25 0c-0.27,0 -0.47,0.09 -0.58,0.26 -0.08,0.12 -0.12,0.36 -0.12,0.73l0 2.88c0,0.26 0.02,0.55 0.07,0.88 0.05,0.33 0.13,0.59 0.26,0.77 0.12,0.18 0.3,0.34 0.53,0.46 0.23,0.12 0.52,0.18 0.85,0.18 0.43,0 0.82,-0.09 1.16,-0.28 0.34,-0.19 0.57,-0.43 0.7,-0.72 0.12,-0.29 0.19,-0.79 0.19,-1.49l0 -2.67c0,-0.41 -0.04,-0.67 -0.14,-0.77 -0.13,-0.14 -0.31,-0.21 -0.56,-0.21l-0.25 0zm9.41 -0.33l0 2.28 -0.18 0c-0.06,-0.44 -0.16,-0.79 -0.31,-1.05 -0.15,-0.26 -0.37,-0.47 -0.65,-0.62 -0.28,-0.15 -0.57,-0.23 -0.87,-0.23 -0.34,0 -0.62,0.1 -0.84,0.31 -0.22,0.21 -0.33,0.44 -0.33,0.7 0,0.2 0.07,0.38 0.21,0.55 0.2,0.24 0.68,0.57 1.44,0.97 0.62,0.33 1.04,0.59 1.27,0.76 0.23,0.18 0.4,0.39 0.52,0.63 0.12,0.24 0.18,0.49 0.18,0.76 0,0.5 -0.19,0.93 -0.58,1.29 -0.39,0.36 -0.89,0.54 -1.5,0.54 -0.19,0 -0.37,-0.01 -0.54,-0.05 -0.1,-0.02 -0.31,-0.08 -0.63,-0.18 -0.32,-0.1 -0.52,-0.15 -0.6,-0.15 -0.08,0 -0.15,0.02 -0.19,0.07 -0.05,0.05 -0.08,0.15 -0.1,0.31l-0.18 0 0 -2.26 0.18 0c0.08,0.47 0.2,0.83 0.34,1.06 0.14,0.24 0.36,0.43 0.66,0.59 0.29,0.16 0.62,0.23 0.97,0.23 0.41,0 0.73,-0.11 0.96,-0.32 0.24,-0.22 0.35,-0.47 0.35,-0.76 0,-0.16 -0.04,-0.33 -0.13,-0.49 -0.09,-0.17 -0.23,-0.32 -0.41,-0.47 -0.13,-0.1 -0.47,-0.3 -1.04,-0.62 -0.57,-0.31 -0.97,-0.57 -1.21,-0.75 -0.24,-0.19 -0.42,-0.4 -0.54,-0.62 -0.12,-0.23 -0.19,-0.48 -0.19,-0.75 0,-0.47 0.18,-0.88 0.55,-1.22 0.36,-0.34 0.83,-0.51 1.39,-0.51 0.35,0 0.72,0.09 1.12,0.26 0.18,0.08 0.31,0.12 0.38,0.12 0.08,0 0.15,-0.02 0.21,-0.07 0.05,-0.05 0.1,-0.15 0.13,-0.3l0.18 0zm9.15 0.15l0.07 1.55 -0.18 0c-0.04,-0.27 -0.09,-0.47 -0.15,-0.59 -0.1,-0.19 -0.23,-0.33 -0.4,-0.41 -0.17,-0.09 -0.39,-0.14 -0.66,-0.14l-0.93 0 0 5.04c0,0.41 0.04,0.66 0.13,0.76 0.12,0.14 0.31,0.2 0.57,0.2l0.23 0 0 0.18 -2.81 0 0 -0.18 0.24 0c0.28,0 0.48,-0.08 0.6,-0.25 0.07,-0.1 0.11,-0.34 0.11,-0.71l0 -5.04 -0.79 0c-0.31,0 -0.53,0.02 -0.66,0.07 -0.17,0.06 -0.31,0.18 -0.43,0.36 -0.12,0.17 -0.19,0.41 -0.21,0.71l-0.18 0 0.07 -1.55 5.4 0zm6.19 -0.15c0.86,0 1.6,0.33 2.22,0.98 0.63,0.65 0.94,1.46 0.94,2.44 0,1 -0.32,1.84 -0.95,2.5 -0.63,0.66 -1.4,0.99 -2.3,0.99 -0.91,0 -1.67,-0.32 -2.29,-0.97 -0.62,-0.65 -0.93,-1.48 -0.93,-2.51 0,-1.05 0.36,-1.9 1.07,-2.57 0.62,-0.57 1.36,-0.86 2.22,-0.86zm-0.09 0.35c-0.59,0 -1.06,0.22 -1.42,0.66 -0.44,0.55 -0.67,1.35 -0.67,2.4 0,1.08 0.23,1.91 0.69,2.49 0.35,0.44 0.82,0.66 1.4,0.66 0.62,0 1.13,-0.24 1.53,-0.73 0.4,-0.48 0.6,-1.25 0.6,-2.29 0,-1.13 -0.22,-1.97 -0.67,-2.53 -0.36,-0.44 -0.85,-0.66 -1.48,-0.66zm10.13 6.41l-2.55 -5.56 0 4.41c0,0.41 0.05,0.66 0.13,0.76 0.12,0.14 0.31,0.2 0.58,0.2l0.24 0 0 0.18 -2.32 0 0 -0.18 0.24 0c0.28,0 0.48,-0.08 0.6,-0.25 0.07,-0.1 0.11,-0.34 0.11,-0.71l0 -4.32c0,-0.29 -0.03,-0.5 -0.1,-0.63 -0.05,-0.09 -0.13,-0.17 -0.25,-0.24 -0.12,-0.06 -0.32,-0.09 -0.59,-0.09l0 -0.18 1.89 0 2.38 5.17 2.36 -5.17 1.88 0 0 0.18 -0.23 0c-0.29,0 -0.49,0.08 -0.61,0.25 -0.07,0.1 -0.11,0.34 -0.11,0.71l0 4.32c0,0.41 0.05,0.66 0.14,0.76 0.12,0.14 0.31,0.2 0.58,0.2l0.23 0 0 0.18 -2.83 0 0 -0.18 0.24 0c0.29,0 0.48,-0.08 0.6,-0.25 0.07,-0.1 0.11,-0.34 0.11,-0.71l0 -4.41 -2.54 5.56 -0.16 0zm15.68 -6.76l0.15 2.24 -0.15 0c-0.2,-0.67 -0.49,-1.16 -0.86,-1.45 -0.37,-0.3 -0.82,-0.44 -1.34,-0.44 -0.43,0 -0.83,0.11 -1.18,0.33 -0.35,0.22 -0.63,0.58 -0.83,1.06 -0.2,0.49 -0.3,1.09 -0.3,1.82 0,0.6 0.09,1.12 0.29,1.55 0.19,0.44 0.48,0.77 0.86,1.01 0.38,0.23 0.82,0.35 1.31,0.35 0.43,0 0.8,-0.09 1.13,-0.27 0.33,-0.18 0.69,-0.55 1.08,-1.09l0.15 0.1c-0.33,0.59 -0.72,1.02 -1.16,1.29 -0.44,0.27 -0.96,0.41 -1.57,0.41 -1.09,0 -1.94,-0.41 -2.53,-1.22 -0.45,-0.6 -0.67,-1.32 -0.67,-2.13 0,-0.66 0.15,-1.27 0.44,-1.82 0.29,-0.55 0.7,-0.98 1.21,-1.28 0.52,-0.3 1.08,-0.46 1.69,-0.46 0.47,0 0.94,0.12 1.41,0.35 0.14,0.07 0.23,0.11 0.29,0.11 0.09,0 0.16,-0.03 0.23,-0.09 0.08,-0.09 0.14,-0.21 0.18,-0.37l0.18 0zm7.62 4.55l-2.56 0 -0.44 1.03c-0.11,0.26 -0.17,0.45 -0.17,0.57 0,0.1 0.05,0.19 0.14,0.27 0.09,0.07 0.3,0.12 0.62,0.15l0 0.18 -2.08 0 0 -0.18c0.28,-0.05 0.45,-0.11 0.54,-0.19 0.17,-0.16 0.35,-0.47 0.55,-0.95l2.32 -5.44 0.16 0 2.3 5.5c0.18,0.44 0.35,0.73 0.5,0.86 0.15,0.13 0.36,0.2 0.63,0.22l0 0.18 -2.6 0 0 -0.18c0.26,-0.01 0.44,-0.06 0.53,-0.13 0.09,-0.07 0.14,-0.17 0.14,-0.27 0,-0.14 -0.06,-0.37 -0.19,-0.68l-0.39 -0.94zm-0.15 -0.36l-1.11 -2.67 -1.14 2.67 2.26 0zm9.79 -0.81c0.46,0.1 0.8,0.25 1.03,0.47 0.31,0.3 0.47,0.66 0.47,1.1 0,0.33 -0.1,0.64 -0.31,0.95 -0.21,0.3 -0.49,0.52 -0.85,0.66 -0.36,0.14 -0.91,0.21 -1.65,0.21l-3.11 0 0 -0.18 0.25 0c0.27,0 0.47,-0.09 0.59,-0.26 0.07,-0.11 0.11,-0.36 0.11,-0.72l0 -4.28c0,-0.41 -0.05,-0.67 -0.14,-0.77 -0.13,-0.14 -0.31,-0.21 -0.56,-0.21l-0.25 0 0 -0.18 2.85 0c0.53,0 0.96,0.04 1.28,0.12 0.49,0.12 0.86,0.32 1.11,0.62 0.26,0.3 0.38,0.64 0.38,1.03 0,0.33 -0.1,0.63 -0.3,0.89 -0.2,0.26 -0.5,0.46 -0.89,0.58zm-2.55 -0.27c0.12,0.02 0.26,0.04 0.41,0.05 0.15,0.01 0.32,0.02 0.51,0.02 0.47,0 0.83,-0.05 1.07,-0.15 0.24,-0.1 0.42,-0.26 0.55,-0.47 0.12,-0.21 0.19,-0.44 0.19,-0.69 0,-0.38 -0.16,-0.71 -0.47,-0.98 -0.31,-0.27 -0.77,-0.41 -1.37,-0.41 -0.32,0 -0.62,0.03 -0.88,0.11l0 2.53zm0 3.17c0.38,0.09 0.75,0.13 1.12,0.13 0.59,0 1.04,-0.13 1.35,-0.4 0.31,-0.26 0.46,-0.59 0.46,-0.98 0,-0.26 -0.07,-0.5 -0.22,-0.74 -0.14,-0.24 -0.37,-0.42 -0.69,-0.56 -0.31,-0.14 -0.7,-0.2 -1.17,-0.2 -0.2,0 -0.37,0 -0.51,0.01 -0.14,0.01 -0.26,0.02 -0.35,0.03l0 2.71zm10.08 0.3l0 0.18 -2.83 0 0 -0.18 0.23 0c0.27,0 0.47,-0.08 0.6,-0.24 0.08,-0.1 0.12,-0.35 0.12,-0.75l0 -4.28c0,-0.33 -0.02,-0.55 -0.06,-0.66 -0.03,-0.08 -0.1,-0.15 -0.2,-0.21 -0.14,-0.08 -0.29,-0.12 -0.45,-0.12l-0.23 0 0 -0.18 2.83 0 0 0.18 -0.24 0c-0.27,0 -0.47,0.08 -0.59,0.24 -0.08,0.1 -0.12,0.35 -0.12,0.75l0 4.28c0,0.33 0.02,0.55 0.06,0.66 0.03,0.08 0.1,0.15 0.2,0.21 0.14,0.08 0.29,0.12 0.44,0.12l0.24 0zm2.51 -6.43l1.78 0 4.05 4.96 0 -3.81c0,-0.41 -0.05,-0.66 -0.14,-0.76 -0.12,-0.14 -0.31,-0.2 -0.58,-0.2l-0.23 0 0 -0.18 2.32 0 0 0.18 -0.24 0c-0.28,0 -0.48,0.08 -0.6,0.25 -0.07,0.1 -0.11,0.34 -0.11,0.71l0 5.57 -0.18 0 -4.35 -5.32 0 4.07c0,0.41 0.05,0.66 0.13,0.76 0.12,0.14 0.32,0.2 0.58,0.2l0.24 0 0 0.18 -2.32 0 0 -0.18 0.23 0c0.29,0 0.49,-0.08 0.61,-0.25 0.07,-0.1 0.11,-0.34 0.11,-0.71l0 -4.59c-0.19,-0.22 -0.34,-0.37 -0.44,-0.44 -0.1,-0.07 -0.24,-0.14 -0.44,-0.2 -0.09,-0.03 -0.24,-0.04 -0.43,-0.04l0 -0.18zm11.82 0.36l0 2.61 1.45 0c0.38,0 0.63,-0.06 0.75,-0.17 0.17,-0.15 0.26,-0.41 0.28,-0.79l0.18 0 0 2.3 -0.18 0c-0.04,-0.32 -0.09,-0.53 -0.14,-0.62 -0.06,-0.11 -0.15,-0.2 -0.29,-0.27 -0.13,-0.06 -0.34,-0.1 -0.61,-0.1l-1.45 0 0 2.18c0,0.29 0.01,0.47 0.04,0.53 0.03,0.06 0.07,0.11 0.14,0.15 0.07,0.04 0.19,0.06 0.37,0.06l1.12 0c0.37,0 0.64,-0.03 0.81,-0.08 0.17,-0.05 0.33,-0.15 0.48,-0.31 0.2,-0.2 0.41,-0.51 0.62,-0.91l0.2 0 -0.57 1.65 -5.09 0 0 -0.18 0.23 0c0.16,0 0.3,-0.04 0.44,-0.11 0.1,-0.05 0.18,-0.13 0.21,-0.23 0.04,-0.1 0.06,-0.32 0.06,-0.64l0 -4.3c0,-0.42 -0.04,-0.68 -0.13,-0.77 -0.12,-0.13 -0.31,-0.19 -0.59,-0.19l-0.23 0 0 -0.18 5.09 0 0.07 1.45 -0.19 0c-0.07,-0.35 -0.14,-0.59 -0.23,-0.72 -0.08,-0.13 -0.21,-0.23 -0.37,-0.3 -0.13,-0.05 -0.36,-0.07 -0.69,-0.07l-1.81 0zm12.18 -0.36l0.07 1.55 -0.18 0c-0.04,-0.27 -0.08,-0.47 -0.15,-0.59 -0.1,-0.19 -0.23,-0.33 -0.4,-0.41 -0.17,-0.09 -0.39,-0.14 -0.66,-0.14l-0.93 0 0 5.04c0,0.41 0.04,0.66 0.13,0.76 0.12,0.14 0.31,0.2 0.57,0.2l0.23 0 0 0.18 -2.81 0 0 -0.18 0.24 0c0.28,0 0.48,-0.08 0.6,-0.25 0.07,-0.1 0.11,-0.34 0.11,-0.71l0 -5.04 -0.79 0c-0.31,0 -0.53,0.02 -0.66,0.07 -0.17,0.06 -0.31,0.18 -0.43,0.36 -0.12,0.17 -0.19,0.41 -0.21,0.71l-0.18 0 0.07 -1.55 5.4 0zm7.3 -0.15l0 2.28 -0.18 0c-0.06,-0.44 -0.16,-0.79 -0.31,-1.05 -0.15,-0.26 -0.37,-0.47 -0.65,-0.62 -0.28,-0.15 -0.57,-0.23 -0.87,-0.23 -0.34,0 -0.62,0.1 -0.84,0.31 -0.22,0.21 -0.33,0.44 -0.33,0.7 0,0.2 0.07,0.38 0.21,0.55 0.2,0.24 0.68,0.57 1.44,0.97 0.62,0.33 1.04,0.59 1.27,0.76 0.23,0.18 0.4,0.39 0.52,0.63 0.12,0.24 0.18,0.49 0.18,0.76 0,0.5 -0.19,0.93 -0.58,1.29 -0.39,0.36 -0.89,0.54 -1.5,0.54 -0.19,0 -0.37,-0.01 -0.54,-0.05 -0.1,-0.02 -0.31,-0.08 -0.63,-0.18 -0.31,-0.1 -0.52,-0.15 -0.6,-0.15 -0.08,0 -0.15,0.02 -0.19,0.07 -0.05,0.05 -0.08,0.15 -0.1,0.31l-0.18 0 0 -2.26 0.18 0c0.08,0.47 0.2,0.83 0.34,1.06 0.14,0.24 0.36,0.43 0.66,0.59 0.29,0.16 0.62,0.23 0.97,0.23 0.41,0 0.73,-0.11 0.96,-0.32 0.24,-0.22 0.35,-0.47 0.35,-0.76 0,-0.16 -0.04,-0.33 -0.13,-0.49 -0.09,-0.17 -0.23,-0.32 -0.42,-0.47 -0.13,-0.1 -0.47,-0.3 -1.04,-0.62 -0.57,-0.31 -0.97,-0.57 -1.21,-0.75 -0.24,-0.19 -0.42,-0.4 -0.54,-0.62 -0.12,-0.23 -0.19,-0.48 -0.19,-0.75 0,-0.47 0.18,-0.88 0.55,-1.22 0.36,-0.34 0.83,-0.51 1.39,-0.51 0.35,0 0.72,0.09 1.12,0.26 0.18,0.08 0.31,0.12 0.38,0.12 0.08,0 0.15,-0.02 0.21,-0.07 0.05,-0.05 0.1,-0.15 0.13,-0.3l0.18 0z"/>
   <g>
    <polygon class="fil0" points="-0,147.38 14.71,146.95 29.42,146.51 29.42,147.38 29.42,148.25 14.71,147.82 "/>
    <polygon class="fil0" points="188.86,147.38 174.14,146.95 159.44,146.51 159.44,147.38 159.44,148.25 174.14,147.82 "/>
   </g>
  </g>
 </g>
</svg>
