<?xml version="1.0" encoding="UTF-8"?>
<!DOCTYPE svg PUBLIC "-//W3C//DTD SVG 1.1//EN" "http://www.w3.org/Graphics/SVG/1.1/DTD/svg11.dtd">
<!-- Creator: CorelDRAW 2018 (64-Bit) -->
<svg xmlns="http://www.w3.org/2000/svg" xml:space="preserve" width="1.1938in" height="0.217724in" version="1.1" style="shape-rendering:geometricPrecision; text-rendering:geometricPrecision; image-rendering:optimizeQuality; fill-rule:evenodd; clip-rule:evenodd"
viewBox="0 0 18000.49 3282.92"
 xmlns:xlink="http://www.w3.org/1999/xlink">
 <defs>
  <style type="text/css">
   <![CDATA[
    .fil1 {fill:#FEFEFE}
    .fil0 {fill:#FEFEFE;fill-rule:nonzero}
   ]]>
  </style>
 </defs>
 <g id="Layer_x0020_1">
  <metadata id="CorelCorpID_0Corel-Layer"/>
  <g id="_2860010333936">
   <path class="fil0" d="M813.52 1177.53l0 621.65c0,133.63 14.48,216.5 43.87,248.55 39.54,45.95 99.43,68.98 179.57,68.98l81.27 0 0 57.7 -910.87 0 0 -57.7 80.2 0c89.82,0 154.52,-29.38 192.99,-87.68 20.84,-32.06 31.52,-109.05 31.52,-229.86l0 -1375.81c0,-133.69 -13.89,-216.56 -42.21,-248.61 -41.2,-45.95 -101.57,-68.92 -182.31,-68.92l-80.2 0 0 -57.76 779.38 0c190.26,0 339.92,19.83 450.03,58.83 109.58,39 202.07,105.25 277.41,198.33 75.39,92.96 112.79,203.08 112.79,330.3 0,173.7 -57.17,314.86 -171.56,423.38 -114.39,108.46 -275.8,163.01 -484.82,163.01 -51.29,0 -106.32,-3.74 -165.68,-11.28 -59.9,-6.89 -123.48,-18.17 -191.39,-33.12zm0 -89.76c55.09,10.69 104.24,18.7 146.98,23.51 42.27,5.34 79.13,8.01 109.11,8.01 108.46,0 201.48,-42.21 280.08,-126.15 78.54,-83.94 118.13,-192.46 118.13,-325.55 0,-91.95 -18.7,-177.44 -56.16,-256.03 -37.4,-78.54 -90.89,-137.37 -159.27,-176.37 -68.98,-39.06 -146.98,-58.77 -234.13,-58.77 -53.43,0 -121.34,10.15 -204.74,29.92l0 881.43zm3624.73 1086.65l-569.3 0 -722.1 -994.22c-51.88,2.2 -94.09,3.21 -126.68,3.21 -13.36,0 -27.84,-0.47 -42.8,-1.01 -15.49,-0.59 -30.99,-1.13 -47.55,-2.2l0 618.98c0,133.63 14.43,216.5 43.81,248.55 39.54,45.95 98.9,68.98 178.03,68.98l82.81 0 0 57.7 -910.81 0 0 -57.7 79.67 0c89.76,0 153.93,-29.38 192.4,-87.68 21.91,-32.06 32.59,-109.05 32.59,-229.86l0 -1375.81c0,-133.69 -14.37,-216.56 -43.81,-248.61 -40.6,-45.95 -101.04,-68.92 -181.18,-68.92l-79.67 0 0 -57.76 773.98 0c226.12,0 392.33,16.56 499.25,49.21 107.45,33.12 198.33,94.03 272.6,182.25 74.86,88.21 112.26,193.52 112.26,315.93 0,130.96 -42.74,244.28 -127.75,340.45 -85.48,96.23 -217.03,164.14 -396.07,204.21l439.94 608.83c100.44,140.04 186.52,233.6 258.71,279.54 71.59,46.48 165.68,75.39 281.68,88.21l0 57.7zm-1508.43 -1093.59c19.77,0 36.86,0 51.29,0.47 14.48,0.53 26.18,1.13 35.32,1.13 200.41,0 351.67,-43.87 453.24,-131.49 102.11,-88.21 152.92,-199.94 152.92,-335.7 0,-132.56 -41.2,-240.54 -123,-323.95 -82.28,-82.81 -191.33,-124.54 -326.56,-124.54 -59.9,0 -141.17,9.68 -243.21,28.85l0 885.23zm2478.13 -917.28l0 840.29 468.26 0c121.34,0 202.07,-18.17 242.68,-54.56 54.56,-48.08 84.47,-132.5 90.89,-253.3l57.7 0 0 740.8 -57.7 0c-14.43,-103.65 -29.44,-170.49 -43.87,-199.88 -18.7,-36.39 -49.69,-65.24 -92.43,-86.08 -42.8,-20.84 -108.52,-31.52 -197.26,-31.52l-468.26 0 0 701.32c0,94.03 4.27,151.26 12.29,171.56 8.55,20.3 23.03,36.86 43.87,48.62 20.84,12.29 60.91,18.17 119.2,18.17l359.68 0c119.8,0 206.88,-8.55 261.44,-25.11 53.96,-16.56 106.38,-49.69 156.07,-98.9 64.65,-64.65 130.96,-162.48 198.81,-292.9l64.17 0 -183.31 532.37 -1638.37 0 0 -57.7 75.39 0c50.28,0 97.83,-12.35 142.71,-36.39 33.72,-16.56 56.69,-41.67 68.45,-75.33 12.29,-33.66 18.17,-102.11 18.17,-205.81l0 -1382.28c0,-134.7 -13.36,-217.51 -40.6,-248.55 -37.99,-41.67 -100.5,-62.51 -188.72,-62.51l-75.39 0 0 -57.76 1638.85 0 22.5 468.26 -60.97 0c-21.91,-112.79 -45.95,-190.26 -72.66,-232.53 -26.71,-42.21 -66.31,-74.32 -118.13,-96.7 -41.73,-15.55 -115.46,-23.57 -220.77,-23.57l-582.65 0zm3548.81 -163.55l48.08 721.62 -48.08 0c-64.71,-215.96 -156.6,-372.03 -276.34,-466.66 -119.74,-95.1 -262.98,-142.71 -430.86,-142.71 -140.04,0 -267.25,35.8 -380.58,107.45 -113.32,71.59 -202.55,185.45 -267.79,342.59 -64.65,156.66 -97.3,351.73 -97.3,584.79 0,192.46 30.51,359.21 91.95,500.32 61.5,141.11 153.99,249.09 276.87,324.48 123.48,75.33 264.05,112.79 421.72,112.79 137.43,0 258.71,-29.44 363.48,-88.21 105.31,-58.83 220.77,-175.83 346.39,-351.19l48.68 32.06c-106.38,188.72 -230.39,326.62 -372.03,414.3 -141.7,87.09 -310.06,130.9 -504.65,130.9 -351.13,0 -623.2,-130.36 -815.65,-391.74 -143.78,-194.59 -215.9,-423.38 -215.9,-686.36 0,-212.17 47.55,-407.29 142.18,-584.79 94.63,-177.97 224.99,-315.34 390.73,-413.17 166.22,-97.83 347.39,-146.45 544.13,-146.45 152.86,0 303.64,37.4 452.77,112.79 43.28,22.97 74.8,34.73 93.5,34.73 27.84,0 52.42,-10.15 73.25,-29.92 27.25,-28.32 46.48,-67.38 57.76,-117.6l57.7 0zm1528.85 2116.72l0 57.7 -910.87 0 0 -57.7 75.39 0c88.21,0 151.85,-25.7 191.92,-76.46 25.11,-33.66 37.4,-113.86 37.4,-241.08l0 -1375.81c0,-107.45 -6.95,-178.57 -20.3,-212.76 -10.69,-26.18 -32.06,-48.68 -64.71,-67.38 -45.95,-25.11 -94.03,-37.4 -144.31,-37.4l-75.39 0 0 -57.76 910.87 0 0 57.76 -76.46 0c-86.61,0 -149.66,25.65 -189.19,76.4 -26.24,33.72 -39.06,113.86 -39.06,241.13l0 1375.81c0,107.45 6.95,178.51 20.36,212.76 10.15,26.18 32.06,48.62 65.72,67.38 44.88,25.05 91.95,37.4 142.18,37.4l76.46 0zm1578 -2116.72c275.27,0 514.21,104.78 715.69,314.27 202.07,209.55 303.11,470.93 303.11,784.73 0,322.82 -101.57,590.61 -305.25,803.9 -203.08,213.29 -449.5,319.61 -738.66,319.61 -291.89,0 -537.24,-104.18 -736.05,-312.13 -198.87,-207.89 -298.24,-476.81 -298.24,-807.11 0,-337.3 114.87,-612.57 344.19,-825.86 199.4,-184.92 437.75,-277.41 715.21,-277.41zm-29.98 112.26c-189.19,0 -341.52,70.52 -455.91,211.69 -142.71,175.83 -214.36,432.94 -214.36,771.84 0,346.86 73.79,614.17 221.84,801.23 113.86,142.18 263.51,213.29 450.09,213.29 199.34,0 363.48,-78.06 493.37,-233.6 129.83,-156.07 194.53,-401.42 194.53,-737.12 0,-364.02 -71.59,-635.55 -214.3,-814.11 -114.45,-142.18 -272.66,-213.23 -475.26,-213.23zm3036.8 -6.41l0 -57.76 747.21 0 0 57.76 -79.61 0c-83.41,0 -147.58,34.73 -192.46,104.78 -21.91,32.59 -32.59,107.45 -32.59,225.52l0 861.66c0,213.29 -20.84,378.44 -63.04,496.04 -42.27,117.6 -125.67,218.64 -249.15,302.52 -123.48,83.94 -291.3,126.15 -504.06,126.15 -231.4,0 -407.29,-40.07 -527.03,-120.8 -120.27,-80.14 -205.22,-188.66 -254.97,-324.42 -33.66,-93.02 -50.22,-267.25 -50.22,-523.29l0 -830.61c0,-130.48 -18.17,-215.96 -53.96,-256.63 -35.86,-40.6 -94.09,-60.91 -174.29,-60.91l-79.67 0 0 -57.76 917.22 0 0 57.76 -81.21 0c-87.68,0 -150.19,27.78 -187.65,82.81 -26.18,37.46 -38.94,116 -38.94,234.72l0 926.31c0,82.28 7.42,176.9 22.38,283.82 15.55,106.38 42.8,189.25 82.34,249.09 40.13,59.3 97.3,108.52 171.56,147.52 74.86,38.47 166.22,57.7 274.79,57.7 138.91,0 263.51,-30.39 373.04,-90.83 109.64,-60.43 184.44,-138.44 224.51,-232.53 40.13,-94.63 60.43,-254.97 60.43,-480.55l0 -860.53c0,-132.62 -14.43,-215.43 -43.81,-248.61 -40.66,-45.95 -101.1,-68.92 -181.24,-68.92l-79.61 0zm2584.51 -105.85l0 734.44 -57.76 0c-18.7,-141.11 -52.36,-253.36 -101.04,-336.77 -48.62,-83.41 -118.07,-149.66 -208.43,-198.87 -89.82,-49.15 -182.84,-73.73 -279.07,-73.73 -108.99,0 -198.81,33.12 -269.93,99.43 -71.06,66.25 -106.91,142.18 -106.91,226.65 0,64.65 22.5,123.95 67.38,177.44 65.24,78.06 219.17,182.84 462.92,313.2 198.81,106.91 334.63,188.72 407.29,245.35 72.72,57.23 128.82,124.01 167.82,201.54 39.06,77.47 58.83,158.2 58.83,243.21 0,160.87 -62.57,299.31 -187.11,415.84 -125.08,116.53 -285.95,174.77 -482.15,174.77 -61.98,0 -119.68,-4.81 -174.23,-14.37 -32.59,-5.34 -99.43,-24.64 -201.48,-57.76 -101.57,-33.12 -166.28,-49.69 -193.52,-49.69 -26.18,0 -47.08,8.01 -61.98,23.51 -15.02,16.03 -26.24,48.62 -33.72,98.31l-57.7 0 0 -727.97 57.7 0c27.25,152.33 63.64,266.72 109.58,342.11 45.95,75.87 116.53,138.97 211.16,188.66 94.57,50.22 198.27,75.39 311.06,75.39 130.42,0 234.13,-34.79 309.52,-103.71 75.87,-69.51 113.8,-151.32 113.8,-245.35 0,-52.36 -14.37,-105.31 -42.74,-158.8 -28.85,-53.43 -73.25,-103.11 -133.63,-149.6 -40.6,-31.58 -152.33,-97.89 -334.63,-199.4 -182.25,-101.04 -312.13,-182.25 -389.07,-242.68 -76.99,-60.37 -135.82,-127.75 -175.36,-200.47 -40.07,-73.2 -59.9,-153.93 -59.9,-241.61 0,-152.33 58.83,-283.82 175.89,-393.88 117.06,-110.12 266.72,-165.21 447.36,-165.21 113.32,0 233.06,27.78 359.74,82.81 58.83,26.24 99.97,39.06 124.07,39.06 27.25,0 49.63,-8.01 66.78,-24.04 17.1,-16.56 30.99,-48.62 41.67,-97.83l57.76 0z"/>
   <path class="fil0" d="M3677.21 2624.64l14.25 213.65 -14.25 0c-19.17,-63.88 -46.36,-110.18 -81.86,-138.14 -35.44,-28.2 -77.88,-42.33 -127.57,-42.33 -41.5,0 -79.19,10.63 -112.73,31.82 -33.54,21.25 -60.02,54.97 -79.31,101.51 -19.17,46.36 -28.85,104.18 -28.85,173.16 0,57.05 9.02,106.44 27.25,148.23 18.22,41.79 45.59,73.79 82.04,96.05 36.51,22.38 78.18,33.42 124.9,33.42 40.66,0 76.64,-8.67 107.63,-26.12 31.23,-17.39 65.36,-52.06 102.58,-104l14.43 9.5c-31.52,55.92 -68.27,96.7 -110.18,122.7 -41.97,25.76 -91.84,38.76 -149.48,38.76 -104,0 -184.56,-38.59 -241.61,-116.06 -42.56,-57.58 -63.93,-125.38 -63.93,-203.26 0,-62.87 14.07,-120.63 42.15,-173.22 27.96,-52.71 66.61,-93.38 115.7,-122.35 49.21,-28.97 102.88,-43.34 161.17,-43.34 45.29,0 89.94,11.04 134.1,33.36 12.82,6.83 22.14,10.27 27.72,10.27 8.19,0 15.49,-2.97 21.67,-8.85 8.07,-8.37 13.77,-19.95 17.1,-34.79l17.1 0zm745.19 31.28l0 -17.04 221.31 0 0 17.04 -23.63 0c-24.64,0 -43.63,10.33 -56.93,31.05 -6.53,9.68 -9.68,31.82 -9.68,66.84l0 255.2c0,63.1 -6.17,112.08 -18.7,146.87 -12.47,34.85 -37.16,64.77 -73.79,89.64 -36.51,24.87 -86.26,37.34 -149.24,37.34 -68.56,0 -120.69,-11.87 -156.13,-35.8 -35.62,-23.75 -60.79,-55.86 -75.51,-96.05 -9.97,-27.54 -14.9,-79.19 -14.9,-155l0 -246.06c0,-38.59 -5.34,-63.93 -15.97,-75.99 -10.63,-11.99 -27.84,-18.05 -51.59,-18.05l-23.63 0 0 -17.04 271.71 0 0 17.04 -24.1 0c-25.94,0 -44.46,8.25 -55.56,24.58 -7.72,11.1 -11.52,34.31 -11.52,69.46l0 274.38c0,24.4 2.2,52.42 6.59,84.06 4.63,31.52 12.7,56.04 24.4,73.79 11.87,17.57 28.85,32.17 50.82,43.69 22.2,11.4 49.21,17.16 81.39,17.16 41.14,0 78.06,-9.08 110.48,-26.95 32.47,-17.93 54.67,-41.02 66.55,-68.86 11.87,-28.02 17.87,-75.51 17.87,-142.35l0 -254.91c0,-39.24 -4.27,-63.76 -13,-73.61 -11.99,-13.59 -29.92,-20.42 -53.66,-20.42l-23.57 0zm897.28 -31.28l0 217.45 -17.1 0c-5.52,-41.73 -15.49,-74.98 -29.92,-99.73 -14.43,-24.7 -34.97,-44.29 -61.74,-58.83 -26.59,-14.6 -54.14,-21.85 -82.63,-21.85 -32.29,0 -58.89,9.79 -79.96,29.38 -21.01,19.65 -31.64,42.15 -31.64,67.14 0,19.17 6.65,36.75 19.95,52.54 19.29,23.15 64.88,54.2 137.13,92.84 58.89,31.64 99.08,55.86 120.63,72.6 21.49,16.98 38.11,36.75 49.69,59.72 11.58,22.91 17.39,46.84 17.39,72.01 0,47.67 -18.52,88.69 -55.39,123.18 -37.04,34.55 -84.71,51.76 -142.83,51.76 -18.34,0 -35.44,-1.42 -51.59,-4.27 -9.68,-1.6 -29.44,-7.24 -59.72,-17.1 -30.04,-9.79 -49.21,-14.72 -57.29,-14.72 -7.72,0 -13.89,2.37 -18.34,7 -4.45,4.75 -7.78,14.43 -9.97,29.09l-17.1 0 0 -215.61 17.1 0c8.07,45.12 18.82,79.01 32.47,101.33 13.59,22.44 34.49,41.14 62.51,55.86 28.02,14.9 58.71,22.32 92.13,22.32 38.65,0 69.34,-10.27 91.66,-30.69 22.5,-20.6 33.72,-44.82 33.72,-72.66 0,-15.49 -4.27,-31.17 -12.64,-47.02 -8.55,-15.85 -21.67,-30.57 -39.6,-44.34 -11.99,-9.32 -45.12,-28.97 -99.14,-59.07 -53.96,-29.92 -92.43,-53.96 -115.22,-71.89 -22.8,-17.87 -40.19,-37.81 -51.88,-59.3 -11.87,-21.73 -17.75,-45.65 -17.75,-71.59 0,-45.12 17.39,-84.06 52.06,-116.65 34.67,-32.65 79.01,-48.92 132.5,-48.92 33.6,0 69.04,8.19 106.56,24.52 17.39,7.78 29.62,11.58 36.75,11.58 8.07,0 14.72,-2.43 19.77,-7.18 5.05,-4.87 9.2,-14.37 12.35,-28.91l17.1 0zm871.69 14.25l6.65 147.99 -17.57 0c-3.5,-25.94 -8.07,-44.64 -13.95,-55.74 -9.62,-17.87 -22.32,-31.17 -38.29,-39.54 -16.03,-8.61 -36.92,-12.88 -62.87,-12.88l-88.69 0 0 480.67c0,38.76 4.16,63.04 12.53,72.66 11.75,13 29.8,19.47 54.14,19.47l21.67 0 0 17.1 -267.85 0 0 -17.1 22.62 0c26.95,0 45.95,-8.07 57.35,-24.22 6.83,-9.97 10.27,-32.59 10.27,-67.91l0 -480.67 -75.51 0c-29.44,0 -50.34,2.26 -62.69,6.53 -16.15,5.82 -29.74,17.1 -41.32,33.9 -11.4,16.62 -18.22,39.24 -20.42,67.73l-17.57 0 6.65 -147.99 514.86 0zm589.54 -14.25c81.51,0 152.27,30.99 211.99,93.02 59.84,62.09 89.76,139.5 89.76,232.41 0,95.63 -30.1,174.94 -90.41,238.11 -60.19,63.22 -133.15,94.68 -218.75,94.68 -86.43,0 -159.15,-30.87 -218.04,-92.43 -58.89,-61.62 -88.33,-141.23 -88.33,-239.06 0,-99.91 34.07,-181.47 101.93,-244.64 59.07,-54.73 129.71,-82.1 211.87,-82.1zm-8.85 33.18c-56.1,0 -101.21,20.9 -135.11,62.75 -42.21,52.06 -63.46,128.23 -63.46,228.61 0,102.7 21.85,181.89 65.72,237.28 33.72,42.15 78.06,63.16 133.27,63.16 59.07,0 107.69,-23.09 146.15,-69.16 38.47,-46.24 57.64,-118.91 57.64,-218.34 0,-107.8 -21.25,-188.24 -63.52,-241.13 -33.84,-42.09 -80.73,-63.16 -140.69,-63.16zm965.67 610.79l-243.21 -529.88 0 420.65c0,38.76 4.33,63.04 12.7,72.66 11.58,13 29.92,19.47 55.09,19.47l22.5 0 0 17.1 -221.31 0 0 -17.1 22.62 0c26.89,0 45.89,-8.07 57.29,-24.22 6.83,-9.97 10.27,-32.59 10.27,-67.91l0 -411.27c0,-27.9 -3.15,-48.14 -9.32,-60.49 -4.39,-9.02 -12.47,-16.44 -24.22,-22.68 -11.87,-6 -30.69,-9.02 -56.63,-9.02l0 -17.04 180.46 0 227.01 492.3 224.99 -492.3 178.74 0 0 17.04 -22.02 0c-27.37,0 -46.54,8.13 -57.94,24.22 -6.83,9.97 -10.27,32.65 -10.27,67.97l0 411.27c0,38.76 4.39,63.04 13.12,72.66 11.52,13 29.92,19.47 55.09,19.47l22.02 0 0 17.1 -269.81 0 0 -17.1 22.68 0c27.19,0 46.18,-8.07 57.29,-24.22 6.83,-9.97 10.27,-32.59 10.27,-67.91l0 -420.65 -242.2 529.88 -15.2 0zm1494.77 -643.97l14.25 213.65 -14.25 0c-19.12,-63.88 -46.36,-110.18 -81.8,-138.14 -35.5,-28.2 -77.88,-42.33 -127.63,-42.33 -41.44,0 -79.19,10.63 -112.73,31.82 -33.54,21.25 -60.02,54.97 -79.31,101.51 -19.17,46.36 -28.79,104.18 -28.79,173.16 0,57.05 9.02,106.44 27.25,148.23 18.17,41.79 45.59,73.79 81.98,96.05 36.57,22.38 78.18,33.42 124.9,33.42 40.66,0 76.64,-8.67 107.63,-26.12 31.23,-17.39 65.42,-52.06 102.64,-104l14.43 9.5c-31.52,55.92 -68.27,96.7 -110.24,122.7 -41.91,25.76 -91.84,38.76 -149.48,38.76 -103.95,0 -184.56,-38.59 -241.55,-116.06 -42.62,-57.58 -63.99,-125.38 -63.99,-203.26 0,-62.87 14.13,-120.63 42.15,-173.22 28.02,-52.71 66.67,-93.38 115.7,-122.35 49.27,-28.97 102.94,-43.34 161.17,-43.34 45.29,0 89.94,11.04 134.1,33.36 12.82,6.83 22.2,10.27 27.72,10.27 8.19,0 15.49,-2.97 21.67,-8.85 8.07,-8.37 13.77,-19.95 17.16,-34.79l17.04 0zm726.37 434.07l-243.98 0 -42.09 98.6c-10.45,24.4 -15.85,42.8 -15.85,54.79 0,9.5 4.63,18.05 13.77,25.35 9.02,7.12 28.85,11.87 59.07,14.07l0 17.1 -198.57 0 0 -17.1c26.3,-4.57 43.22,-10.63 51.05,-18.05 15.79,-14.84 33.18,-45.12 52.36,-90.53l221.49 -518.3 15.67 0 218.93 523.82c17.63,42.09 33.6,69.34 47.97,81.98 14.43,12.59 34.37,19.53 60.19,21.07l0 17.1 -248.26 0 0 -17.1c25.05,-1.25 41.97,-5.34 50.82,-12.47 8.9,-7.12 13.18,-15.85 13.18,-26.12 0,-13.65 -6.17,-35.2 -18.58,-64.59l-37.16 -89.64zm-14.25 -34.19l-106.08 -254.08 -108.93 254.08 215.01 0zm932.9 -77.59c43.57,9.38 76.16,24.1 97.89,44.64 29.92,28.55 44.94,63.34 44.94,104.48 0,31.34 -9.85,61.44 -29.56,90.11 -19.83,28.61 -46.9,49.57 -81.39,62.69 -34.37,13.12 -86.97,19.77 -157.73,19.77l-296.52 0 0 -17.1 23.45 0c26.12,0 44.82,-8.37 56.16,-24.99 7.12,-10.8 10.63,-33.9 10.63,-69.04l0 -407.53c0,-38.88 -4.39,-63.46 -13.3,-73.61 -11.99,-13.59 -29.74,-20.42 -53.49,-20.42l-23.45 0 0 -17.04 271.35 0c50.7,0 91.18,3.62 121.75,11.04 46.42,11.22 81.68,30.87 106.08,59.19 24.4,28.38 36.57,60.79 36.57,97.71 0,31.46 -9.5,59.72 -28.67,84.71 -19.12,24.81 -47.31,43.39 -84.71,55.39zm-242.8 -25.82c11.34,2.26 24.52,3.8 39.06,4.93 14.72,1.13 30.87,1.6 48.44,1.6 45.12,0 79.19,-4.93 101.81,-14.6 22.62,-9.62 40.07,-24.52 52.06,-44.64 11.87,-19.95 17.93,-41.79 17.93,-65.54 0,-36.69 -15.08,-67.91 -45,-93.85 -29.92,-25.82 -73.61,-38.76 -130.9,-38.76 -30.87,0 -58.77,3.32 -83.41,10.09l0 240.78zm0 301.8c35.91,8.37 71.53,12.47 106.5,12.47 56.22,0 99.08,-12.64 128.58,-37.81 29.44,-25.17 44.17,-56.34 44.17,-93.44 0,-24.34 -6.83,-47.97 -20.6,-70.46 -13.59,-22.62 -35.44,-40.31 -65.36,-53.31 -29.92,-13 -67.14,-19.47 -111.31,-19.47 -19.17,0 -35.5,0.3 -49.09,0.95 -13.59,0.65 -24.52,1.72 -32.89,3.15l0 257.93zm960.74 28.61l0 17.1 -269.75 0 0 -17.1 22.38 0c26.06,0 44.88,-7.6 56.75,-22.62 7.48,-9.97 11.1,-33.72 11.1,-71.41l0 -407.53c0,-31.76 -2.02,-52.83 -6,-62.98 -3.15,-7.78 -9.5,-14.37 -19.17,-19.95 -13.59,-7.42 -27.84,-11.1 -42.68,-11.1l-22.38 0 0 -17.04 269.75 0 0 17.04 -22.62 0c-25.65,0 -44.34,7.6 -56.04,22.68 -7.78,9.97 -11.52,33.72 -11.52,71.35l0 407.53c0,31.82 2.02,52.89 6,63.04 2.97,7.72 9.5,14.37 19.47,19.95 13.3,7.42 27.25,11.04 42.09,11.04l22.62 0zm239.53 -612.63l169.25 0 385.8 472.83 0 -363.6c0,-38.82 -4.45,-63.04 -13.12,-72.72 -11.58,-12.94 -29.92,-19.47 -54.97,-19.47l-22.14 0 0 -17.04 221.31 0 0 17.04 -22.5 0c-27.01,0 -46.01,8.13 -57.46,24.22 -6.77,9.97 -10.27,32.65 -10.27,67.97l0 530.65 -16.74 0 -414.48 -507.26 0 387.88c0,38.76 4.27,63.04 12.64,72.66 11.87,13 30.28,19.47 55.09,19.47l22.44 0 0 17.1 -221.31 0 0 -17.1 22.2 0c27.25,0 46.36,-8.07 57.76,-24.22 6.83,-9.97 10.33,-32.59 10.33,-67.91l0 -437.86c-18.22,-21.37 -32.17,-35.5 -41.5,-42.33 -9.5,-6.77 -23.27,-13.12 -41.5,-19.12 -9.02,-2.73 -22.62,-4.16 -40.84,-4.16l0 -17.04zm1126.54 34.13l0 248.91 138.67 0c35.97,0 59.9,-5.4 71.89,-16.15 16.15,-14.25 25.05,-39.24 26.89,-75.04l17.16 0 0 219.41 -17.16 0c-4.21,-30.75 -8.67,-50.52 -12.94,-59.19 -5.52,-10.8 -14.72,-19.35 -27.37,-25.53 -12.7,-6.17 -32.17,-9.32 -58.47,-9.32l-138.67 0 0 207.71c0,27.84 1.25,44.76 3.62,50.82 2.55,6 6.83,10.92 13,14.37 6.17,3.68 18.05,5.4 35.32,5.4l106.56 0c35.44,0 61.26,-2.49 77.41,-7.42 15.97,-4.93 31.46,-14.72 46.24,-29.33 19.12,-19.12 38.76,-48.08 58.89,-86.73l19 0 -54.32 157.67 -485.24 0 0 -17.1 22.32 0c14.9,0 28.97,-3.62 42.27,-10.74 9.97,-4.93 16.8,-12.35 20.24,-22.32 3.68,-9.97 5.4,-30.28 5.4,-60.97l0 -409.37c0,-39.89 -3.98,-64.47 -11.99,-73.67 -11.28,-12.35 -29.8,-18.52 -55.92,-18.52l-22.32 0 0 -17.04 485.42 0 6.65 138.67 -18.05 0c-6.53,-33.42 -13.65,-56.4 -21.55,-68.86 -7.95,-12.53 -19.65,-22.02 -34.97,-28.67 -12.35,-4.63 -34.25,-7 -65.42,-7l-172.57 0zm1161.09 -34.13l6.59 147.99 -17.51 0c-3.5,-25.94 -8.07,-44.64 -13.95,-55.74 -9.68,-17.87 -22.32,-31.17 -38.29,-39.54 -16.03,-8.61 -36.92,-12.88 -62.87,-12.88l-88.69 0 0 480.67c0,38.76 4.16,63.04 12.53,72.66 11.75,13 29.8,19.47 54.14,19.47l21.67 0 0 17.1 -267.85 0 0 -17.1 22.62 0c26.95,0 45.95,-8.07 57.35,-24.22 6.77,-9.97 10.27,-32.59 10.27,-67.91l0 -480.67 -75.51 0c-29.44,0 -50.34,2.26 -62.69,6.53 -16.15,5.82 -29.74,17.1 -41.32,33.9 -11.4,16.62 -18.22,39.24 -20.42,67.73l-17.57 0 6.65 -147.99 514.86 0zm695.56 -14.25l0 217.45 -17.1 0c-5.52,-41.73 -15.49,-74.98 -29.92,-99.73 -14.43,-24.7 -34.97,-44.29 -61.74,-58.83 -26.59,-14.6 -54.14,-21.85 -82.63,-21.85 -32.29,0 -58.89,9.79 -79.96,29.38 -21.01,19.65 -31.64,42.15 -31.64,67.14 0,19.17 6.65,36.75 19.95,52.54 19.29,23.15 64.88,54.2 137.13,92.84 58.89,31.64 99.08,55.86 120.63,72.6 21.49,16.98 38.11,36.75 49.69,59.72 11.58,22.91 17.39,46.84 17.39,72.01 0,47.67 -18.52,88.69 -55.39,123.18 -37.04,34.55 -84.71,51.76 -142.83,51.76 -18.34,0 -35.44,-1.42 -51.59,-4.27 -9.68,-1.6 -29.44,-7.24 -59.72,-17.1 -30.04,-9.79 -49.21,-14.72 -57.29,-14.72 -7.72,0 -13.89,2.37 -18.34,7 -4.45,4.75 -7.78,14.43 -9.97,29.09l-17.1 0 0 -215.61 17.1 0c8.07,45.12 18.82,79.01 32.47,101.33 13.59,22.44 34.49,41.14 62.51,55.86 28.02,14.9 58.71,22.32 92.13,22.32 38.65,0 69.34,-10.27 91.66,-30.69 22.5,-20.6 33.72,-44.82 33.72,-72.66 0,-15.49 -4.27,-31.17 -12.64,-47.02 -8.55,-15.85 -21.67,-30.57 -39.6,-44.34 -11.99,-9.32 -45.12,-28.97 -99.14,-59.07 -53.96,-29.92 -92.43,-53.96 -115.22,-71.89 -22.8,-17.87 -40.19,-37.81 -51.88,-59.3 -11.87,-21.73 -17.75,-45.65 -17.75,-71.59 0,-45.12 17.39,-84.06 52.06,-116.65 34.67,-32.65 79.01,-48.92 132.5,-48.92 33.6,0 69.04,8.19 106.56,24.52 17.39,7.78 29.62,11.58 36.75,11.58 8.07,0 14.72,-2.43 19.77,-7.18 5.05,-4.87 9.2,-14.37 12.35,-28.91l17.1 0z"/>
   <g>
    <polygon class="fil1" points="-0,2953.69 1402.05,2912.19 2804.09,2870.76 2804.09,2953.69 2804.09,3036.56 1402.05,2995.12 "/>
    <polygon class="fil1" points="18000.49,2953.69 16598.38,2912.19 15196.33,2870.76 15196.33,2953.69 15196.33,3036.56 16598.38,2995.12 "/>
   </g>
  </g>
 </g>
</svg>
