<?xml version="1.0" encoding="UTF-8"?>
<!DOCTYPE svg PUBLIC "-//W3C//DTD SVG 1.1//EN" "http://www.w3.org/Graphics/SVG/1.1/DTD/svg11.dtd">
<!-- Creator: CorelDRAW 2018 (64-Bit) -->
<svg xmlns="http://www.w3.org/2000/svg" xml:space="preserve" width="1.17337in" height="0.622862in" version="1.1" style="shape-rendering:geometricPrecision; text-rendering:geometricPrecision; image-rendering:optimizeQuality; fill-rule:evenodd; clip-rule:evenodd"
viewBox="0 0 402.07 213.43"
 xmlns:xlink="http://www.w3.org/1999/xlink">
 <defs>
  <style type="text/css">
   <![CDATA[
    .fil0 {fill:#FEFEFE}
    .fil1 {fill:#FEFEFE;fill-rule:nonzero}
   ]]>
  </style>
 </defs>
 <g id="Layer_x0020_1">
  <metadata id="CorelCorpID_0Corel-Layer"/>
  <g id="_2860010336912">
   <path class="fil0" d="M201.04 54.27c24.25,0 43.91,19.66 43.91,43.91 0,24.25 -19.66,43.91 -43.91,43.91 -2.78,0 -5.49,-0.26 -8.13,-0.75 0.5,-1.96 0.79,-4.01 0.96,-6.27 2.32,0.45 4.72,0.69 7.17,0.69 20.75,0 37.57,-16.82 37.57,-37.57 0,-6.11 -1.46,-11.89 -4.05,-16.99 -1.47,-4.86 -4.18,-9.35 -6.6,-11.85 -4.4,-4.56 -10.96,-8.81 -17.92,-8.81l-0.33 0c-2.17,0 -3.99,0.05 -5.69,0.19 -0.99,-0.08 -1.98,-0.12 -2.99,-0.12 -7.34,0 -14.18,2.1 -19.96,5.74 -1.06,-2.64 -4.16,-3.47 -7.06,-2.78 7.45,-5.83 16.83,-9.3 27.03,-9.3zm-21.81 82.03c-13.21,-7.57 -22.1,-21.81 -22.1,-38.12 0,-11.23 4.22,-21.47 11.15,-29.24 -0.12,0.51 -0.18,1.04 -0.18,1.61 0,2.95 0.72,5 1.94,6.4 -4.14,6.04 -6.57,13.35 -6.57,21.22 0,12.62 6.22,23.78 15.76,30.6l0 7.53z"/>
   <path class="fil0" d="M234.13 54.18c13.34,10.05 21.96,26.02 21.96,44 0,30.41 -24.65,55.06 -55.05,55.06 -4.67,0 -9.2,-0.58 -13.53,-1.68 -2.29,2.39 -4.87,3.71 -7.37,4.19 6.52,2.37 13.56,3.66 20.9,3.66 33.82,0 61.23,-27.41 61.23,-61.23 0,-20.51 -10.08,-38.66 -25.56,-49.77l-2.58 5.77zm-64.22 89.41c-14.45,-9.92 -23.93,-26.56 -23.93,-45.41 0,-17.98 8.62,-33.95 21.96,-44l-2.58 -5.77c-15.48,11.11 -25.56,29.26 -25.56,49.77 0,22.13 11.74,41.51 29.33,52.27 -0.2,-0.62 -0.3,-1.28 -0.3,-1.96 0,-2.05 0.42,-3.67 1.08,-4.9z"/>
   <path class="fil0" d="M248.18 158.41c-9.81,-0.86 -18.72,-2.07 -25.78,0.34 -2.78,0.95 -7.72,1.94 -10.56,2.14 -0.03,0.89 0.46,2.46 0.43,3.34 5.84,-0.83 7.45,1.28 5.06,6.17 1,0.66 2,1.31 3,1.97 3.38,-2.66 5.9,-1.2 8.14,1.63 2.26,-0.17 4.51,-0.34 6.77,-0.51 -3.91,-3.57 -7.83,-7.14 -11.74,-10.71 8.6,-0.74 16.45,-0.26 23.23,1.97 0.49,-2.11 0.97,-4.23 1.46,-6.34z"/>
   <path class="fil0" d="M278.18 107.66c-0.66,0.86 -1.31,1.71 -1.97,2.57 -2.65,-5.17 -5.57,-10.35 -7.8,-16.5 -1.62,-4.48 -2.94,-9.24 -4.72,-13.67 6.26,-0.8 9.53,3.61 11.66,9.6 1.79,5.03 3.73,9.81 6.09,14.31 -4.61,-4.23 -5.13,-6.58 -7.67,-13.46 1.8,7.21 1.23,10.2 4.41,17.14z"/>
   <path class="fil0" d="M280.92 67.68c2.81,12.15 6.09,21.87 2.49,35.44 -5.62,-10.39 -9.46,-21.05 -9.77,-32.14 -0.15,-5.26 -0.33,-10.51 -1.11,-15.77 12.17,7.16 18.37,17.35 18.43,30.68 -0.66,1.31 -1.31,2.63 -1.97,3.94 -0.12,-4.35 -0.51,-8.59 -1.54,-12.6 -0.57,3.21 -0.78,6.58 -0.77,10.03 -1.06,-8.21 -2.4,-13.43 -5.74,-19.58z"/>
   <path class="fil0" d="M297.89 96.26c1.77,-0.4 3.54,-0.8 5.31,-1.2 0.84,-8.16 -0.15,-16.12 -6.17,-23.14 -0.2,4.34 -1.23,8.83 -3.34,13.2 -2.53,5.24 -4.56,10.28 -6.26,15.43 5.64,-2.45 9.95,-7.57 11.48,-18.26 0.49,4.38 0.19,9.02 -1.03,13.97z"/>
   <path class="fil0" d="M258.69 177.97c-5.72,2.9 -11.72,3.56 -17.7,3.64 6.02,-0.7 11.78,-1.83 17.36,-4.89 6.03,-3.31 12.14,-4.67 17.7,-4.37 -7.45,0.4 -11.64,2.71 -17.35,5.61z"/>
   <path class="fil0" d="M271.08 179.93c5.58,-5.1 9.98,-7.48 17.4,-8.14 -13.4,-7.55 -26.68,-6.08 -39.85,2.83 11.26,-12 22.51,-24 33.77,-36 0.72,0.32 1.25,0.94 1.29,2.4 3.75,-3.14 7.74,-6.03 12.17,-8.49 -2.96,-1.3 -6.3,-1.1 -9.94,0.34 4.93,-4.71 8.78,-9.66 11.66,-14.83 -2.97,0.91 -5.94,1.83 -8.91,2.74 -1.14,3.54 -2.8,7.08 -5.31,10.63 1.03,-3.17 1.63,-6.2 1.29,-8.91 -2,0.06 -4,0.11 -6,0.17 -0.44,6.79 -1.42,12.44 -4.46,16.46 -3.8,5.02 -7.33,2.15 -7.54,-2.92 -0.49,-11.62 9.65,-16.68 15.94,-17.61 11.1,-1.64 21.52,-3.27 29.31,-9.39 4.37,-3.43 9,-6.58 14.74,-8.48 -14.23,-7.05 -35.05,-6.81 -52.2,14.06 10.23,-7.52 21.88,-12.94 37.11,-12.17 -12.31,1.83 -23.86,5.54 -31.45,12.51 3.83,-1.91 7.91,-2.74 12.09,-3.17 -16.14,6.07 -28.69,12.78 -28.88,21.6 -0.11,5.07 1.64,8.93 4.89,11.48 -2.37,2.89 -4.74,5.77 -7.11,8.66 0.1,-4.08 -2.07,-5.87 -5.4,-6.51 -0.3,12.52 -5.71,23.57 -16.11,28.03 -13.55,5.8 -27.29,-0.9 -30.34,-13.8 -1.89,0.11 -3.77,0.23 -5.66,0.34 4.8,10.86 12.41,19.53 27,23.48 14.78,4 31.03,3.38 40.54,-5.31z"/>
   <path class="fil0" d="M279.35 161.89c3.66,-2.7 5.18,-5.44 8.19,-5.27 -2.87,-4.39 -19.87,-3.32 -22.93,4.29 1.84,0.64 4.89,2.01 7.62,-0.05 2.48,-1.87 4.42,-3.98 10.47,-4.24 -4.36,0.64 -6.41,1.56 -8.73,3.75 -1.04,0.98 -2.39,1.87 -4.68,2.98 2.8,0.38 7.27,1.16 10.07,-1.46z"/>
   <path class="fil0" d="M287.8 161.37c-0.13,1.91 -0.67,3.83 -2.06,5.74 -1.84,-0.1 -3.16,-0.73 -4.2,-1.63 2.82,-0.84 4.7,-2.36 6.26,-4.11z"/>
   <path class="fil0" d="M299.84 150.32c0.09,6.49 -1.17,13.26 -9.34,17.91 -1.87,0.93 -3.13,0.08 -2.14,-1.71 1.85,-3.09 2.92,-7.03 2.48,-10.8 1.97,0.67 3.2,1.9 3.34,3.94 0.81,-4.31 2.79,-7.31 5.66,-9.34z"/>
   <path class="fil0" d="M310.02 118.59c-1.37,0 -2.48,1.11 -2.48,2.48 0,1.37 1.11,2.48 2.48,2.48 1.37,0 2.48,-1.11 2.48,-2.48 0,-1.37 -1.11,-2.48 -2.48,-2.48z"/>
   <path class="fil0" d="M322.87 134.1c0.58,-9.21 -1.15,-14.68 -5.83,-15.43 -0.13,6.77 -2.62,8.95 -6.17,8.74 -5.9,-0.34 -7.55,-12.14 0.69,-12.34 6.58,-0.16 10.85,2.68 12.86,9.26 3.04,9.95 0.48,34.19 -30.17,46.97 -2.45,1.12 -3.56,-0.89 -1.2,-2.4 7.83,-4.33 12.12,-9.57 12.68,-15.94 0.46,-5.21 2.24,-8.02 4.11,-9.77 1.83,1.71 2.51,5.2 1.37,11.48 4.87,-7.56 8.27,-15.69 7.2,-25.54 2.37,1.28 3.68,3.01 4.46,4.97z"/>
   <path class="fil0" d="M377.9 135.06c-8.64,5.36 -14.96,4.99 -18.34,-2.91 17.47,3.02 10.91,-18.79 -4.63,-14.74 6.02,4.56 1.18,10.25 -2.23,7.54 0.82,-5.28 -2.2,-6.37 -8.91,-3.43 -6.82,3.91 -9.07,9.4 -9.26,15.6 3.74,-5.94 8.31,-7.99 13.71,-5.14 2.31,1.22 4.78,1.26 7.37,0.86 -2.54,3.26 -6.8,7.51 -13.03,5.14 -3.23,-1.23 -6.28,-0.26 -9.26,3.08 -2.97,3.32 -4.97,7.15 -5.66,11.48 6.82,-1.45 7.63,2.13 6,7.54 -1.69,-3.83 -4.6,-4.12 -6.34,-0.51 -2.51,5.2 -7.19,8.63 -12.86,11.31 12,3.49 10.62,21.83 -2.49,19.41 4.57,-1.08 4.9,-4.57 4.2,-7.58 -3.73,3.43 -7.12,2.68 -10.28,-0.86 2.85,-1.41 5.1,-3.67 2.01,-5.14 -2.96,-1.42 -6.32,-1.1 -9.64,0.13 -6.52,2.41 -13.68,3.45 -21,2.79 2.42,-3.08 6.06,-4.39 10.43,-4.64 3.99,-0.23 3.88,0.04 8,-1.57 1.64,-0.64 3.23,-1.31 4.01,-1.62 29.13,-11.87 35.72,-43.83 21.27,-62.62 3.79,-2.84 6.94,-0.99 8.57,2.91 2.4,-8.06 9.86,-7.3 13.11,-4.89 2.73,2.02 2.47,6.15 0.6,8.83 -1.18,1.69 -6.35,-0.22 -3.26,-4.28 0.63,0.87 1.69,1.33 1.88,0.34 0.87,-4.37 -6.66,-4.22 -7.54,1.2 -0.65,3.99 0.14,7.4 2.57,10.63 12.96,-14.72 33,-14 45.25,-1.37 3.98,4.1 7.22,8.74 8.57,14.06 1.65,6.5 4.85,9.52 11.31,9.43 -1.77,3.15 -6.1,6.11 -8.74,3.6 -2.52,-2.4 -5.38,-3 -5.74,2.23 -0.61,8.9 -8.53,16.43 -14.31,21.08 -4,3.22 -0.93,6.05 2.91,7.37 -3.39,4.71 -12.55,0.68 -8.74,-6.34 -13.28,3.04 -22.37,0.39 -25.03,-10.97 20.93,17.2 52.09,-7.62 39.42,-29.65 5.62,12.17 -6.81,30.75 -20.74,31.02 -16.45,0.32 -26.19,-12.59 -16.2,-21.56 4.86,-4.37 11.81,-1.24 11.23,3.9 -4.14,-3.31 -10.97,-1.95 -9.26,5.66 1.31,5.82 8.68,6.89 7.54,-1.54 10.18,12.55 29.04,-0.38 23.48,-15.77z"/>
   <path class="fil0" d="M153.9 158.41c9.8,-0.86 18.72,-2.07 25.78,0.34 2.78,0.95 7.72,1.94 10.56,2.14 0.03,0.89 -0.46,2.46 -0.43,3.34 -5.84,-0.83 -7.44,1.28 -5.06,6.17 -1,0.66 -2,1.31 -3,1.97 -3.38,-2.66 -5.9,-1.2 -8.14,1.63 -2.26,-0.17 -4.51,-0.34 -6.77,-0.51 3.91,-3.57 7.83,-7.14 11.74,-10.71 -8.6,-0.74 -16.45,-0.26 -23.23,1.97 -0.49,-2.11 -0.97,-4.23 -1.46,-6.34z"/>
   <path class="fil0" d="M123.9 107.66c0.66,0.86 1.31,1.71 1.97,2.57 2.65,-5.17 5.57,-10.35 7.8,-16.5 1.62,-4.48 2.94,-9.24 4.71,-13.67 -6.26,-0.8 -9.53,3.61 -11.66,9.6 -1.79,5.03 -3.73,9.81 -6.09,14.31 4.61,-4.23 5.13,-6.58 7.67,-13.46 -1.8,7.21 -1.23,10.2 -4.41,17.14z"/>
   <path class="fil0" d="M121.15 67.68c-2.81,12.15 -6.09,21.87 -2.48,35.44 5.62,-10.39 9.46,-21.05 9.77,-32.14 0.15,-5.26 0.33,-10.51 1.11,-15.77 -12.17,7.16 -18.37,17.35 -18.43,30.68 0.66,1.31 1.31,2.63 1.97,3.94 0.12,-4.35 0.51,-8.59 1.54,-12.6 0.57,3.21 0.78,6.58 0.77,10.03 1.06,-8.21 2.4,-13.43 5.74,-19.58z"/>
   <path class="fil0" d="M104.18 96.26c-1.77,-0.4 -3.54,-0.8 -5.31,-1.2 -0.84,-8.16 0.15,-16.12 6.17,-23.14 0.21,4.34 1.23,8.83 3.34,13.2 2.54,5.24 4.57,10.28 6.26,15.43 -5.64,-2.45 -9.95,-7.57 -11.48,-18.26 -0.49,4.38 -0.19,9.02 1.03,13.97z"/>
   <path class="fil0" d="M143.39 177.97c5.72,2.9 11.72,3.56 17.7,3.64 -6.02,-0.7 -11.78,-1.83 -17.36,-4.89 -6.03,-3.31 -12.14,-4.67 -17.7,-4.37 7.45,0.4 11.64,2.71 17.35,5.61z"/>
   <path class="fil0" d="M131 179.93c-5.58,-5.1 -9.98,-7.48 -17.4,-8.14 13.4,-7.55 26.68,-6.08 39.85,2.83 -11.26,-12 -22.51,-24 -33.77,-36 -0.72,0.32 -1.25,0.94 -1.29,2.4 -3.75,-3.14 -7.74,-6.03 -12.17,-8.49 2.96,-1.3 6.3,-1.1 9.94,0.34 -4.93,-4.71 -8.78,-9.66 -11.66,-14.83 2.97,0.91 5.94,1.83 8.91,2.74 1.14,3.54 2.8,7.08 5.31,10.63 -1.03,-3.17 -1.63,-6.2 -1.29,-8.91 2,0.06 4,0.11 6,0.17 0.44,6.79 1.42,12.44 4.46,16.46 3.8,5.02 7.33,2.15 7.54,-2.92 0.49,-11.62 -9.64,-16.68 -15.94,-17.61 -11.1,-1.64 -21.52,-3.27 -29.31,-9.39 -4.37,-3.43 -9,-6.58 -14.74,-8.48 14.23,-7.05 35.05,-6.81 52.2,14.06 -10.23,-7.52 -21.88,-12.94 -37.11,-12.17 12.31,1.83 23.86,5.54 31.45,12.51 -3.83,-1.91 -7.91,-2.74 -12.09,-3.17 16.14,6.07 28.69,12.78 28.88,21.6 0.11,5.07 -1.64,8.93 -4.89,11.48 2.37,2.89 4.74,5.77 7.11,8.66 -0.1,-4.08 2.08,-5.87 5.4,-6.51 0.3,12.52 5.71,23.57 16.11,28.03 13.55,5.8 27.29,-0.9 30.34,-13.8 1.88,0.11 3.77,0.23 5.66,0.34 -4.8,10.86 -12.41,19.53 -27,23.48 -14.78,4 -31.03,3.38 -40.54,-5.31z"/>
   <path class="fil0" d="M122.72 161.89c-3.66,-2.7 -5.18,-5.44 -8.19,-5.27 2.87,-4.39 19.87,-3.32 22.92,4.29 -1.84,0.64 -4.89,2.01 -7.62,-0.05 -2.48,-1.87 -4.42,-3.98 -10.46,-4.24 4.36,0.64 6.41,1.56 8.73,3.75 1.04,0.98 2.39,1.87 4.68,2.98 -2.8,0.38 -7.27,1.16 -10.07,-1.46z"/>
   <path class="fil0" d="M114.28 161.37c0.13,1.91 0.67,3.83 2.06,5.74 1.84,-0.1 3.16,-0.73 4.2,-1.63 -2.81,-0.84 -4.7,-2.36 -6.26,-4.11z"/>
   <path class="fil0" d="M102.24 150.32c-0.09,6.49 1.17,13.26 9.34,17.91 1.87,0.93 3.13,0.08 2.14,-1.71 -1.85,-3.09 -2.91,-7.03 -2.48,-10.8 -1.97,0.67 -3.2,1.9 -3.34,3.94 -0.81,-4.31 -2.79,-7.31 -5.66,-9.34z"/>
   <path class="fil0" d="M92.06 118.59c1.37,0 2.48,1.11 2.48,2.48 0,1.37 -1.11,2.48 -2.48,2.48 -1.37,0 -2.48,-1.11 -2.48,-2.48 0,-1.37 1.11,-2.48 2.48,-2.48z"/>
   <path class="fil0" d="M79.2 134.1c-0.58,-9.21 1.15,-14.68 5.83,-15.43 0.13,6.77 2.62,8.95 6.17,8.74 5.9,-0.34 7.55,-12.14 -0.69,-12.34 -6.58,-0.16 -10.85,2.68 -12.86,9.26 -3.04,9.95 -0.48,34.19 30.17,46.97 2.45,1.12 3.56,-0.89 1.2,-2.4 -7.84,-4.33 -12.12,-9.57 -12.68,-15.94 -0.46,-5.21 -2.24,-8.02 -4.11,-9.77 -1.83,1.71 -2.51,5.2 -1.37,11.48 -4.87,-7.56 -8.27,-15.69 -7.2,-25.54 -2.37,1.28 -3.68,3.01 -4.46,4.97z"/>
   <path class="fil0" d="M24.17 135.06c8.64,5.36 14.96,4.99 18.34,-2.91 -17.47,3.02 -10.91,-18.79 4.63,-14.74 -6.02,4.56 -1.18,10.25 2.23,7.54 -0.83,-5.28 2.19,-6.37 8.91,-3.43 6.82,3.91 9.07,9.4 9.26,15.6 -3.74,-5.94 -8.31,-7.99 -13.71,-5.14 -2.31,1.22 -4.78,1.26 -7.37,0.86 2.54,3.26 6.8,7.51 13.03,5.14 3.23,-1.23 6.28,-0.26 9.26,3.08 2.96,3.32 4.97,7.15 5.66,11.48 -6.82,-1.45 -7.63,2.13 -6,7.54 1.7,-3.83 4.6,-4.12 6.34,-0.51 2.51,5.2 7.19,8.63 12.86,11.31 -12,3.49 -10.62,21.83 2.48,19.41 -4.57,-1.08 -4.9,-4.57 -4.2,-7.58 3.73,3.43 7.12,2.68 10.29,-0.86 -2.85,-1.41 -5.1,-3.67 -2.02,-5.14 2.96,-1.42 6.32,-1.1 9.64,0.13 6.52,2.41 13.68,3.45 21,2.79 -2.42,-3.08 -6.06,-4.39 -10.42,-4.64 -3.99,-0.23 -3.88,0.04 -8,-1.57 -1.64,-0.64 -3.23,-1.31 -4.01,-1.62 -29.13,-11.87 -35.72,-43.83 -21.27,-62.62 -3.79,-2.84 -6.94,-0.99 -8.57,2.91 -2.4,-8.06 -9.86,-7.3 -13.11,-4.89 -2.73,2.02 -2.47,6.15 -0.6,8.83 1.18,1.69 6.35,-0.22 3.26,-4.28 -0.63,0.87 -1.69,1.33 -1.89,0.34 -0.87,-4.37 6.66,-4.22 7.54,1.2 0.64,3.99 -0.14,7.4 -2.57,10.63 -12.96,-14.72 -33,-14 -45.25,-1.37 -3.98,4.1 -7.22,8.74 -8.57,14.06 -1.65,6.5 -4.85,9.52 -11.31,9.43 1.77,3.15 6.1,6.11 8.74,3.6 2.52,-2.4 5.39,-3 5.74,2.23 0.61,8.9 8.53,16.43 14.31,21.08 4,3.22 0.93,6.05 -2.91,7.37 3.39,4.71 12.55,0.68 8.74,-6.34 13.28,3.04 22.37,0.39 25.03,-10.97 -20.93,17.2 -52.09,-7.62 -39.42,-29.65 -5.61,12.17 6.81,30.75 20.74,31.02 16.45,0.32 26.19,-12.59 16.2,-21.56 -4.86,-4.37 -11.81,-1.24 -11.23,3.9 4.14,-3.31 10.97,-1.95 9.26,5.66 -1.31,5.82 -8.68,6.89 -7.54,-1.54 -10.18,12.55 -29.04,-0.38 -23.48,-15.77z"/>
   <path class="fil0" d="M201.04 213.43c-0.65,-1.95 -1.5,-3.66 -3.34,-5.4 -2.18,-2.06 -3.51,-4.95 -3.86,-8.83 -1.31,2.09 -3.23,2.57 -5.23,2.83 0.94,-1.8 0.55,-3.56 0.34,-5.4 -0.6,-5.24 2.95,-8.97 7.2,-13.46 2.11,-2.22 2.18,-5.43 1.54,-8.14 -1.88,1.4 -2.57,3.36 -3.26,5.4 -2.33,6.93 -7.84,9.76 -14.06,11.87 -0.43,-6.19 4.65,-11.15 9.73,-12.47 -0.98,3.29 -3.72,5.48 -6.3,7.62 3.84,-2.17 7.43,-4.78 9.51,-9.08 1.8,-3.71 3.78,-7.08 7.71,-8.57 3.93,1.49 5.92,4.86 7.71,8.57 2.09,4.31 5.68,6.91 9.51,9.08 -2.57,-2.14 -5.32,-4.34 -6.3,-7.62 5.08,1.32 10.16,6.28 9.73,12.47 -6.22,-2.11 -11.72,-4.94 -14.06,-11.87 -0.69,-2.03 -1.37,-4 -3.26,-5.4 -0.63,2.71 -0.56,5.92 1.54,8.14 4.25,4.48 7.8,8.21 7.2,13.46 -0.21,1.84 -0.6,3.6 0.34,5.4 -2,-0.26 -3.92,-0.74 -5.23,-2.83 -0.35,3.88 -1.68,6.77 -3.86,8.83 -1.84,1.74 -2.69,3.45 -3.34,5.4zm3.11 -28.64c3.86,3.77 5.74,8.34 6.51,13.37 -1.6,-4.61 -3.66,-9.1 -6.51,-13.37zm-6.56 0c-3.86,3.77 -5.74,8.34 -6.51,13.37 1.6,-4.61 3.66,-9.1 6.51,-13.37zm3.41 22.33c-1.04,-10.84 -0.57,-16.92 0,-22.37 0.47,7.46 0.45,14.91 0,22.37z"/>
   <path class="fil0" d="M199.56 146.2l3.09 -0.01c0.38,-0 0.73,0.13 1,0.36 0.25,-0.25 0.57,-0.41 0.94,-0.45l3.07 -0.33c0.38,-0.04 0.74,0.06 1.03,0.25 0.22,-0.27 0.53,-0.47 0.89,-0.55l3.02 -0.65c0.37,-0.08 0.74,-0.02 1.05,0.14 0.19,-0.29 0.47,-0.52 0.83,-0.64l2.93 -0.97c0.36,-0.12 0.73,-0.1 1.06,0.03 0.16,-0.31 0.42,-0.57 0.76,-0.72l2.82 -1.27c0.35,-0.16 0.72,-0.18 1.06,-0.08 0.12,-0.33 0.35,-0.61 0.68,-0.8l2.67 -1.56c0.33,-0.19 0.7,-0.25 1.04,-0.19 0.09,-0.34 0.29,-0.64 0.59,-0.87l2.49 -1.83c0.3,-0.22 0.67,-0.32 1.02,-0.3 0.05,-0.34 0.22,-0.67 0.5,-0.92l2.28 -2.08c0.28,-0.25 0.63,-0.39 0.98,-0.41 0.02,-0.35 0.15,-0.69 0.39,-0.97l2.05 -2.31c0.25,-0.28 0.58,-0.45 0.93,-0.51 -0.02,-0.35 0.07,-0.7 0.29,-1.01l1.8 -2.51c0.22,-0.31 0.53,-0.51 0.87,-0.6 -0.06,-0.34 0,-0.71 0.18,-1.03l1.52 -2.69c0.19,-0.33 0.48,-0.57 0.81,-0.69 -0.09,-0.34 -0.07,-0.7 0.08,-1.05l1.23 -2.83c0.15,-0.35 0.42,-0.61 0.73,-0.77 -0.13,-0.32 -0.15,-0.69 -0.04,-1.05l0.93 -2.95c0.11,-0.36 0.35,-0.65 0.64,-0.85 -0.16,-0.31 -0.22,-0.67 -0.15,-1.03l0.62 -3.03c0.08,-0.37 0.28,-0.69 0.55,-0.91 -0.19,-0.29 -0.29,-0.64 -0.25,-1.02l0.29 -3.07c0.04,-0.38 0.2,-0.71 0.45,-0.96 -0.22,-0.27 -0.35,-0.61 -0.36,-0.98l-0.03 -3.09c-0,-0.38 0.13,-0.73 0.35,-1 -0.25,-0.24 -0.42,-0.57 -0.46,-0.94l-0.35 -3.07c-0.04,-0.38 0.05,-0.74 0.24,-1.03 -0.27,-0.22 -0.47,-0.52 -0.56,-0.89l-0.67 -3.01c-0.08,-0.37 -0.03,-0.74 0.13,-1.05 -0.29,-0.19 -0.53,-0.47 -0.64,-0.82l-0.99 -2.93c-0.12,-0.36 -0.1,-0.73 0.02,-1.06 -0.31,-0.16 -0.57,-0.41 -0.73,-0.75l-1.29 -2.81c-0.16,-0.34 -0.18,-0.72 -0.09,-1.06 -0.33,-0.12 -0.61,-0.35 -0.8,-0.67l-1.58 -2.66c-0.19,-0.33 -0.25,-0.69 -0.2,-1.04 -0.34,-0.09 -0.65,-0.28 -0.87,-0.58l-1.85 -2.48c-0.23,-0.3 -0.33,-0.66 -0.31,-1.02 -0.34,-0.05 -0.67,-0.22 -0.92,-0.49l-2.1 -2.27c-0.26,-0.28 -0.39,-0.62 -0.41,-0.98 -0.35,-0.01 -0.69,-0.14 -0.97,-0.39l-2.32 -2.04c-0.1,-0.08 -0.18,-0.18 -0.25,-0.28l1.41 -3.16c0.53,-0.21 1.16,-0.12 1.61,0.28l2.32 2.04c0.35,0.31 0.53,0.74 0.54,1.17 0.43,-0 0.86,0.17 1.17,0.51l2.1 2.27c0.31,0.34 0.45,0.79 0.41,1.22 0.42,0.04 0.83,0.26 1.11,0.62l1.85 2.48c0.28,0.37 0.37,0.83 0.28,1.25 0.42,0.09 0.8,0.34 1.03,0.74l1.58 2.66c0.24,0.4 0.28,0.86 0.15,1.28 0.41,0.13 0.76,0.43 0.95,0.84l1.29 2.81c0.19,0.42 0.18,0.89 0.01,1.29 0.39,0.17 0.71,0.5 0.86,0.94l0.99 2.93c0.15,0.44 0.09,0.9 -0.12,1.28 0.37,0.21 0.65,0.57 0.75,1.02l0.67 3.02c0.1,0.45 -0.01,0.91 -0.26,1.26 0.35,0.25 0.59,0.64 0.64,1.1l0.35 3.07c0.05,0.46 -0.1,0.9 -0.39,1.22 0.32,0.29 0.52,0.7 0.52,1.16l0.03 3.09c0.01,0.46 -0.19,0.88 -0.51,1.18 0.28,0.32 0.44,0.75 0.4,1.21l-0.29 3.08c-0.04,0.46 -0.29,0.86 -0.64,1.12 0.25,0.35 0.36,0.79 0.27,1.24l-0.61 3.03c-0.09,0.46 -0.38,0.82 -0.75,1.05 0.21,0.37 0.28,0.83 0.14,1.26l-0.93 2.95c-0.14,0.44 -0.46,0.78 -0.85,0.96 0.17,0.39 0.19,0.85 0.01,1.27l-1.23 2.83c-0.19,0.43 -0.54,0.73 -0.95,0.87 0.13,0.41 0.1,0.86 -0.13,1.26l-1.52 2.69c-0.23,0.4 -0.61,0.67 -1.04,0.76 0.09,0.42 0.01,0.87 -0.26,1.25l-1.8 2.51c-0.27,0.38 -0.68,0.6 -1.11,0.65 0.04,0.42 -0.08,0.87 -0.39,1.21l-2.05 2.31c-0.31,0.35 -0.74,0.52 -1.17,0.53 -0,0.43 -0.17,0.85 -0.51,1.16l-2.28 2.08c-0.34,0.31 -0.79,0.45 -1.22,0.4 -0.05,0.42 -0.26,0.83 -0.63,1.1l-2.49 1.83c-0.37,0.27 -0.83,0.36 -1.26,0.27 -0.09,0.42 -0.35,0.8 -0.75,1.03l-2.66 1.56c-0.4,0.23 -0.86,0.27 -1.28,0.14 -0.13,0.41 -0.43,0.76 -0.85,0.95l-2.82 1.27c-0.42,0.19 -0.89,0.18 -1.29,0 -0.18,0.39 -0.51,0.71 -0.94,0.85l-2.93 0.97c-0.44,0.14 -0.9,0.08 -1.28,-0.13 -0.22,0.37 -0.58,0.65 -1.03,0.75l-3.02 0.66c-0.45,0.1 -0.91,-0.01 -1.26,-0.27 -0.25,0.35 -0.64,0.59 -1.1,0.64l-3.07 0.34c-0.46,0.05 -0.9,-0.11 -1.22,-0.4 -0.29,0.32 -0.7,0.52 -1.16,0.52l-3.09 0.01c-0.46,0 -0.88,-0.2 -1.18,-0.52 -0.32,0.28 -0.75,0.44 -1.21,0.39l-3.07 -0.31c-0.46,-0.05 -0.86,-0.29 -1.11,-0.64 -0.35,0.25 -0.79,0.36 -1.24,0.26l-2.28 -0.48c0.19,-0.29 0.38,-0.58 0.57,-0.89l1.63 0.34c0.45,0.1 0.9,-0.19 0.99,-0.65l0.11 -0.55c0.1,-0.45 -0.2,-0.9 -0.65,-0.99l-0.97 -0.21c0.15,-0.31 0.29,-0.61 0.42,-0.92l1.04 0.22c0.37,0.08 0.68,0.28 0.9,0.56 0.29,-0.19 0.65,-0.28 1.02,-0.25l3.07 0.31c0.38,0.04 0.71,0.21 0.96,0.46 0.27,-0.22 0.61,-0.35 0.98,-0.35zm-27.77 -4.79c-0.05,-0.03 -0.1,-0.06 -0.15,-0.09l-2.5 -1.82c-0.38,-0.27 -0.59,-0.68 -0.64,-1.11 -0.43,0.04 -0.87,-0.09 -1.21,-0.4l-2.3 -2.07c-0.34,-0.31 -0.52,-0.74 -0.52,-1.18 -0.43,-0 -0.85,-0.18 -1.16,-0.52l-2.07 -2.3c-0.31,-0.34 -0.44,-0.79 -0.4,-1.22 -0.42,-0.05 -0.83,-0.27 -1.1,-0.64l-1.82 -2.5c-0.27,-0.38 -0.35,-0.84 -0.26,-1.26 -0.42,-0.09 -0.8,-0.35 -1.02,-0.75l-1.54 -2.68c-0.23,-0.4 -0.26,-0.87 -0.13,-1.28 -0.41,-0.14 -0.75,-0.44 -0.94,-0.86l-1.25 -2.82c-0.19,-0.42 -0.17,-0.89 0.01,-1.29 -0.39,-0.18 -0.7,-0.51 -0.84,-0.95l-0.95 -2.94c-0.14,-0.44 -0.08,-0.9 0.14,-1.28 -0.37,-0.22 -0.65,-0.58 -0.74,-1.03l-0.64 -3.02c-0.09,-0.45 0.02,-0.91 0.27,-1.26 -0.34,-0.26 -0.58,-0.65 -0.63,-1.1l-0.32 -3.07c-0.05,-0.46 0.11,-0.9 0.4,-1.22 -0.31,-0.29 -0.51,-0.71 -0.51,-1.17l0.01 -3.09c0,-0.46 0.21,-0.88 0.53,-1.17 -0.28,-0.32 -0.43,-0.76 -0.38,-1.21l0.33 -3.07c0.05,-0.46 0.3,-0.86 0.65,-1.11 -0.25,-0.35 -0.35,-0.8 -0.25,-1.25l0.66 -3.02c0.1,-0.45 0.39,-0.82 0.76,-1.03 -0.21,-0.37 -0.27,-0.83 -0.12,-1.26l0.97 -2.94c0.15,-0.44 0.47,-0.77 0.87,-0.95 -0.17,-0.39 -0.18,-0.85 0.01,-1.27l1.27 -2.82c0.19,-0.42 0.55,-0.72 0.96,-0.85 -0.13,-0.41 -0.09,-0.87 0.14,-1.26l1.56 -2.67c0.23,-0.4 0.62,-0.66 1.05,-0.75 -0.08,-0.42 0,-0.87 0.28,-1.24l1.83 -2.49c0.28,-0.37 0.69,-0.59 1.12,-0.63 -0.04,-0.43 0.09,-0.87 0.4,-1.2l2.08 -2.28c0.31,-0.34 0.74,-0.52 1.18,-0.51 0.01,-0.43 0.19,-0.85 0.53,-1.15l2.31 -2.05c0.48,-0.42 1.15,-0.5 1.7,-0.26l1.37 3.08c-0.08,0.12 -0.17,0.23 -0.28,0.33l-2.31 2.05c-0.28,0.25 -0.63,0.38 -0.99,0.39 -0.02,0.35 -0.16,0.69 -0.41,0.96l-2.08 2.28c-0.26,0.28 -0.59,0.45 -0.94,0.5 0.01,0.35 -0.08,0.7 -0.3,1l-1.83 2.49c-0.22,0.3 -0.54,0.51 -0.88,0.59 0.05,0.34 -0.01,0.71 -0.2,1.03l-1.56 2.67c-0.19,0.33 -0.48,0.56 -0.81,0.68 0.09,0.34 0.07,0.7 -0.09,1.04l-1.27 2.82c-0.16,0.34 -0.42,0.61 -0.74,0.76 0.12,0.33 0.14,0.69 0.02,1.05l-0.97 2.93c-0.12,0.36 -0.36,0.65 -0.65,0.84 0.16,0.31 0.21,0.67 0.13,1.04l-0.66 3.02c-0.08,0.37 -0.29,0.68 -0.56,0.9 0.19,0.29 0.28,0.65 0.24,1.02l-0.34 3.07c-0.04,0.38 -0.21,0.71 -0.47,0.96 0.22,0.27 0.35,0.62 0.35,0.99l-0.01 3.09c-0,0.38 -0.14,0.73 -0.36,1 0.24,0.25 0.41,0.57 0.45,0.94l0.31 3.07c0.04,0.38 -0.06,0.74 -0.26,1.03 0.27,0.22 0.47,0.53 0.55,0.89l0.63 3.03c0.08,0.37 0.02,0.74 -0.15,1.05 0.29,0.19 0.52,0.48 0.64,0.83l0.95 2.94c0.11,0.36 0.09,0.73 -0.04,1.06 0.31,0.16 0.57,0.42 0.72,0.76l1.25 2.82c0.15,0.35 0.17,0.72 0.08,1.06 0.32,0.13 0.61,0.36 0.79,0.68l1.54 2.68c0.19,0.33 0.25,0.7 0.19,1.05 0.33,0.09 0.64,0.29 0.86,0.59l1.81 2.5c0.22,0.31 0.32,0.67 0.3,1.02 0.34,0.06 0.67,0.22 0.92,0.5l2.07 2.3c0.25,0.28 0.39,0.63 0.4,0.98 0.35,0.02 0.69,0.15 0.96,0.4l2.3 2.07c0.28,0.25 0.45,0.59 0.5,0.94 0.35,-0.02 0.7,0.08 1,0.3l2.5 1.81c0.31,0.22 0.51,0.54 0.6,0.88 0.34,-0.05 0.71,0 1.03,0.19l2.68 1.54c0.24,0.14 0.43,0.33 0.56,0.55 -0.06,0.5 -0.12,1.06 -0.12,1.85 -0.32,-0.22 -0.59,-0.45 -0.82,-0.68 0.14,-0.38 -0.01,-0.81 -0.37,-1.02l-2.17 -1.25c-0.4,-0.23 -0.91,-0.09 -1.14,0.31l-0.11 0.19c-0.82,0.07 -1.68,0.38 -2.46,0.93zm33.2 5.63l2.48 -0.27c0.46,-0.05 0.88,0.28 0.92,0.74l0.06 0.56c0.05,0.46 -0.29,0.88 -0.74,0.92l-2.49 0.27c-0.46,0.05 -0.87,-0.28 -0.92,-0.74l-0.06 -0.56c-0.05,-0.46 0.28,-0.87 0.74,-0.92zm5.09 -0.68l2.44 -0.53c0.45,-0.09 0.9,0.19 1,0.64l0.12 0.55c0.1,0.45 -0.19,0.9 -0.64,1l-2.44 0.53c-0.45,0.1 -0.9,-0.19 -1,-0.64l-0.12 -0.55c-0.1,-0.45 0.19,-0.9 0.64,-1zm4.99 -1.21l2.37 -0.78c0.44,-0.14 0.92,0.1 1.06,0.54l0.18 0.53c0.14,0.44 -0.1,0.91 -0.53,1.06l-2.37 0.78c-0.44,0.15 -0.91,-0.09 -1.06,-0.53l-0.18 -0.54c-0.15,-0.44 0.09,-0.91 0.53,-1.06zm4.84 -1.73l2.28 -1.03c0.42,-0.19 0.92,-0 1.11,0.42l0.23 0.51c0.19,0.42 0,0.92 -0.42,1.11l-2.28 1.03c-0.42,0.19 -0.92,0 -1.11,-0.42l-0.23 -0.51c-0.19,-0.42 -0,-0.91 0.42,-1.11zm4.63 -2.23l2.16 -1.26c0.4,-0.23 0.92,-0.1 1.15,0.3l0.28 0.48c0.23,0.4 0.1,0.91 -0.3,1.15l-2.16 1.26c-0.4,0.23 -0.91,0.1 -1.15,-0.3l-0.28 -0.49c-0.24,-0.4 -0.1,-0.91 0.3,-1.15zm4.37 -2.7l2.01 -1.48c0.37,-0.27 0.9,-0.19 1.17,0.18l0.33 0.45c0.28,0.37 0.2,0.9 -0.18,1.17l-2.01 1.48c-0.37,0.28 -0.9,0.2 -1.17,-0.18l-0.33 -0.45c-0.28,-0.37 -0.19,-0.9 0.18,-1.17zm4.06 -3.14l1.85 -1.68c0.34,-0.31 0.88,-0.29 1.18,0.06l0.38 0.42c0.31,0.34 0.29,0.87 -0.05,1.18l-1.85 1.68c-0.34,0.31 -0.87,0.29 -1.18,-0.05l-0.38 -0.42c-0.31,-0.34 -0.29,-0.87 0.05,-1.18zm3.71 -3.55l1.66 -1.87c0.31,-0.34 0.84,-0.38 1.18,-0.07l0.42 0.37c0.35,0.31 0.38,0.84 0.07,1.18l-1.66 1.87c-0.3,0.35 -0.84,0.38 -1.18,0.07l-0.42 -0.37c-0.35,-0.3 -0.37,-0.84 -0.07,-1.18zm3.32 -3.92l1.45 -2.03c0.27,-0.38 0.8,-0.46 1.17,-0.2l0.45 0.33c0.38,0.27 0.46,0.79 0.2,1.17l-1.46 2.03c-0.27,0.38 -0.79,0.46 -1.17,0.2l-0.46 -0.33c-0.38,-0.27 -0.46,-0.79 -0.19,-1.17zm2.88 -4.25l1.23 -2.17c0.23,-0.4 0.74,-0.55 1.14,-0.32l0.49 0.28c0.4,0.23 0.54,0.74 0.31,1.14l-1.23 2.17c-0.23,0.4 -0.74,0.54 -1.14,0.32l-0.49 -0.28c-0.4,-0.22 -0.54,-0.74 -0.32,-1.14zm2.42 -4.53l1 -2.29c0.19,-0.42 0.68,-0.62 1.1,-0.43l0.51 0.23c0.43,0.18 0.62,0.68 0.44,1.1l-1 2.29c-0.18,0.42 -0.68,0.62 -1.1,0.44l-0.52 -0.23c-0.42,-0.18 -0.62,-0.68 -0.43,-1.1zm1.93 -4.76l0.75 -2.38c0.14,-0.44 0.61,-0.69 1.05,-0.55l0.53 0.17c0.44,0.14 0.69,0.61 0.55,1.05l-0.75 2.38c-0.14,0.44 -0.61,0.69 -1.05,0.55l-0.54 -0.17c-0.44,-0.14 -0.69,-0.61 -0.55,-1.05zm1.42 -4.93l0.5 -2.45c0.09,-0.45 0.54,-0.75 0.99,-0.66l0.55 0.11c0.45,0.09 0.74,0.54 0.65,0.99l-0.5 2.45c-0.09,0.45 -0.54,0.75 -0.99,0.66l-0.55 -0.11c-0.45,-0.09 -0.74,-0.53 -0.65,-0.99zm0.9 -5.06l0.24 -2.49c0.05,-0.46 0.46,-0.8 0.91,-0.76l0.56 0.05c0.46,0.04 0.8,0.46 0.76,0.91l-0.24 2.49c-0.04,0.46 -0.45,0.8 -0.91,0.76l-0.56 -0.06c-0.46,-0.04 -0.8,-0.45 -0.76,-0.91zm0.36 -5.12l-0.02 -2.5c-0,-0.46 0.37,-0.84 0.83,-0.85l0.56 -0.01c0.46,-0.01 0.84,0.37 0.85,0.83l0.02 2.5c0.01,0.46 -0.37,0.84 -0.83,0.85l-0.56 0c-0.46,0.01 -0.84,-0.37 -0.85,-0.83zm-0.18 -5.13l-0.29 -2.48c-0.05,-0.46 0.28,-0.88 0.74,-0.93l0.56 -0.06c0.46,-0.06 0.88,0.28 0.93,0.74l0.29 2.48c0.06,0.46 -0.28,0.88 -0.73,0.93l-0.56 0.06c-0.46,0.06 -0.87,-0.28 -0.93,-0.73zm-0.72 -5.09l-0.55 -2.44c-0.1,-0.45 0.19,-0.9 0.64,-1l0.55 -0.12c0.45,-0.1 0.9,0.19 1,0.64l0.55 2.44c0.1,0.45 -0.18,0.9 -0.63,1l-0.55 0.12c-0.45,0.1 -0.9,-0.18 -1,-0.63zm-1.25 -4.98l-0.8 -2.37c-0.15,-0.44 0.09,-0.92 0.53,-1.06l0.53 -0.18c0.44,-0.15 0.91,0.09 1.06,0.53l0.8 2.37c0.15,0.44 -0.09,0.91 -0.53,1.06l-0.53 0.18c-0.44,0.15 -0.91,-0.09 -1.06,-0.53zm-1.76 -4.82l-1.04 -2.27c-0.19,-0.42 -0.01,-0.92 0.41,-1.11l0.51 -0.23c0.42,-0.19 0.92,-0.01 1.11,0.41l1.04 2.27c0.19,0.42 0.01,0.92 -0.41,1.11l-0.51 0.23c-0.42,0.19 -0.92,0.01 -1.11,-0.41zm-2.26 -4.61l-1.28 -2.15c-0.23,-0.4 -0.11,-0.91 0.29,-1.15l0.48 -0.29c0.4,-0.24 0.91,-0.1 1.15,0.29l1.28 2.15c0.24,0.4 0.1,0.91 -0.29,1.15l-0.48 0.29c-0.4,0.24 -0.91,0.1 -1.15,-0.29zm-2.73 -4.35l-1.49 -2c-0.27,-0.37 -0.2,-0.9 0.17,-1.17l0.45 -0.33c0.37,-0.28 0.9,-0.2 1.17,0.17l1.49 2c0.28,0.37 0.2,0.9 -0.17,1.17l-0.45 0.34c-0.37,0.28 -0.9,0.2 -1.17,-0.17zm-3.17 -4.04l-1.69 -1.83c-0.31,-0.34 -0.29,-0.87 0.05,-1.19l0.41 -0.38c0.34,-0.31 0.87,-0.29 1.18,0.05l1.7 1.84c0.31,0.34 0.29,0.87 -0.05,1.18l-0.41 0.38c-0.34,0.31 -0.87,0.29 -1.19,-0.05zm-3.58 -3.69l-1.88 -1.65c-0.35,-0.3 -0.38,-0.84 -0.08,-1.18l0.37 -0.42c0.3,-0.35 0.84,-0.38 1.18,-0.08l1.88 1.65c0.35,0.3 0.38,0.84 0.08,1.18l-0.37 0.42c-0.31,0.35 -0.84,0.38 -1.18,0.08zm-64.64 -1.6l-1.87 1.66c-0.35,0.3 -0.88,0.28 -1.18,-0.07l-0.37 -0.42c-0.31,-0.35 -0.28,-0.88 0.07,-1.18l1.87 -1.66c0.35,-0.31 0.88,-0.28 1.18,0.07l0.37 0.42c0.31,0.34 0.27,0.87 -0.07,1.18zm-3.75 3.5l-1.68 1.85c-0.31,0.34 -0.85,0.37 -1.19,0.06l-0.41 -0.38c-0.34,-0.31 -0.37,-0.84 -0.05,-1.18l1.68 -1.85c0.31,-0.34 0.84,-0.37 1.18,-0.06l0.41 0.38c0.34,0.31 0.36,0.84 0.05,1.18zm-3.37 3.88l-1.48 2.01c-0.28,0.37 -0.8,0.45 -1.17,0.18l-0.45 -0.33c-0.37,-0.27 -0.45,-0.8 -0.18,-1.17l1.48 -2.01c0.27,-0.37 0.8,-0.45 1.17,-0.18l0.45 0.33c0.38,0.27 0.45,0.79 0.18,1.17zm-2.94 4.21l-1.26 2.16c-0.23,0.4 -0.75,0.54 -1.15,0.3l-0.48 -0.28c-0.4,-0.23 -0.54,-0.75 -0.3,-1.15l1.26 -2.16c0.23,-0.4 0.75,-0.53 1.15,-0.3l0.48 0.29c0.4,0.23 0.53,0.74 0.3,1.14zm-2.48 4.5l-1.03 2.28c-0.19,0.42 -0.69,0.61 -1.11,0.42l-0.51 -0.23c-0.42,-0.19 -0.61,-0.69 -0.42,-1.11l1.03 -2.28c0.19,-0.42 0.69,-0.61 1.11,-0.42l0.51 0.23c0.42,0.19 0.61,0.68 0.42,1.11zm-2 4.73l-0.78 2.37c-0.15,0.44 -0.62,0.68 -1.06,0.53l-0.53 -0.18c-0.44,-0.14 -0.68,-0.62 -0.53,-1.05l0.78 -2.37c0.14,-0.44 0.62,-0.68 1.06,-0.54l0.53 0.18c0.44,0.14 0.67,0.62 0.53,1.05zm-1.49 4.91l-0.53 2.44c-0.1,0.45 -0.55,0.74 -1,0.64l-0.55 -0.12c-0.45,-0.1 -0.74,-0.55 -0.64,-0.99l0.53 -2.44c0.1,-0.45 0.54,-0.74 1,-0.64l0.55 0.12c0.45,0.09 0.73,0.54 0.64,0.99zm-0.96 5.05l-0.27 2.48c-0.05,0.46 -0.47,0.8 -0.92,0.74l-0.56 -0.06c-0.46,-0.05 -0.79,-0.46 -0.74,-0.92l0.27 -2.48c0.05,-0.46 0.46,-0.79 0.92,-0.74l0.56 0.06c0.46,0.04 0.79,0.46 0.74,0.92zm-0.43 5.12l-0.01 2.5c-0.01,0.46 -0.38,0.84 -0.84,0.84l-0.56 -0c-0.46,-0 -0.84,-0.38 -0.83,-0.84l0.01 -2.5c0,-0.46 0.38,-0.84 0.84,-0.84l0.56 0c0.46,-0 0.83,0.38 0.83,0.84zm0.11 5.14l0.26 2.49c0.04,0.46 -0.29,0.88 -0.75,0.92l-0.56 0.06c-0.46,0.05 -0.87,-0.29 -0.92,-0.75l-0.25 -2.49c-0.05,-0.46 0.29,-0.87 0.75,-0.92l0.56 -0.05c0.46,-0.05 0.87,0.29 0.91,0.75zm0.65 5.1l0.52 2.44c0.09,0.45 -0.2,0.9 -0.65,0.99l-0.55 0.11c-0.45,0.1 -0.9,-0.19 -0.99,-0.65l-0.51 -2.45c-0.1,-0.45 0.2,-0.9 0.65,-0.99l0.55 -0.11c0.45,-0.1 0.89,0.19 0.99,0.65zm1.18 5l0.77 2.38c0.14,0.44 -0.1,0.92 -0.54,1.05l-0.54 0.17c-0.44,0.14 -0.91,-0.1 -1.05,-0.54l-0.77 -2.38c-0.14,-0.44 0.1,-0.91 0.54,-1.05l0.54 -0.17c0.44,-0.14 0.91,0.1 1.05,0.54zm1.7 4.85l1.01 2.28c0.18,0.42 -0.01,0.92 -0.43,1.11l-0.51 0.23c-0.42,0.19 -0.92,-0 -1.1,-0.42l-1.01 -2.29c-0.19,-0.42 0,-0.92 0.42,-1.11l0.52 -0.23c0.42,-0.19 0.91,0 1.1,0.43zm2.2 4.64l1.25 2.17c0.23,0.4 0.09,0.92 -0.31,1.15l-0.49 0.28c-0.4,0.23 -0.91,0.09 -1.14,-0.31l-1.25 -2.17c-0.23,-0.4 -0.09,-0.91 0.31,-1.14l0.49 -0.28c0.4,-0.23 0.91,-0.09 1.14,0.31zm2.67 4.39l1.47 2.02c0.27,0.38 0.19,0.9 -0.19,1.17l-0.45 0.33c-0.37,0.27 -0.9,0.19 -1.17,-0.18l-1.47 -2.02c-0.27,-0.37 -0.19,-0.9 0.18,-1.17l0.46 -0.33c0.37,-0.27 0.89,-0.19 1.17,0.19zm3.12 4.08l1.67 1.86c0.31,0.35 0.28,0.88 -0.06,1.18l-0.42 0.38c-0.34,0.31 -0.87,0.28 -1.18,-0.06l-1.67 -1.86c-0.31,-0.34 -0.28,-0.87 0.06,-1.18l0.42 -0.38c0.34,-0.31 0.87,-0.28 1.18,0.06zm3.53 3.73l1.86 1.67c0.34,0.31 0.37,0.84 0.06,1.18l-0.38 0.42c-0.31,0.34 -0.84,0.37 -1.18,0.06l-1.86 -1.67c-0.35,-0.31 -0.37,-0.84 -0.06,-1.18l0.38 -0.42c0.31,-0.35 0.84,-0.37 1.18,-0.06zm3.9 3.34l2.02 1.47c0.37,0.27 0.46,0.8 0.19,1.17l-0.33 0.45c-0.27,0.37 -0.8,0.46 -1.17,0.19l-2.02 -1.47c-0.38,-0.27 -0.46,-0.8 -0.19,-1.17l0.33 -0.45c0.27,-0.38 0.79,-0.46 1.17,-0.19zm23.47 9.72l2.49 0.25c0.46,0.05 0.8,0.46 0.75,0.92l-0.06 0.56c-0.05,0.46 -0.46,0.79 -0.92,0.75l-2.49 -0.26c-0.46,-0.04 -0.79,-0.46 -0.75,-0.91l0.06 -0.56c0.04,-0.46 0.46,-0.79 0.92,-0.75zm5.12 0.4l2.5 -0.01c0.46,0 0.84,0.38 0.84,0.84l0 0.56c0,0.46 -0.38,0.84 -0.84,0.84l-2.5 0.01c-0.46,0 -0.84,-0.37 -0.84,-0.83l0 -0.56c-0,-0.46 0.37,-0.84 0.83,-0.84z"/>
   <path class="fil0" d="M201.04 0l0 0 -0 0.08 -0 -0.08zm0 0.08c0,9.51 4.76,17.9 12.03,22.92 -3.68,2.36 -6.12,6.49 -6.12,11.19 0,7.34 5.95,13.28 13.28,13.28 7.34,0 13.28,-5.95 13.28,-13.28 0,-2.33 -0.6,-4.51 -1.65,-6.41 5.83,-0.62 11.12,-3.04 15.31,-6.69l0 0.5 -17.15 38.4c-8.05,-6.12 -18.1,-9.76 -29,-9.76 -10.9,0 -20.94,3.64 -29,9.76l-17.15 -38.4 0 -0.49c4.19,3.65 9.48,6.07 15.31,6.69 -1.05,1.9 -1.65,4.09 -1.65,6.41 0,7.34 5.95,13.28 13.28,13.28 7.34,0 13.28,-5.95 13.28,-13.28 0,-4.7 -2.44,-8.83 -6.12,-11.19 7.27,-5.03 12.03,-13.42 12.03,-22.92z"/>
   <path class="fil1" d="M231.78 89.88c0,9.37 -2.74,17.69 -8.25,24.99 -5.69,7.6 -12.46,11.4 -20.32,11.4 -2.76,0 -5.11,-0.73 -7.04,-2.18 -2.1,-1.6 -3.15,-3.61 -3.15,-6.07 0,-1.55 0.48,-2.95 1.43,-4.16 0.96,-1.21 2.15,-1.81 3.6,-1.81 0.77,0 1.47,0.08 2.11,0.27 0.65,0.19 1.11,0.46 1.38,0.82 0.27,0.34 0.2,0.56 -0.21,0.7 -1.09,0.56 -1.77,1.04 -2.05,1.45 -0.43,0.7 -0.65,1.67 -0.65,2.93 0,1.71 0.75,3.02 2.25,3.99 1.28,0.8 2.79,1.19 4.57,1.19 5.11,0 9.46,-3.1 13.02,-9.32 3.48,-6.05 5.22,-13.18 5.22,-21.36 0,-6.72 -1.5,-12.51 -4.5,-17.38 -3.31,-5.39 -7.65,-8.08 -13.02,-8.08 -4.21,0 -7.87,1.25 -11.01,3.75 -3.34,2.62 -5.01,5.91 -5.01,9.85l0 50.07c0,6.14 -1.18,11.18 -3.53,15.15 -2.35,3.97 -5.15,5.95 -8.38,5.95 -1.57,0 -2.86,-0.34 -3.9,-1.01 -1.04,-0.67 -1.57,-1.64 -1.57,-2.91 -0.1,-0.8 -0.02,-1.48 0.24,-2.08 0.27,-0.58 0.65,-1.06 1.13,-1.41 0.24,-0.17 0.43,-0.26 0.6,-0.26 0.29,0 0.39,0.19 0.29,0.55 -0.14,0.58 -0.17,1.07 -0.1,1.5 0.14,0.7 0.38,1.25 0.75,1.6 0.49,0.49 1.19,0.75 2.1,0.75 0.27,0 0.48,-0.02 0.65,-0.05 1.72,-0.24 2.97,-1.38 3.7,-3.43 0.73,-2.05 1.09,-4.87 1.09,-8.47l0 -61.56c-0.8,0.24 -1.69,0.41 -2.66,0.53 -0.99,0.12 -2.15,0.17 -3.51,0.17 -1.33,0 -2.51,-0.44 -3.53,-1.33 -1.04,-0.87 -1.55,-1.96 -1.55,-3.27 0,-2.23 1.06,-3.56 3.19,-3.99 0.41,-0.07 0.67,-0.1 0.8,-0.1 0.53,0 0.9,0.1 1.11,0.31 0.32,0.22 0.5,0.43 0.5,0.6 0,0.17 -0.24,0.34 -0.7,0.49 -0.53,0.27 -0.8,0.84 -0.8,1.72 0,0.15 0,0.31 0,0.44 0.07,0.14 0.1,0.22 0.1,0.25 0.24,0.6 0.65,1.01 1.26,1.19 0.63,0.2 1.4,0.31 2.32,0.31 0.41,0 0.7,0 0.9,0 1.09,0 3.19,-0.7 6.29,-2.11 4.06,-1.84 7.18,-3.14 9.37,-3.9 4.24,-1.45 8.16,-2.16 11.76,-2.16 6.68,0 12.32,2.56 16.94,7.65 4.52,4.99 6.78,10.94 6.78,17.83z"/>
  </g>
 </g>
</svg>
