<?xml version="1.0" encoding="UTF-8"?>
<!DOCTYPE svg PUBLIC "-//W3C//DTD SVG 1.1//EN" "http://www.w3.org/Graphics/SVG/1.1/DTD/svg11.dtd">
<!-- Creator: CorelDRAW 2018 (64-Bit) -->
<svg xmlns="http://www.w3.org/2000/svg" xml:space="preserve" width="1.19333in" height="0.217638in" version="1.1" style="shape-rendering:geometricPrecision; text-rendering:geometricPrecision; image-rendering:optimizeQuality; fill-rule:evenodd; clip-rule:evenodd"
viewBox="0 0 17881.55 3261.2"
 xmlns:xlink="http://www.w3.org/1999/xlink">
 <defs>
  <style type="text/css">
   <![CDATA[
    .fil2 {fill:#F39C12}
    .fil1 {fill:#34495E;fill-rule:nonzero}
    .fil0 {fill:#C0392B;fill-rule:nonzero}
   ]]>
  </style>
 </defs>
 <g id="Layer_x0020_1">
  <metadata id="CorelCorpID_0Corel-Layer"/>
  <g id="_2895229591104">
   <path class="fil0" d="M808.16 1169.74l0 617.55c0,132.74 14.34,215.09 43.54,246.95 39.29,45.6 98.82,68.49 178.4,68.49l80.76 0 0 57.34 -904.85 0 0 -57.34 79.7 0c89.2,0 153.44,-29.2 191.67,-87.08 20.71,-31.86 31.33,-108.37 31.33,-228.37l0 -1366.72c0,-132.8 -13.8,-215.09 -41.94,-246.95 -40.88,-45.66 -100.88,-68.49 -181.05,-68.49l-79.7 0 0 -57.34 774.18 0c189.08,0 337.74,19.65 447.12,58.4 108.9,38.76 200.76,104.6 275.56,196.98 74.92,92.38 112.09,201.82 112.09,328.18 0,172.56 -56.87,312.73 -170.49,420.51 -113.56,107.78 -273.97,162 -481.57,162 -50.97,0 -105.66,-3.78 -164.65,-11.21 -59.47,-6.84 -122.65,-18.05 -190.08,-32.92zm0 -89.2c54.69,10.62 103.53,18.58 146.01,23.36 41.94,5.31 78.58,7.96 108.37,7.96 107.78,0 200.17,-41.94 278.22,-125.3 78.05,-83.36 117.34,-191.14 117.34,-323.41 0,-91.32 -18.58,-176.27 -55.75,-254.32 -37.17,-78.05 -90.26,-136.45 -158.22,-175.21 -68.49,-38.76 -146.01,-58.4 -232.61,-58.4 -53.04,0 -120.53,10.09 -203.35,29.73l0 875.59zm3600.77 1079.53l-565.52 0 -717.37 -987.68c-51.5,2.18 -93.45,3.19 -125.83,3.19 -13.27,0 -27.61,-0.53 -42.48,-1 -15.4,-0.59 -30.79,-1.12 -47.25,-2.18l0 614.9c0,132.74 14.34,215.09 43.54,246.95 39.29,45.6 98.23,68.49 176.81,68.49l82.3 0 0 57.34 -904.79 0 0 -57.34 79.11 0c89.2,0 152.91,-29.2 191.14,-87.08 21.77,-31.86 32.39,-108.37 32.39,-228.37l0 -1366.72c0,-132.8 -14.28,-215.09 -43.48,-246.95 -40.41,-45.66 -100.41,-68.49 -180.05,-68.49l-79.11 0 0 -57.34 768.87 0c224.59,0 389.72,16.46 495.96,48.85 106.72,32.92 196.98,93.45 270.78,181.05 74.33,87.61 111.5,192.2 111.5,313.85 0,130.08 -42.48,242.64 -126.9,338.21 -84.95,95.57 -215.56,163 -393.43,202.88l436.97 604.75c99.82,139.17 185.36,232.02 256.98,277.74 71.15,46.13 164.65,74.86 279.87,87.61l0 57.34zm-1498.45 -1086.44c19.65,0 36.64,0 50.97,0.53 14.34,0.53 26.02,1.06 35.04,1.06 199.11,0 349.36,-43.54 450.3,-130.61 101.41,-87.61 151.85,-198.57 151.85,-333.49 0,-131.68 -40.88,-238.93 -122.12,-321.75 -81.77,-82.3 -190.14,-123.71 -324.47,-123.71 -59.47,0 -140.17,9.56 -241.58,28.67l0 879.31zm2461.77 -911.17l0 834.71 465.17 0c120.53,0 200.7,-18.05 241.05,-54.16 54.16,-47.79 83.89,-131.68 90.26,-251.67l57.34 0 0 735.95 -57.34 0c-14.34,-103 -29.2,-169.43 -43.54,-198.63 -18.58,-36.1 -49.38,-64.78 -91.85,-85.42 -42.48,-20.77 -107.78,-31.38 -195.92,-31.38l-465.17 0 0 696.66c0,93.45 4.25,150.26 12.21,170.49 8.5,20.18 22.83,36.64 43.54,48.26 20.71,12.27 60.53,18.05 118.4,18.05l357.39 0c118.93,0 205.48,-8.44 259.63,-24.9 53.63,-16.52 105.66,-49.38 155.04,-98.28 64.24,-64.19 130.08,-161.41 197.51,-290.96l63.77 0 -182.17 528.88 -1627.47 0 0 -57.34 74.86 0c49.91,0 97.16,-12.27 141.76,-36.16 33.51,-16.4 56.34,-41.41 68.02,-74.8 12.21,-33.51 18.05,-101.47 18.05,-204.47l0 -1373.15c0,-133.8 -13.27,-216.1 -40.35,-246.89 -37.76,-41.41 -99.88,-62.12 -187.48,-62.12l-74.86 0 0 -57.34 1628 0 22.36 465.11 -60.53 0c-21.83,-112.03 -45.72,-189.02 -72.27,-230.96 -26.55,-41.94 -65.84,-73.8 -117.34,-96.1 -41.41,-15.4 -114.68,-23.36 -219.28,-23.36l-578.79 0zm3525.32 -162.47l47.79 716.84 -47.79 0c-64.24,-214.5 -155.57,-369.6 -274.5,-463.58 -118.99,-94.51 -261.29,-141.76 -428,-141.76 -139.11,0 -265.47,35.57 -378.03,106.72 -112.56,71.15 -201.29,184.24 -266.06,340.34 -64.24,155.63 -96.63,349.42 -96.63,580.92 0,191.14 30.26,356.86 91.32,497.03 61.12,140.17 152.97,247.48 275.09,322.29 122.65,74.92 262.29,112.09 418.92,112.09 136.45,0 256.98,-29.2 361.1,-87.67 104.6,-58.4 219.28,-174.68 344.05,-348.83l48.32 31.86c-105.66,187.42 -228.84,324.41 -369.54,411.54 -140.7,86.54 -308.01,130.08 -501.27,130.08 -348.83,0 -619.14,-129.55 -810.29,-389.24 -142.82,-193.26 -214.5,-420.51 -214.5,-681.8 0,-210.79 47.25,-404.58 141.23,-580.92 93.98,-176.81 223.53,-313.26 388.12,-410.42 165.18,-97.16 345.18,-145.48 540.56,-145.48 151.91,0 301.64,37.17 449.77,112.03 43.01,22.83 74.33,34.51 92.92,34.51 27.61,0 52.03,-10.09 72.74,-29.73 27.08,-28.14 46.19,-66.9 57.34,-116.81l57.34 0zm1518.75 2102.73l0 57.34 -904.79 0 0 -57.34 74.86 0c87.61,0 150.79,-25.54 190.61,-75.93 24.95,-33.51 37.17,-113.15 37.17,-239.52l0 -1366.72c0,-106.78 -6.9,-177.4 -20.18,-211.38 -10.62,-26.02 -31.86,-48.32 -64.24,-66.9 -45.66,-24.95 -93.45,-37.17 -143.36,-37.17l-74.86 0 0 -57.34 904.79 0 0 57.34 -75.93 0c-86.01,0 -148.67,25.49 -187.96,75.93 -26.02,33.45 -38.82,113.09 -38.82,239.52l0 1366.72c0,106.72 6.96,177.34 20.24,211.32 10.09,26.02 31.86,48.38 65.31,66.96 44.6,24.9 91.32,37.17 141.23,37.17l75.93 0zm1567.59 -2102.73c273.44,0 510.83,104.07 711,312.2 200.7,208.19 301.05,467.82 301.05,779.49 0,320.69 -100.88,586.76 -303.23,798.6 -201.76,211.91 -446.53,317.57 -733.77,317.57 -289.96,0 -533.66,-103.53 -731.17,-310.13 -197.57,-206.54 -296.27,-473.61 -296.27,-801.79 0,-335.03 114.09,-608.53 341.93,-820.37 198.04,-183.71 434.85,-275.56 710.47,-275.56zm-29.73 111.5c-188.01,0 -339.33,70.09 -452.96,210.26 -141.76,174.74 -212.91,430.13 -212.91,766.75 0,344.64 73.27,610.12 220.34,795.95 113.09,141.29 261.76,211.91 447.12,211.91 198.04,0 361.04,-77.52 490.06,-232.08 129.02,-155.04 193.32,-398.74 193.32,-732.24 0,-361.58 -71.15,-631.36 -212.91,-808.69 -113.68,-141.23 -270.84,-211.85 -472.07,-211.85zm3016.67 -6.37l0 -57.34 742.27 0 0 57.34 -79.11 0c-82.83,0 -146.54,34.51 -191.14,104.07 -21.77,32.39 -32.39,106.72 -32.39,224.06l0 855.95c0,211.91 -20.71,375.97 -62.65,492.78 -41.94,116.81 -124.77,217.22 -247.42,300.52 -122.71,83.42 -289.43,125.36 -500.74,125.36 -229.9,0 -404.64,-39.82 -523.57,-120.05 -119.46,-79.58 -203.88,-187.42 -253.26,-322.29 -33.45,-92.38 -49.91,-265.47 -49.91,-519.8l0 -825.15c0,-129.61 -18.05,-214.56 -53.63,-254.91 -35.57,-40.35 -93.45,-60.53 -173.09,-60.53l-79.17 0 0 -57.34 911.17 0 0 57.34 -80.65 0c-87.13,0 -149.2,27.61 -186.42,82.3 -26.02,37.17 -38.7,115.22 -38.7,233.15l0 920.19c0,81.77 7.37,175.74 22.24,281.93 15.4,105.66 42.48,188.01 81.77,247.42 39.88,58.99 96.63,107.78 170.43,146.54 74.39,38.29 165.18,57.4 272.97,57.4 138.05,0 261.82,-30.26 370.6,-90.26 108.9,-60 183.24,-137.57 223.06,-231.02 39.82,-93.98 60,-253.26 60,-477.38l0 -854.83c0,-131.73 -14.34,-214.03 -43.54,-246.95 -40.35,-45.66 -100.41,-68.49 -179.99,-68.49l-79.11 0zm2567.43 -105.13l0 729.58 -57.34 0c-18.58,-140.23 -52.03,-251.73 -100.41,-334.56 -48.32,-82.83 -117.28,-148.67 -207.07,-197.51 -89.2,-48.85 -181.58,-73.27 -277.15,-73.27 -108.31,0 -197.51,32.92 -268.19,98.76 -70.62,65.84 -106.19,141.23 -106.19,225.12 0,64.3 22.3,123.18 66.9,176.27 64.83,77.58 217.75,181.64 459.86,311.19 197.51,106.19 332.43,187.42 404.58,243.71 72.27,56.81 128.02,123.18 166.78,200.23 38.76,76.99 58.4,157.16 58.4,241.58 0,159.82 -62.12,297.39 -185.83,413.14 -124.24,115.75 -284.12,173.62 -478.97,173.62 -61.59,0 -118.93,-4.78 -173.09,-14.34 -32.39,-5.31 -98.82,-24.42 -200.17,-57.34 -100.94,-32.98 -165.12,-49.38 -192.26,-49.38 -26.02,0 -46.72,7.96 -61.59,23.36 -14.87,15.93 -26.02,48.32 -33.45,97.69l-57.34 0 0 -723.21 57.34 0c27.08,151.32 63.18,264.94 108.84,339.81 45.66,75.45 115.81,138.11 209.78,187.42 93.92,49.91 196.98,74.92 309.01,74.92 129.55,0 232.56,-34.51 307.42,-103 75.45,-69.08 113.09,-150.32 113.09,-243.76 0,-52.03 -14.28,-104.6 -42.48,-157.69 -28.67,-53.09 -72.74,-102.47 -132.74,-148.67 -40.35,-31.33 -151.32,-97.22 -332.37,-198.1 -181.11,-100.29 -310.13,-181.05 -386.59,-241.05 -76.46,-60 -134.86,-126.9 -174.15,-199.11 -39.82,-72.74 -59.47,-152.97 -59.47,-240.05 0,-151.32 58.4,-281.93 174.68,-391.31 116.34,-109.38 264.94,-164.06 444.46,-164.06 112.56,0 231.49,27.55 357.33,82.3 58.4,26.02 99.29,38.76 123.24,38.76 27.08,0 49.32,-7.96 66.37,-23.89 16.93,-16.46 30.79,-48.32 41.41,-97.16l57.34 0z"/>
   <path class="fil1" d="M3652.92 2607.25l14.16 212.32 -14.16 0c-19.06,-63.54 -46.07,-109.49 -81.29,-137.28 -35.22,-28.02 -77.4,-42 -126.78,-42 -41.18,0 -78.64,10.5 -111.97,31.62 -33.33,21.06 -59.64,54.57 -78.82,100.76 -19,46.07 -28.61,103.53 -28.61,172.09 0,56.63 8.97,105.66 27.08,147.19 18.05,41.53 45.31,73.33 81.47,95.45 36.28,22.18 77.64,33.21 124.06,33.21 40.41,0 76.1,-8.67 106.96,-25.96 30.97,-17.29 64.95,-51.74 101.88,-103.3l14.34 9.44c-31.33,55.51 -67.78,96.04 -109.43,121.82 -41.71,25.66 -91.26,38.58 -148.49,38.58 -103.3,0 -183.35,-38.41 -239.99,-115.33 -42.36,-57.22 -63.6,-124.54 -63.6,-201.94 0,-62.42 14.04,-119.82 41.89,-172.03 27.79,-52.39 66.19,-92.8 114.98,-121.53 48.85,-28.85 102.18,-43.12 160.05,-43.12 45.01,0 89.32,11.03 133.21,33.15 12.74,6.78 22.06,10.26 27.55,10.26 8.14,0 15.4,-3.01 21.53,-8.85 8.02,-8.32 13.69,-19.76 16.99,-34.57l16.99 0zm740.26 31.15l0 -16.99 219.87 0 0 16.99 -23.48 0c-24.48,0 -43.36,10.21 -56.58,30.79 -6.43,9.62 -9.62,31.62 -9.62,66.43l0 253.5c0,62.71 -6.14,111.32 -18.52,145.95 -12.45,34.57 -36.99,64.3 -73.33,88.96 -36.28,24.72 -85.72,37.17 -148.31,37.17 -68.08,0 -119.82,-11.8 -155.04,-35.57 -35.4,-23.6 -60.41,-55.51 -75.04,-95.45 -9.85,-27.37 -14.75,-78.64 -14.75,-153.97l0 -244.41c0,-38.35 -5.37,-63.48 -15.93,-75.45 -10.5,-11.98 -27.61,-17.93 -51.21,-17.93l-23.48 0 0 -16.99 269.9 0 0 16.99 -23.95 0c-25.78,0 -44.13,8.14 -55.16,24.36 -7.73,11.03 -11.44,34.1 -11.44,69.02l0 272.55c0,24.25 2.18,52.09 6.55,83.54 4.54,31.27 12.57,55.63 24.25,73.27 11.8,17.46 28.61,31.92 50.5,43.42 22,11.33 48.91,16.99 80.82,16.99 40.88,0 77.52,-8.97 109.79,-26.72 32.21,-17.82 54.22,-40.76 66.01,-68.43 11.8,-27.85 17.76,-75.04 17.76,-141.41l0 -253.2c0,-39 -4.25,-63.36 -12.86,-73.09 -11.98,-13.57 -29.73,-20.29 -53.33,-20.29l-23.42 0zm891.34 -31.15l0 216.1 -16.93 0c-5.55,-41.53 -15.46,-74.57 -29.73,-99.11 -14.34,-24.54 -34.75,-44.01 -61.35,-58.46 -26.43,-14.51 -53.8,-21.71 -82.12,-21.71 -32.09,0 -58.46,9.73 -79.41,29.26 -20.88,19.47 -31.44,41.83 -31.44,66.66 0,19.06 6.61,36.46 19.82,52.21 19.17,22.95 64.48,53.8 136.22,92.21 58.46,31.38 98.4,55.51 119.82,72.15 21.36,16.81 37.87,36.52 49.38,59.29 11.5,22.77 17.29,46.55 17.29,71.56 0,47.37 -18.41,88.08 -55.04,122.35 -36.75,34.28 -84.13,51.44 -141.82,51.44 -18.29,0 -35.28,-1.42 -51.27,-4.25 -9.62,-1.59 -29.26,-7.26 -59.35,-16.99 -29.85,-9.73 -48.85,-14.63 -56.93,-14.63 -7.67,0 -13.8,2.36 -18.23,6.9 -4.37,4.72 -7.67,14.34 -9.91,28.97l-16.93 0 0 -214.21 16.93 0c8.02,44.78 18.7,78.46 32.27,100.64 13.51,22.3 34.28,40.88 62.12,55.51 27.85,14.75 58.35,22.18 91.5,22.18 38.41,0 68.91,-10.21 91.09,-30.5 22.36,-20.47 33.51,-44.54 33.51,-72.21 0,-15.4 -4.25,-30.97 -12.62,-46.72 -8.5,-15.69 -21.53,-30.38 -39.29,-44.01 -11.98,-9.26 -44.84,-28.79 -98.46,-58.7 -53.63,-29.67 -91.85,-53.63 -114.45,-71.38 -22.65,-17.76 -40,-37.58 -51.62,-58.94 -11.8,-21.59 -17.64,-45.37 -17.64,-71.15 0,-44.78 17.34,-83.48 51.74,-115.86 34.45,-32.39 78.52,-48.61 131.68,-48.61 33.33,0 68.55,8.14 105.84,24.36 17.29,7.73 29.38,11.5 36.46,11.5 8.08,0 14.63,-2.36 19.7,-7.08 5.01,-4.9 9.09,-14.34 12.27,-28.79l16.93 0zm865.92 14.16l6.61 147.07 -17.46 0c-3.42,-25.78 -8.02,-44.36 -13.86,-55.4 -9.56,-17.76 -22.12,-30.97 -37.99,-39.29 -15.93,-8.55 -36.69,-12.74 -62.47,-12.74l-88.08 0 0 477.44c0,38.52 4.13,62.59 12.45,72.21 11.62,12.92 29.56,19.35 53.8,19.35l21.53 0 0 16.99 -266.12 0 0 -16.99 22.48 0c26.72,0 45.6,-8.02 56.99,-24.07 6.73,-9.91 10.21,-32.39 10.21,-67.49l0 -477.44 -75.04 0c-29.26,0 -50.03,2.18 -62.3,6.43 -15.99,5.84 -29.56,16.99 -41,33.69 -11.33,16.52 -18.11,39 -20.29,67.31l-17.46 0 6.61 -147.07 511.42 0zm585.64 -14.16c81,0 151.32,30.79 210.61,92.44 59.41,61.71 89.14,138.58 89.14,230.9 0,94.98 -29.85,173.8 -89.79,236.51 -59.76,62.77 -132.26,94.1 -217.33,94.1 -85.84,0 -158.05,-30.68 -216.57,-91.85 -58.52,-61.18 -87.72,-140.29 -87.72,-237.51 0,-99.23 33.8,-180.23 101.23,-243 58.7,-54.39 128.84,-81.59 210.43,-81.59zm-8.79 33.04c-55.69,0 -100.47,20.77 -134.15,62.3 -42,51.74 -63.06,127.37 -63.06,227.07 0,102.06 21.71,180.7 65.25,235.74 33.51,41.83 77.58,62.77 132.44,62.77 58.64,0 106.96,-23.01 145.18,-68.73 38.23,-45.9 57.22,-118.11 57.22,-216.86 0,-107.13 -21.06,-187.01 -63.06,-239.58 -33.63,-41.77 -80.23,-62.71 -139.82,-62.71zm959.3 606.76l-241.58 -526.41 0 417.86c0,38.52 4.31,62.59 12.62,72.21 11.5,12.92 29.67,19.35 54.69,19.35l22.36 0 0 16.99 -219.87 0 0 -16.99 22.48 0c26.78,0 45.66,-8.02 56.93,-24.07 6.78,-9.91 10.26,-32.39 10.26,-67.49l0 -408.59c0,-27.67 -3.19,-47.79 -9.32,-60.06 -4.37,-8.97 -12.39,-16.34 -24.01,-22.48 -11.8,-6.02 -30.56,-8.97 -56.34,-8.97l0 -16.99 179.28 0 225.53 489.12 223.47 -489.12 177.57 0 0 16.99 -21.83 0c-27.2,0 -46.25,8.02 -57.58,24.07 -6.78,9.85 -10.21,32.39 -10.21,67.43l0 408.59c0,38.52 4.37,62.59 13.04,72.21 11.44,12.92 29.73,19.35 54.75,19.35l21.83 0 0 16.99 -268.01 0 0 -16.99 22.54 0c27.02,0 45.9,-8.02 56.93,-24.07 6.73,-9.91 10.21,-32.39 10.21,-67.49l0 -417.86 -240.64 526.41 -15.1 0zm1484.94 -639.79l14.16 212.32 -14.16 0c-19.06,-63.54 -46.07,-109.49 -81.29,-137.28 -35.28,-28.02 -77.4,-42 -126.78,-42 -41.18,0 -78.64,10.5 -111.97,31.62 -33.33,21.06 -59.64,54.57 -78.82,100.76 -19,46.07 -28.61,103.53 -28.61,172.09 0,56.63 8.97,105.66 27.08,147.19 18.05,41.53 45.25,73.33 81.47,95.45 36.28,22.18 77.64,33.21 124.06,33.21 40.41,0 76.1,-8.67 106.9,-25.96 31.03,-17.29 64.95,-51.74 101.94,-103.3l14.34 9.44c-31.33,55.51 -67.84,96.04 -109.49,121.82 -41.65,25.66 -91.21,38.58 -148.49,38.58 -103.3,0 -183.35,-38.41 -239.93,-115.33 -42.36,-57.22 -63.6,-124.54 -63.6,-201.94 0,-62.42 14.04,-119.82 41.89,-172.03 27.79,-52.39 66.19,-92.8 114.92,-121.53 48.91,-28.85 102.24,-43.12 160.11,-43.12 45.01,0 89.32,11.03 133.21,33.15 12.74,6.78 22.06,10.26 27.55,10.26 8.14,0 15.4,-3.01 21.53,-8.85 8.02,-8.32 13.69,-19.76 16.99,-34.57l16.99 0zm721.5 431.25l-242.35 0 -41.77 97.93c-10.44,24.25 -15.75,42.48 -15.75,54.45 0,9.44 4.54,17.93 13.69,25.19 8.97,7.08 28.61,11.8 58.64,13.98l0 16.99 -197.22 0 0 -16.99c26.13,-4.54 42.95,-10.56 50.68,-17.93 15.69,-14.75 32.98,-44.84 52.03,-89.97l220.05 -514.9 15.52 0 217.51 520.45c17.46,41.77 33.33,68.85 47.67,81.41 14.34,12.45 34.1,19.35 59.76,20.94l0 16.99 -246.6 0 0 -16.99c24.84,-1.3 41.71,-5.37 50.44,-12.45 8.85,-7.08 13.1,-15.69 13.1,-25.96 0,-13.51 -6.14,-34.92 -18.41,-64.13l-36.99 -89.02zm-14.1 -33.98l-105.42 -252.38 -108.2 252.38 213.62 0zm926.74 -77.11c43.24,9.32 75.69,23.95 97.22,44.42 29.67,28.32 44.66,62.89 44.66,103.77 0,31.15 -9.79,61 -29.44,89.49 -19.65,28.44 -46.55,49.2 -80.82,62.24 -34.16,13.1 -86.37,19.7 -156.63,19.7l-294.62 0 0 -16.99 23.3 0c25.96,0 44.54,-8.38 55.81,-24.9 7.08,-10.68 10.56,-33.63 10.56,-68.55l0 -404.82c0,-38.64 -4.37,-63.06 -13.21,-73.09 -11.92,-13.57 -29.56,-20.29 -53.15,-20.29l-23.3 0 0 -16.99 269.6 0c50.32,0 90.56,3.6 120.94,11.03 46.07,11.15 81.18,30.62 105.36,58.76 24.25,28.2 36.34,60.41 36.34,97.05 0,31.33 -9.44,59.35 -28.49,84.18 -19,24.66 -47.02,43.07 -84.13,54.98zm-241.23 -25.6c11.33,2.18 24.36,3.78 38.82,4.9 14.63,1.12 30.68,1.53 48.14,1.53 44.84,0 78.64,-4.84 101.12,-14.45 22.48,-9.56 39.76,-24.36 51.74,-44.36 11.8,-19.82 17.76,-41.47 17.76,-65.07 0,-36.52 -14.93,-67.49 -44.66,-93.27 -29.73,-25.66 -73.09,-38.52 -130.02,-38.52 -30.68,0 -58.4,3.3 -82.89,10.03l0 239.22zm0 299.75c35.69,8.32 71.09,12.45 105.84,12.45 55.81,0 98.4,-12.62 127.66,-37.58 29.26,-25.01 43.89,-55.99 43.89,-92.8 0,-24.25 -6.73,-47.67 -20.41,-70.03 -13.57,-22.48 -35.28,-40.06 -64.95,-52.98 -29.73,-12.86 -66.72,-19.35 -110.61,-19.35 -19,0 -35.22,0.29 -48.73,1 -13.51,0.59 -24.36,1.65 -32.68,3.13l0 256.15zm954.41 28.49l0 16.99 -267.95 0 0 -16.99 22.18 0c25.9,0 44.66,-7.55 56.46,-22.54 7.37,-9.85 10.97,-33.45 10.97,-70.91l0 -404.82c0,-31.56 -2.01,-52.5 -5.96,-62.59 -3.13,-7.67 -9.44,-14.28 -19.06,-19.76 -13.45,-7.43 -27.61,-11.03 -42.42,-11.03l-22.18 0 0 -16.99 267.95 0 0 16.99 -22.48 0c-25.43,0 -44.01,7.55 -55.69,22.48 -7.67,9.91 -11.44,33.51 -11.44,70.91l0 404.82c0,31.62 2.01,52.56 5.96,62.59 3.01,7.73 9.44,14.34 19.35,19.82 13.21,7.37 27.08,11.03 41.83,11.03l22.48 0zm237.92 -608.64l168.13 0 383.29 469.77 0 -361.28c0,-38.52 -4.42,-62.59 -13.04,-72.15 -11.5,-12.92 -29.73,-19.35 -54.57,-19.35l-22.06 0 0 -16.99 219.87 0 0 16.99 -22.36 0c-26.84,0 -45.72,8.02 -57.05,24.07 -6.78,9.85 -10.21,32.39 -10.21,67.43l0 527.17 -16.7 0 -411.72 -503.87 0 385.29c0,38.52 4.25,62.59 12.57,72.21 11.8,12.92 30.09,19.35 54.75,19.35l22.3 0 0 16.99 -219.87 0 0 -16.99 22.06 0c27.02,0 46.07,-8.02 57.4,-24.07 6.73,-9.91 10.21,-32.39 10.21,-67.49l0 -434.96c-18.11,-21.24 -31.92,-35.22 -41.18,-42 -9.44,-6.78 -23.13,-13.1 -41.24,-19.06 -8.97,-2.65 -22.48,-4.07 -40.59,-4.07l0 -16.99zm1119.12 33.98l0 247.19 137.75 0c35.69,0 59.47,-5.31 71.44,-15.99 16.05,-14.16 24.84,-39 26.72,-74.57l16.99 0 0 217.98 -16.99 0c-4.25,-30.56 -8.61,-50.2 -12.92,-58.82 -5.49,-10.74 -14.57,-19.17 -27.2,-25.31 -12.57,-6.14 -31.92,-9.32 -58.05,-9.32l-137.75 0 0 206.36c0,27.67 1.24,44.48 3.6,50.5 2.54,5.96 6.78,10.85 12.92,14.28 6.14,3.66 17.93,5.37 35.1,5.37l105.84 0c35.22,0 60.82,-2.54 76.87,-7.37 15.87,-4.9 31.27,-14.63 45.96,-29.14 19,-19 38.52,-47.79 58.46,-86.19l18.88 0 -53.92 156.69 -482.04 0 0 -16.99 22.18 0c14.81,0 28.79,-3.66 42,-10.74 9.91,-4.84 16.7,-12.21 20.12,-22.12 3.66,-9.91 5.31,-30.09 5.31,-60.59l0 -406.71c0,-39.59 -3.89,-63.95 -11.92,-73.09 -11.15,-12.27 -29.56,-18.41 -55.51,-18.41l-22.18 0 0 -16.99 482.22 0 6.55 137.75 -17.88 0c-6.49,-33.15 -13.57,-55.99 -21.41,-68.37 -7.91,-12.45 -19.53,-21.89 -34.75,-28.49 -12.27,-4.54 -33.98,-6.9 -64.95,-6.9l-171.44 0zm1153.4 -33.98l6.61 147.07 -17.46 0c-3.48,-25.78 -8.02,-44.36 -13.86,-55.4 -9.56,-17.76 -22.12,-30.97 -38.05,-39.29 -15.87,-8.55 -36.64,-12.74 -62.42,-12.74l-88.08 0 0 477.44c0,38.52 4.07,62.59 12.39,72.21 11.68,12.92 29.62,19.35 53.86,19.35l21.47 0 0 16.99 -266.06 0 0 -16.99 22.48 0c26.72,0 45.6,-8.02 56.93,-24.07 6.78,-9.91 10.26,-32.39 10.26,-67.49l0 -477.44 -75.04 0c-29.26,0 -50.03,2.18 -62.3,6.43 -16.05,5.84 -29.56,16.99 -41,33.69 -11.39,16.52 -18.11,39 -20.29,67.31l-17.46 0 6.55 -147.07 511.48 0zm691 -14.16l0 216.1 -16.99 0c-5.49,-41.53 -15.4,-74.57 -29.73,-99.11 -14.34,-24.54 -34.75,-44.01 -61.29,-58.46 -26.43,-14.51 -53.8,-21.71 -82.12,-21.71 -32.09,0 -58.52,9.73 -79.41,29.26 -20.94,19.47 -31.44,41.83 -31.44,66.66 0,19.06 6.61,36.46 19.82,52.21 19.17,22.95 64.42,53.8 136.16,92.21 58.52,31.38 98.46,55.51 119.88,72.15 21.36,16.81 37.87,36.52 49.32,59.29 11.5,22.77 17.34,46.55 17.34,71.56 0,47.37 -18.41,88.08 -55.04,122.35 -36.81,34.28 -84.18,51.44 -141.88,51.44 -18.23,0 -35.22,-1.42 -51.27,-4.25 -9.56,-1.59 -29.26,-7.26 -59.29,-16.99 -29.85,-9.73 -48.91,-14.63 -56.93,-14.63 -7.73,0 -13.8,2.36 -18.23,6.9 -4.42,4.72 -7.73,14.34 -9.91,28.97l-16.99 0 0 -214.21 16.99 0c8.02,44.78 18.7,78.46 32.21,100.64 13.57,22.3 34.28,40.88 62.12,55.51 27.85,14.75 58.35,22.18 91.56,22.18 38.35,0 68.85,-10.21 91.03,-30.5 22.36,-20.47 33.51,-44.54 33.51,-72.21 0,-15.4 -4.25,-30.97 -12.57,-46.72 -8.5,-15.69 -21.53,-30.38 -39.29,-44.01 -11.98,-9.26 -44.84,-28.79 -98.52,-58.7 -53.57,-29.67 -91.79,-53.63 -114.45,-71.38 -22.65,-17.76 -39.94,-37.58 -51.56,-58.94 -11.8,-21.59 -17.64,-45.37 -17.64,-71.15 0,-44.78 17.29,-83.48 51.74,-115.86 34.45,-32.39 78.46,-48.61 131.62,-48.61 33.33,0 68.61,8.14 105.89,24.36 17.23,7.73 29.38,11.5 36.46,11.5 8.02,0 14.63,-2.36 19.65,-7.08 5.01,-4.9 9.14,-14.34 12.27,-28.79l16.99 0z"/>
   <g>
    <polygon class="fil2" points="-0,2934.14 1392.79,2892.96 2785.59,2851.78 2785.59,2934.14 2785.59,3016.49 1392.79,2975.31 "/>
    <polygon class="fil2" points="17881.55,2934.14 16488.7,2892.96 15095.97,2851.78 15095.97,2934.14 15095.97,3016.49 16488.7,2975.31 "/>
   </g>
  </g>
 </g>
</svg>
