<?xml version="1.0" encoding="UTF-8"?>
<!DOCTYPE svg PUBLIC "-//W3C//DTD SVG 1.1//EN" "http://www.w3.org/Graphics/SVG/1.1/DTD/svg11.dtd">
<!-- Creator: CorelDRAW 2018 (64-Bit) -->
<svg xmlns="http://www.w3.org/2000/svg" xml:space="preserve" width="0.439583in" height="0.439583in" version="1.1" style="shape-rendering:geometricPrecision; text-rendering:geometricPrecision; image-rendering:optimizeQuality; fill-rule:evenodd; clip-rule:evenodd"
viewBox="0 0 49.94 49.94"
 xmlns:xlink="http://www.w3.org/1999/xlink">
 <defs>
  <style type="text/css">
   <![CDATA[
    .str0 {stroke:#F43939;stroke-width:4.73;stroke-miterlimit:2.61313}
    .fil1 {fill:#FEFEFE}
    .fil0 {fill:#F43939}
   ]]>
  </style>
 </defs>
 <g id="Layer_x0020_1">
  <metadata id="CorelCorpID_0Corel-Layer"/>
  <rect class="fil0" width="49.94" height="49.94" rx="9.47" ry="9.47"/>
  <path class="fil1 str0" d="M23.2 7.31c-0.11,0.15 -0.3,0.23 -0.43,0.34 -0.61,0.48 -0.82,1.02 -0.99,1.15 -0.01,0.16 -0.78,1.72 -0.87,1.8 -0.08,0.26 -0.66,1.4 -0.86,1.81l-0.16 0.24c-0.01,0.17 -0.72,1.62 -0.82,1.71 -0.05,0.21 -0.69,1.53 -0.88,1.79l-0.18 0.17c-0.03,0.1 0.05,0 -0.08,0.13 -0.03,0.04 -0.08,0.07 -0.13,0.11 -0.23,0.19 -0.17,0.15 -0.29,0.16 -0.2,0.23 -0.74,0.24 -1.01,0.27 -0.14,0.04 -0.42,0.08 -0.6,0.06 -0.15,0.11 -3.77,0.59 -4.27,0.64 -0.2,0.05 -0.46,0.09 -0.67,0.07 -0.17,0.13 -0.94,0.18 -1.21,0.2 -0.17,0.03 -0.33,0.07 -0.5,0.04 -0.06,0.04 0.04,-0 -0.11,0.05 -0.07,0.03 -0.02,0.01 -0.08,0.02l-0.45 0.11c-0.2,0.07 -0.33,0.12 -0.53,0.23 -0.61,0.33 -1.23,0.94 -1.54,1.57 -0.31,0.65 -0.22,0.72 -0.35,1.07l-0.03 0.07 0.03 0.05c-0.03,0.55 0,1.02 0.15,1.51 0.16,0.53 0.39,0.75 0.54,1.14 0.03,0.02 0.01,-0 0.07,0.05 0.01,0.01 0.06,0.06 0.06,0.07 0.09,0.12 0.05,0.04 0.07,0.14 0.01,0.01 0.03,0.02 0.03,0.02l0.66 0.66c0.11,0.03 0.23,0.14 0.26,0.25 0.14,0.07 0.24,0.2 0.39,0.35 0.07,0.06 0.11,0.1 0.17,0.16 0.11,0.1 0.09,0.08 0.16,0.2 0.09,0.03 0.02,-0.02 0.13,0.08l0.07 0.1c0,-0.01 0.01,0.02 0.01,0.03 0.16,0.08 0.28,0.22 0.43,0.36 0.12,0.11 0.26,0.25 0.33,0.39 0.12,0.05 0.13,0.05 0.17,0.17 0.14,0.07 0.7,0.58 0.8,0.76 0.06,0.02 0.03,-0 0.1,0.05 0.11,0.09 0.05,0.05 0.07,0.1 0.17,0.13 0.28,0.26 0.43,0.39 0.14,0.13 0.29,0.23 0.38,0.4 0.07,0.02 0.01,-0.02 0.08,0.04 0.07,0.06 0.02,0.02 0.04,0.08 0.19,0.09 0.33,0.25 0.47,0.4 0.15,0.17 0.29,0.27 0.39,0.43 0.09,0.02 0.06,0 0.08,0.07 0.26,0.14 0.44,0.43 0.58,0.78 0.06,0.27 0.13,0.67 0.01,0.95 -0.03,0.28 -0.12,1.13 -0.26,1.3 0.01,0.18 -0.02,0.37 -0.07,0.53l-0.35 1.99 -0.17 0.89c-0.03,0.29 -0.12,1.11 -0.26,1.29 0.02,0.18 -0.03,0.41 -0.08,0.58 -0.06,0.5 -0.19,0.93 -0.2,1.46 -0.01,0.67 0.14,0.9 0.25,1.44l0.44 0.81c0.08,0.05 0.03,0 0.09,0.07 0.05,0.05 0.05,0.06 0.09,0.14 0.07,0.03 0.93,0.95 1.85,1.09 0.32,0.1 0.61,0.14 0.96,0.16l0.54 -0.01c0.12,-0.1 0.44,-0.14 0.6,-0.2 0.18,-0.07 0.39,-0.18 0.54,-0.26 0.28,-0.15 0.86,-0.49 1.12,-0.56 0.11,-0.11 1.63,-0.91 1.79,-0.92 0.06,-0.06 0.01,-0.02 0.09,-0.08 0.25,-0.18 1.77,-0.93 1.89,-0.97 0.15,-0.17 0.63,-0.35 0.86,-0.47 0.26,-0.14 0.67,-0.42 0.92,-0.44 0.13,-0.16 0.41,-0.26 0.64,-0.31 0.22,-0.05 0.62,-0.08 0.8,0.07 0.18,-0 0.41,0.12 0.5,0.21 0.3,0.09 0.73,0.35 1.03,0.5 0.16,0.08 0.33,0.18 0.49,0.26 0.09,0.05 0.17,0.08 0.25,0.12l0.23 0.17c0.15,0.01 1.67,0.8 1.78,0.9 0.27,0.09 0.71,0.35 0.99,0.5 0.25,0.13 0.81,0.35 0.97,0.55 0.26,0.02 0.62,0.28 0.89,0.42 0.16,0.09 0.27,0.14 0.43,0.23 0.14,0.07 0.36,0.14 0.48,0.2 0.39,0.07 0.57,0.11 0.99,0.11l0.84 -0.12c0.06,-0.05 -0.03,0 0.1,-0.06 0.05,-0.03 0.04,-0.02 0.1,-0.05 0.8,-0.32 1.38,-0.64 1.88,-1.41 0.13,-0.19 0.29,-0.64 0.44,-0.79 0,-0.33 0.17,-0.71 0.17,-1.19 0,-0.43 -0.16,-0.96 -0.13,-1.28 -0.15,-0.19 -0.22,-0.97 -0.25,-1.26 -0.05,-0.19 -0.13,-0.5 -0.08,-0.68l-0.24 -1.15c-0.08,-0.27 -0.31,-1.45 -0.27,-1.68 -0.1,-0.15 -0.22,-1.03 -0.24,-1.19l-0.03 -0.34c-0.21,-0.29 -0.26,-1.3 0,-1.58 0,-0.17 0.06,-0.25 0.15,-0.4 0.03,-0.04 0.09,-0.13 0.12,-0.16 0.1,-0.09 0.02,-0.05 0.13,-0.08 0.08,-0.15 0.11,-0.17 0.26,-0.25 0.05,-0.1 0.59,-0.67 0.71,-0.7 0.08,-0.16 0.06,-0.14 0.22,-0.22l0.15 -0.19c0.14,-0.13 0.39,-0.42 0.54,-0.48 0.08,-0.15 0.16,-0.22 0.3,-0.3 0.07,-0.16 0.19,-0.25 0.32,-0.37 0.07,-0.06 0.1,-0.1 0.17,-0.16 0.04,-0.04 0.05,-0.05 0.1,-0.08 0.08,-0.05 0,-0.02 0.08,-0.04 0.08,-0.16 0.11,-0.18 0.27,-0.26 0.05,-0.13 0.56,-0.59 0.65,-0.62 0.06,-0.11 0.06,-0.11 0.15,-0.2 0,-0 0.07,-0.06 0.08,-0.07 0.08,-0.06 -0.01,-0 0.1,-0.07 0.04,-0.12 0.17,-0.21 0.27,-0.31 0.06,-0.06 0.1,-0.1 0.17,-0.16l0.16 -0.1c0.06,-0.12 0.05,-0.1 0.15,-0.2 0.09,-0.09 0.1,-0.09 0.21,-0.15 0.06,-0.15 0.34,-0.37 0.47,-0.49l0.17 -0.14c0.04,-0.1 0.06,-0.13 0.13,-0.22 0,-0 0.07,-0.07 0.07,-0.07 0.05,-0.05 0.03,-0.03 0.09,-0.07 0.02,-0.14 0.13,-0.24 0.21,-0.38 0.07,-0.12 0.1,-0.27 0.19,-0.37 0.14,-0.58 0.27,-0.87 0.24,-1.56 -0.03,-0.65 -0.18,-0.9 -0.34,-1.41 -0.01,-0.01 -0.37,-0.56 -0.44,-0.64 -0.14,-0.19 -0.34,-0.4 -0.53,-0.55 -0.56,-0.43 -0.73,-0.42 -1.42,-0.7 -0.25,-0.03 -1,-0.09 -1.16,-0.21 -0.24,0.02 -0.49,-0.03 -0.72,-0.07l-0.92 -0.12c-0.04,-0.01 -0.11,-0.02 -0.16,-0.03 -0.11,-0.03 -0.06,-0.01 -0.11,-0.05 -0.2,0.04 -0.52,-0.02 -0.72,-0.07l-0.98 -0.13 -1.82 -0.26c-0.27,-0.02 -1.12,-0.07 -1.3,-0.21 -0.21,0.02 -0.44,-0.02 -0.59,-0.12 -0.37,-0.1 -0.67,-0.34 -0.8,-0.61 -0.16,-0.09 -0.36,-0.64 -0.47,-0.85 -0.1,-0.2 -0.41,-0.75 -0.41,-0.93l-0.09 -0.12c-0.02,-0.04 -0.05,-0.09 -0.07,-0.13l-0.81 -1.72c-0.1,-0.1 -0.85,-1.65 -0.86,-1.82 -0.14,-0.12 -0.17,-0.27 -0.28,-0.49 -0.08,-0.17 -0.16,-0.32 -0.23,-0.47 -0.15,-0.32 -0.37,-0.66 -0.46,-0.99 -0.09,-0.07 -0.38,-0.56 -0.53,-0.71 -0.11,-0.11 -0.22,-0.23 -0.34,-0.32 -0.1,-0.08 -0.25,-0.17 -0.32,-0.26 -0.33,-0.11 -0.59,-0.3 -1.02,-0.42 -0.46,-0.13 -0.82,-0.14 -1.31,-0.11 -0.24,0.04 -0.5,0.09 -0.74,0.17 -0.22,0.08 -0.46,0.22 -0.64,0.24z"/>
 </g>
</svg>
