<?xml version="1.0" encoding="UTF-8"?>
<!DOCTYPE svg PUBLIC "-//W3C//DTD SVG 1.1//EN" "http://www.w3.org/Graphics/SVG/1.1/DTD/svg11.dtd">
<!-- Creator: CorelDRAW 2018 (64-Bit) -->
<svg xmlns="http://www.w3.org/2000/svg" xml:space="preserve" width="0.666669in" height="0.333339in" version="1.1" style="shape-rendering:geometricPrecision; text-rendering:geometricPrecision; image-rendering:optimizeQuality; fill-rule:evenodd; clip-rule:evenodd"
viewBox="0 0 118.16 59.08"
 xmlns:xlink="http://www.w3.org/1999/xlink">
 <defs>
  <style type="text/css">
   <![CDATA[
    .fil4 {fill:none}
    .fil0 {fill:#FEFEFE}
    .fil1 {fill:black}
    .fil2 {fill:#FD1A19}
    .fil3 {fill:white}
   ]]>
  </style>
   <clipPath id="id0">
    <path d="M-0 0l118.16 0 0 59.08 -118.16 0 0 -59.08z"/>
   </clipPath>
 </defs>
 <g id="Layer_x0020_1">
  <metadata id="CorelCorpID_0Corel-Layer"/>
  <polygon class="fil0" points="-0,0 118.16,0 118.16,59.08 -0,59.08 "/>
  <g style="clip-path:url(#id0)">
   <g id="_2165653761840">
    <g>
     <path id="1" class="fil1" d="M66.24 28.62c3.03,-0.76 5.27,1.63 5.76,4.02 0.6,2.96 -1.49,5.4 -3.7,5.91 -3.13,0.73 -5.38,-1.53 -5.85,-3.99 -0.54,-2.83 1.05,-5.26 3.79,-5.94zm-3.87 11.62c0.37,0.18 0.92,0.84 1.97,1.46 0.83,0.49 1.37,0.72 2.36,0.93 5.32,1.16 10.31,-3.36 10.2,-9.17 -0.15,-8.45 -9.4,-12.11 -14.5,-6.61 -0.29,-1.49 -1.44,-2.8 -3.27,-2.37 -2.07,0.48 -1.99,2.41 -1.99,3.7l0 17.14c-0.01,1.85 0.55,3.14 2.33,3.37 1.69,0.22 2.9,-1.11 2.91,-2.78 0.01,-1.89 -0.01,-3.78 -0,-5.67z"/>
     <path class="fil1" d="M18.11 35.15c-0.61,-0.71 -4.31,-9.36 -5.66,-10.33 -1.9,-1.37 -4.5,0.01 -4.15,2.52 0.18,1.3 2.03,3.96 2.7,5.17 0.93,1.68 1.92,3.47 2.81,5.16 1.52,2.89 1.96,2.84 1.3,4.08 -2.43,4.55 -4.1,0.04 -6.84,1.5 -0.76,0.41 -1.49,1.45 -1.11,2.73 0.85,2.84 8.18,5.13 12.29,-2 1.92,-3.34 3.46,-7.11 5.18,-10.67 0.69,-1.42 2.07,-4.02 2.46,-5.52 0.79,-3.12 -2.08,-4.18 -3.65,-3.19 -1.23,0.78 -2.27,3.4 -2.92,5.06l-2.18 5.22c-0.41,0.69 0.34,-0.49 -0.1,0.15 -0.01,0.02 -0.05,0.09 -0.06,0.07 -0.01,-0.02 -0.04,0.05 -0.06,0.07z"/>
     <path class="fil1" d="M32.82 32.02c-0.04,-0.93 0.9,-2.03 1.43,-2.48 0.65,-0.55 1.79,-1.06 2.99,-1.05 1.22,0.01 2.29,0.52 2.95,1.09 0.46,0.4 1.44,1.51 1.44,2.44l-8.82 -0zm-0.14 3.22c2,-0.03 11.19,0.17 12.27,-0.28 1.7,-0.71 1.66,-2.63 1.02,-4.46 -3.1,-8.88 -15.92,-8.07 -17.85,0.89 -1.67,7.75 5.18,13.29 12.74,10.86 5.33,-1.72 3.76,-6.59 -0.14,-4.96 -1.53,0.64 -2.89,1.64 -4.94,1.04 -1.42,-0.42 -2.74,-1.7 -3.1,-3.1z"/>
     <path class="fil2" d="M94.01 10.16c-2.04,0.24 -4.03,0.66 -5.47,1.59 -1.99,1.29 -1.36,3.07 -0.36,4.96 1.65,3.12 3.52,6.01 5.21,9.11 1.53,2.8 3.44,2.02 3.99,0.75 0.46,-1.06 0.87,-11.84 0.76,-13.51 -0.15,-2.46 -1.92,-3.16 -4.13,-2.9z"/>
     <path class="fil1" d="M48.89 40.99c0.39,2.11 3.07,2.81 4.56,1.18 0.79,-0.87 0.63,-1.91 0.63,-3.29 0,-3.02 0.15,-17.67 -0.05,-18.89 -0.39,-2.35 -3.45,-2.79 -4.61,-1.23 -0.94,1.27 -0.56,5.19 -0.56,7.08 0,1.02 -0.08,14.5 0.03,15.14z"/>
     <path class="fil3" d="M66.24 28.62c-2.73,0.69 -4.32,3.11 -3.79,5.94 0.47,2.46 2.72,4.72 5.85,3.99 2.21,-0.51 4.3,-2.95 3.7,-5.91 -0.49,-2.38 -2.73,-4.78 -5.76,-4.02z"/>
     <path class="fil2" d="M98.67 34.41c0.22,0.86 3.57,6.7 4.03,7.45 0.81,1.33 1.61,2.39 3.63,1.3 1.59,-0.85 5.78,-4.5 2.86,-6.5 -1.04,-0.71 -6.24,-3.48 -7.47,-4.03 -2.51,-1.13 -3.39,0.43 -3.05,1.79z"/>
     <path class="fil2" d="M96.68 39.58c0.07,-1.25 0.33,-4.09 -0.08,-5.11 -0.53,-1.3 -2.12,-1.55 -3.27,-0.09l-4.54 6.15c-0.95,1.39 -1.31,2.57 0.11,3.64 0.98,0.74 2.39,1.32 3.77,1.63 4.56,1.03 3.78,-2.02 4.01,-6.21z"/>
     <path class="fil2" d="M94.34 31.36c0.76,-1.71 -0.8,-2.41 -1.98,-2.88 -1.24,-0.49 -2.61,-0.97 -3.88,-1.41 -2.97,-1.03 -5.96,-2.85 -6.64,1.47 -0.21,1.32 -0.29,3.66 0.33,4.73 0.81,1.37 2.52,0.95 4.05,0.61 1.46,-0.32 2.87,-0.63 4.34,-0.96 1.56,-0.35 3.23,-0.36 3.77,-1.56z"/>
     <path class="fil2" d="M111.01 27.14c0.3,-1.24 -0.85,-3.32 -1.35,-4.1 -3.27,-5.07 -4.99,-0.83 -9.19,3 -0.92,0.83 -2.31,2.16 -1.75,3.47 0.71,1.67 2.41,1.04 4.01,0.67 1.52,-0.35 3.14,-0.7 4.61,-1.02 1.66,-0.37 3.3,-0.47 3.67,-2.03z"/>
     <path class="fil3" d="M32.82 32.02l8.82 0c0,-0.93 -0.98,-2.04 -1.44,-2.44 -0.66,-0.57 -1.73,-1.07 -2.95,-1.09 -1.2,-0.01 -2.34,0.5 -2.99,1.05 -0.53,0.44 -1.48,1.54 -1.43,2.48z"/>
    </g>
   </g>
  </g>
  <polygon class="fil4" points="-0,0 118.16,0 118.16,59.08 -0,59.08 "/>
 </g>
</svg>
